# Blender v2.79 (sub 0) OBJ File: 'bullet.blend'
# www.blender.org
mtllib bullet_pickup.mtl
o Cube
v -0.153364 0.943020 -0.086641
v -0.453369 0.954319 -1.410897
v -0.165132 0.837318 -0.100264
v -0.473373 0.774634 -1.434055
v 0.175868 0.907314 -0.093982
v 0.412690 0.860392 -1.430207
v 0.164101 0.801612 -0.107605
v 0.392686 0.680707 -1.453365
v -0.000515 0.819465 -0.103935
v -0.066600 0.752268 -1.611881
v 0.011252 0.925167 -0.090311
v -0.046596 0.931953 -1.588723
v 0.078020 0.915241 -0.093677
v 0.937011 0.746297 -1.036447
v 0.066886 0.815228 -0.106567
v 0.918083 0.576282 -1.058359
v 0.253596 0.862921 0.160618
v 1.398871 0.608666 -0.367512
v 0.242462 0.762907 0.147728
v 1.379943 0.438651 -0.389424
v 0.154674 0.789067 0.020580
v 1.267933 0.508542 -0.834956
v 0.165808 0.889081 0.033470
v 1.286860 0.678557 -0.813044
v 0.260434 0.886488 -0.005437
v 1.457962 0.495119 0.501060
v 0.248667 0.780785 -0.019060
v 1.437959 0.315434 0.477902
v 0.067633 0.873279 0.263591
v 0.950790 0.460372 1.208749
v 0.055865 0.767576 0.249968
v 0.930787 0.280687 1.185591
v 0.152266 0.774181 0.115454
v 1.336025 0.271310 0.908309
v 0.164033 0.879883 0.129077
v 1.356030 0.450995 0.931467
v 0.125646 0.874100 0.184401
v 0.314961 0.501385 1.401145
v 0.114512 0.774086 0.171511
v 0.296034 0.331370 1.379233
v -0.185687 0.909598 0.177897
v -0.504013 0.594764 1.384036
v -0.196821 0.809584 0.165007
v -0.522940 0.424749 1.362124
v -0.041155 0.791835 0.168259
v -0.095546 0.355427 1.530820
v -0.030021 0.891849 0.181149
v -0.076618 0.525442 1.552732
v -0.008492 0.876742 0.302474
v -1.020851 0.682752 1.186375
v -0.020259 0.771040 0.288851
v -1.040854 0.503067 1.163217
v -0.175676 0.931527 0.021812
v -1.460636 0.826865 0.448083
v -0.187444 0.825824 0.008189
v -1.480640 0.647180 0.424925
v -0.103852 0.798432 0.148520
v -1.393811 0.575896 0.903017
v -0.092084 0.904134 0.162143
v -1.373808 0.755581 0.926175
v -0.127771 0.912499 0.105360
v -1.375416 0.896995 -0.208267
v -0.138905 0.812485 0.092470
v -1.394343 0.726980 -0.230179
v 0.007071 0.933848 -0.176761
v -1.020709 0.953154 -0.950400
v -0.004063 0.833834 -0.189651
v -1.039637 0.783139 -0.972311
v -0.071484 0.823160 -0.048590
v -1.371426 0.778151 -0.647011
v -0.060350 0.923173 -0.035700
v -1.352499 0.948166 -0.625099
v 0.024745 0.783016 0.579018
v 0.422775 0.964747 0.304979
v -0.089305 1.136220 0.331445
v -0.447065 0.871499 0.300026
v -0.156079 0.536419 0.254141
v 0.381507 0.594052 0.257203
v 0.196961 1.165548 -0.143381
v -0.340625 1.107914 -0.146443
v -0.381893 0.737220 -0.194219
v 0.130187 0.565746 -0.220685
v 0.487947 0.830468 -0.189265
v 0.016137 0.918950 -0.468258
v 0.874423 0.827561 0.265438
v 0.853062 0.635683 0.240708
v 0.503075 0.611705 0.729066
v 0.524436 0.803583 0.753796
v 0.775256 0.802197 0.547898
v 0.753895 0.610319 0.523168
v 0.522593 0.966203 -0.547607
v 0.502381 0.784652 -0.571006
v 0.821099 0.689676 -0.109391
v 0.841311 0.871227 -0.085992
v 0.741411 0.919253 -0.372332
v 0.721200 0.737701 -0.395731
v -0.288142 1.085427 -0.731143
v -0.309503 0.893549 -0.755873
v 0.288143 0.828733 -0.769198
v 0.309504 1.020611 -0.744469
v -0.002447 1.065318 -0.821892
v -0.023808 0.873440 -0.846621
v -0.736516 1.040181 -0.033998
v -0.756728 0.858629 -0.057397
v -0.511953 0.897383 -0.569524
v -0.491742 1.078935 -0.546125
v -0.691347 1.071103 -0.312944
v -0.711559 0.889552 -0.336343
v -0.499446 0.916505 0.762050
v -0.520808 0.724627 0.737320
v -0.824293 0.824075 0.227844
v -0.802932 1.015954 0.252574
v -0.717721 0.966615 0.561785
v -0.739082 0.774737 0.537055
v 0.235381 0.823177 0.810228
v 0.215169 0.641625 0.786829
v -0.349984 0.706063 0.775023
v -0.329773 0.887615 0.798422
v -0.038242 0.844079 0.884396
v -0.058454 0.662528 0.860997
v -0.088646 -1.190777 0.151087
v -0.154638 1.005526 0.151087
v -0.088646 -1.190777 -0.056207
v -0.154638 1.005526 -0.056207
v 0.116375 -1.160160 0.151087
v 0.052656 1.005526 0.151087
v 0.116375 -1.160160 -0.056207
v 0.052656 1.005526 -0.056207
v -0.248691 -0.523458 0.151087
v -0.290845 0.211941 0.151087
v -0.290845 0.211941 -0.056207
v -0.248691 -0.523458 -0.056207
v -0.083890 0.223804 -0.056207
v -0.041737 -0.511596 -0.056207
v -0.083890 0.223804 0.151087
v -0.041737 -0.511596 0.151087
v 0.331514 0.092026 0.157076
v 1.256001 0.086417 0.932678
v 0.691748 -0.703576 0.285271
v -0.161003 -0.734347 0.059321
vn -0.5932 0.7899 0.1554
vn -0.7037 0.6039 -0.3742
vn -0.7464 -0.5640 -0.3533
vn -0.7577 -0.6232 0.1936
vn -0.1032 -0.9921 0.0714
vn -0.0991 -0.6200 -0.7783
vn 0.5880 -0.7035 -0.3991
vn 0.6159 -0.7704 0.1647
vn 0.7916 0.4427 -0.4211
vn 0.7539 0.6453 0.1229
vn 0.1045 0.9940 -0.0299
vn 0.0357 0.6345 -0.7720
vn -0.4354 0.8354 -0.3355
vn -0.3335 0.8372 -0.4333
vn -0.6834 -0.5404 -0.4909
vn -0.5963 -0.6100 -0.5218
vn -0.1596 -0.9829 -0.0918
vn -0.2756 -0.9612 -0.0039
vn 0.0905 -0.7692 0.6325
vn 0.1382 -0.8287 0.5423
vn 0.0020 0.5760 -0.8174
vn -0.2230 -0.5705 -0.7904
vn 0.4772 -0.7252 -0.4964
vn 0.5406 -0.7912 0.2860
vn 0.8581 0.3232 0.3988
vn 0.4281 0.6122 0.6648
vn 0.2430 0.9696 0.0284
vn 0.7471 0.5058 -0.4313
vn 0.2991 0.6162 0.7285
vn 0.0594 0.9850 0.1618
vn 0.4368 0.7577 -0.4848
vn 0.8581 0.4199 -0.2955
vn 0.5456 -0.6925 -0.4719
vn 0.1135 -0.5924 -0.7976
vn -0.2684 -0.9342 -0.2349
vn 0.4874 -0.8232 0.2911
vn -0.2220 -0.7457 0.6281
vn -0.6917 -0.6454 0.3241
vn -0.0069 0.3569 0.9341
vn -0.3497 0.7045 0.6176
vn 0.2362 0.9481 0.2126
vn 0.7499 0.3863 0.5369
vn 0.7557 0.6516 0.0661
vn 0.7882 0.3150 0.5286
vn 0.5814 -0.7880 0.2023
vn 0.6222 -0.7052 -0.3399
vn -0.1030 -0.9385 -0.3295
vn -0.0893 -0.8021 0.5904
vn -0.7479 -0.6355 0.1915
vn -0.7515 -0.5463 -0.3698
vn -0.7110 0.4835 0.5106
vn -0.5905 0.8060 0.0409
vn 0.1051 0.9512 0.2899
vn 0.0438 0.4111 0.9105
vn 0.3162 0.7783 -0.5423
vn 0.1553 -0.6670 -0.7286
vn -0.1589 -0.9740 -0.1615
vn -0.6081 -0.7191 0.3364
vn 0.4635 0.6094 0.6432
vn 0.0440 0.3519 0.9350
vn 0.0218 -0.7762 0.6301
vn 0.5024 -0.7851 0.3621
vn 0.0603 -0.9716 -0.2288
vn -0.6650 -0.6932 0.2779
vn -0.6695 -0.5507 -0.4984
vn -0.1936 -0.5548 -0.8091
vn -0.7270 0.6004 -0.3330
vn -0.2226 0.8348 -0.5035
vn -0.0245 0.9777 0.2085
vn -0.6590 0.5457 0.5177
vn -0.4472 0.7259 0.5226
vn 0.0602 0.9939 0.0921
vn -0.1740 0.6707 0.7210
vn -0.6854 0.4762 0.5508
vn -0.6133 -0.6806 0.4008
vn -0.1276 -0.7492 0.6499
vn 0.0792 -0.9960 -0.0407
vn -0.7023 -0.6107 -0.3659
vn -0.0522 -0.5839 -0.8101
vn 0.4690 -0.6532 -0.5943
vn -0.0485 0.5803 -0.8129
vn 0.4067 0.7647 -0.4999
vn -0.0417 0.9974 0.0586
vn -0.7111 0.6478 -0.2733
vn -0.7306 -0.6753 0.1008
vn -0.1089 -0.9918 -0.0662
vn 0.7337 0.6285 0.2582
vn 0.1102 0.9760 0.1874
vn -0.5697 0.7701 0.2871
vn 0.5729 -0.8165 0.0719
vn -0.2004 -0.7951 0.5724
vn -0.0547 -0.9933 -0.1015
vn 0.5248 0.7393 -0.4217
vn 0.1644 0.9746 0.1521
vn -0.0394 0.6503 0.7587
vn 0.3640 -0.7056 -0.6080
vn 0.4054 -0.8363 0.3690
vn -0.0573 -0.9857 -0.1585
vn -0.0955 0.8257 -0.5559
vn 0.1618 0.9822 0.0951
vn 0.5663 0.6090 0.5553
vn -0.2564 -0.6192 -0.7421
vn 0.5771 -0.7745 -0.2590
vn -0.1075 -0.9763 -0.1874
vn -0.5647 0.8192 -0.1001
vn 0.1115 0.9915 0.0662
vn 0.7380 0.6709 -0.0727
vn -0.7255 -0.6258 -0.2863
vn 0.0098 -0.1289 0.9916
vn 0.7631 0.4256 0.4863
vn -0.1438 0.8470 0.5118
vn 0.6391 -0.6885 0.3428
vn -0.8861 0.0391 0.4619
vn -0.3378 -0.8963 0.2871
vn 0.8861 -0.0391 -0.4619
vn 0.3378 0.8963 -0.2871
vn -0.6391 0.6885 -0.3428
vn -0.7631 -0.4256 -0.4863
vn 0.1438 -0.8470 -0.5118
vn -0.0098 0.1289 -0.9916
vn 0.6344 0.1656 -0.7550
vn -0.1988 -0.5323 0.8229
vn -0.6160 0.2800 0.7363
vn 0.2572 -0.0391 -0.9656
vn -0.7298 0.0412 0.6825
vn -0.6603 0.1133 0.7424
vn -0.6603 0.1133 -0.7424
vn -0.7298 0.0412 -0.6825
vn 0.7359 -0.1285 -0.6648
vn 0.6781 -0.0392 -0.7339
vn 0.7359 -0.1285 0.6648
vn 0.6781 -0.0392 0.7339
vn 0.6779 0.1012 0.7281
vn -0.7183 -0.1058 0.6876
vn 0.7071 0.1724 0.6857
vn -0.6688 -0.1604 0.7259
vn 0.7071 0.1724 -0.6857
vn 0.6779 0.1012 -0.7281
vn -0.6688 -0.1604 -0.7259
vn -0.7183 -0.1058 -0.6876
usemtl pedel
s 1
f 97//1 2//2 4//3 98//4
f 102//5 10//6 8//7 99//8
f 99//8 8//7 6//9 100//10
f 101//11 12//12 2//2 97//1
f 13//13 91//14 92//15 15//16
f 10//6 4//3 2//2 12//12
f 8//7 10//6 12//12 6//9
f 21//17 96//18 93//19 19//20
f 100//10 6//9 12//12 101//11
f 98//4 4//3 10//6 102//5
f 91//14 14//21 16//22 92//15
f 96//18 22//23 20//24 93//19
f 93//19 20//24 18//25 94//26
f 95//27 24//28 14//21 91//14
f 19//20 93//19 94//26 17//29
f 22//23 16//22 14//21 24//28
f 20//24 22//23 24//28 18//25
f 23//30 95//27 91//14 13//13
f 94//26 18//25 24//28 95//27
f 92//15 16//22 22//23 96//18
f 85//31 26//32 28//33 86//34
f 90//35 34//36 32//37 87//38
f 87//38 32//37 30//39 88//40
f 89//41 36//42 26//32 85//31
f 17//29 94//26 95//27 23//30
f 34//36 28//33 26//32 36//42
f 32//37 34//36 36//42 30//39
f 15//16 92//15 96//18 21//17
f 88//40 30//39 36//42 89//41
f 86//34 28//33 34//36 90//35
f 115//43 38//44 40//45 116//46
f 120//47 46//48 44//49 117//50
f 117//50 44//49 42//51 118//52
f 119//53 48//54 38//44 115//43
f 25//55 85//31 86//34 27//56
f 46//48 40//45 38//44 48//54
f 44//49 46//48 48//54 42//51
f 33//57 90//35 87//38 31//58
f 118//52 42//51 48//54 119//53
f 116//46 40//45 46//48 120//47
f 109//59 50//60 52//61 110//62
f 114//63 58//64 56//65 111//66
f 111//66 56//65 54//67 112//68
f 113//69 60//70 50//60 109//59
f 31//58 87//38 88//40 29//71
f 58//64 52//61 50//60 60//70
f 56//65 58//64 60//70 54//67
f 35//72 89//41 85//31 25//55
f 112//68 54//67 60//70 113//69
f 110//62 52//61 58//64 114//63
f 103//73 62//74 64//75 104//76
f 108//77 70//78 68//79 105//80
f 105//80 68//79 66//81 106//82
f 107//83 72//84 62//74 103//73
f 29//71 88//40 89//41 35//72
f 70//78 64//75 62//74 72//84
f 68//79 70//78 72//84 66//81
f 27//56 86//34 90//35 33//57
f 106//82 66//81 72//84 107//83
f 104//76 64//75 70//78 108//77
f 3//85 98//4 102//5 9//86
f 5//87 100//10 101//11 11//88
f 11//88 101//11 97//1 1//89
f 7//90 99//8 100//10 5//87
f 9//86 102//5 99//8 7//90
f 1//89 97//1 98//4 3//85
f 63//91 104//76 108//77 69//92
f 65//93 106//82 107//83 71//94
f 71//94 107//83 103//73 61//95
f 67//96 105//80 106//82 65//93
f 69//92 108//77 105//80 67//96
f 61//95 103//73 104//76 63//91
f 51//97 110//62 114//63 57//98
f 53//99 112//68 113//69 59//100
f 59//100 113//69 109//59 49//101
f 55//102 111//66 112//68 53//99
f 57//98 114//63 111//66 55//102
f 49//101 109//59 110//62 51//97
f 39//103 116//46 120//47 45//104
f 41//105 118//52 119//53 47//106
f 47//106 119//53 115//43 37//107
f 43//108 117//50 118//52 41//105
f 45//104 120//47 117//50 43//108
f 37//107 115//43 116//46 39//103
usemtl Material
f 73//109 74//110 75//111
f 74//110 73//109 78//112
f 73//109 75//111 76//113
f 73//109 76//113 77//114
f 73//109 77//114 78//112
f 74//110 78//112 83//115
f 75//111 74//110 79//116
f 76//113 75//111 80//117
f 77//114 76//113 81//118
f 78//112 77//114 82//119
f 74//110 83//115 79//116
f 75//111 79//116 80//117
f 76//113 80//117 81//118
f 77//114 81//118 82//119
f 78//112 82//119 83//115
f 79//116 83//115 84//120
f 80//117 79//116 84//120
f 81//118 80//117 84//120
f 82//119 81//118 84//120
f 83//115 82//119 84//120
usemtl Material.001
s off
f 137//121 138//121 139//121
f 138//122 140//122 139//122
f 138//123 137//123 140//123
f 140//124 137//124 139//124
s 1
f 130//125 122//126 124//127 131//128
f 131//128 124//127 128//129 133//130
f 133//130 128//129 126//131 135//132
f 135//132 126//131 122//126 130//125
f 136//133 135//132 130//125 129//134
f 125//135 136//133 129//134 121//136
f 127//137 134//138 136//133 125//135
f 134//138 133//130 135//132 136//133
f 123//139 132//140 134//138 127//137
f 132//140 131//128 133//130 134//138
f 121//136 129//134 132//140 123//139
f 129//134 130//125 131//128 132//140
