# Blender v2.79 (sub 0) OBJ File: 'bullet.blend'
# www.blender.org
mtllib bullet.mtl
o Cube
v -0.065879 0.031695 -0.051489
v -0.181085 0.036034 -0.560022
v -0.070398 -0.008896 -0.056720
v -0.188767 -0.032968 -0.568915
v 0.060551 0.017983 -0.054308
v 0.151494 -0.000036 -0.567437
v 0.056032 -0.022608 -0.059539
v 0.143813 -0.069037 -0.576330
v -0.007183 -0.015752 -0.058130
v -0.032560 -0.041557 -0.637203
v -0.002664 0.024839 -0.052898
v -0.024878 0.027445 -0.628310
v 0.022976 0.021027 -0.054191
v 0.352841 -0.043850 -0.416228
v 0.018700 -0.017380 -0.059141
v 0.345573 -0.109138 -0.424642
v 0.090400 0.000935 0.043462
v 0.530202 -0.096702 -0.159347
v 0.086124 -0.037471 0.038512
v 0.522933 -0.161990 -0.167762
v 0.052412 -0.027425 -0.010314
v 0.479920 -0.135151 -0.338852
v 0.056688 0.010981 -0.005364
v 0.487188 -0.069863 -0.330438
v 0.093026 0.009985 -0.020305
v 0.552894 -0.140306 0.174197
v 0.088507 -0.030606 -0.025537
v 0.545212 -0.209308 0.165304
v 0.018987 0.004913 0.083005
v 0.358132 -0.153649 0.445960
v 0.014468 -0.035678 0.077774
v 0.350451 -0.222651 0.437066
v 0.051488 -0.033142 0.026119
v 0.506068 -0.226252 0.330586
v 0.056006 0.007449 0.031350
v 0.513750 -0.157250 0.339479
v 0.041265 0.005228 0.052595
v 0.113965 -0.137899 0.519842
v 0.036989 -0.033178 0.047645
v 0.106697 -0.203188 0.511428
v -0.078291 0.018860 0.050098
v -0.200533 -0.102041 0.513272
v -0.082567 -0.019547 0.045148
v -0.207801 -0.167329 0.504857
v -0.022789 -0.026363 0.046396
v -0.043676 -0.193950 0.569639
v -0.018513 0.012044 0.051346
v -0.036407 -0.128661 0.578054
v -0.010246 0.006243 0.097937
v -0.399006 -0.068252 0.437367
v -0.014765 -0.034348 0.092705
v -0.406688 -0.137254 0.428474
v -0.074447 0.027281 -0.009841
v -0.567890 -0.012910 0.153853
v -0.078966 -0.013310 -0.015073
v -0.575572 -0.081912 0.144960
v -0.046865 -0.023829 0.038816
v -0.542228 -0.109286 0.328554
v -0.042346 0.016762 0.044048
v -0.534546 -0.040285 0.337447
v -0.056050 0.019974 0.022242
v -0.535164 0.014020 -0.098195
v -0.060326 -0.018433 0.017292
v -0.542432 -0.051268 -0.106610
v -0.004269 0.028172 -0.086096
v -0.398952 0.035586 -0.383185
v -0.008545 -0.010234 -0.091046
v -0.406220 -0.029702 -0.391599
v -0.034436 -0.014333 -0.036877
v -0.533632 -0.031618 -0.266679
v -0.030160 0.024073 -0.031927
v -0.526364 0.033671 -0.258264
v 0.002518 -0.029749 0.204134
v 0.155367 0.040038 0.098899
v -0.041279 0.105886 0.109062
v -0.178664 0.004229 0.096997
v -0.066921 -0.124446 0.079376
v 0.139519 -0.102314 0.080552
v 0.068651 0.117148 -0.073278
v -0.137789 0.095016 -0.074454
v -0.153637 -0.047336 -0.092800
v 0.043009 -0.113184 -0.102964
v 0.180394 -0.011527 -0.090898
v -0.000788 0.022451 -0.198035
v 0.328806 -0.012643 0.083714
v 0.320603 -0.086327 0.074218
v 0.186203 -0.095535 0.261754
v 0.194406 -0.021851 0.271251
v 0.290725 -0.022384 0.192183
v 0.282522 -0.096068 0.182686
v 0.193698 0.040597 -0.228506
v 0.185937 -0.029121 -0.237492
v 0.308329 -0.065593 -0.060225
v 0.316091 0.004125 -0.051240
v 0.277728 0.022568 -0.161198
v 0.269966 -0.047151 -0.170184
v -0.117635 0.086381 -0.298987
v -0.125838 0.012697 -0.308483
v 0.103666 -0.012193 -0.313601
v 0.111869 0.061491 -0.304104
v -0.007924 0.078659 -0.333836
v -0.016127 0.004975 -0.343332
v -0.289817 0.069006 -0.031273
v -0.297579 -0.000713 -0.040259
v -0.203582 0.014169 -0.236923
v -0.195821 0.083888 -0.227937
v -0.272472 0.080881 -0.138393
v -0.280233 0.011162 -0.147378
v -0.198779 0.021512 0.274421
v -0.206982 -0.052172 0.264924
v -0.323525 -0.013982 0.069278
v -0.315322 0.059702 0.078774
v -0.282600 0.040756 0.197516
v -0.290803 -0.032928 0.188019
v 0.083405 -0.014327 0.292922
v 0.075644 -0.084045 0.283936
v -0.141384 -0.059300 0.279402
v -0.133622 0.010418 0.288388
v -0.021670 -0.006300 0.321403
v -0.029432 -0.076019 0.312418
v -0.041026 -0.787714 0.039802
v -0.066368 0.055698 0.039802
v -0.041026 -0.787714 -0.039802
v -0.066368 0.055698 -0.039802
v 0.037705 -0.775957 0.039802
v 0.013236 0.055698 0.039802
v 0.037705 -0.775957 -0.039802
v 0.013236 0.055698 -0.039802
v -0.102486 -0.531454 0.039802
v -0.118673 -0.249050 0.039802
v -0.118673 -0.249050 -0.039802
v -0.102486 -0.531454 -0.039802
v -0.039200 -0.244495 -0.039802
v -0.023012 -0.526899 -0.039802
v -0.039200 -0.244495 0.039802
v -0.023012 -0.526899 0.039802
v 0.120321 -0.295099 0.042102
v 0.475338 -0.297253 0.339944
v 0.258657 -0.600622 0.091331
v -0.068812 -0.612438 0.004563
vn -0.5932 0.7899 0.1554
vn -0.7037 0.6039 -0.3742
vn -0.7464 -0.5640 -0.3533
vn -0.7577 -0.6232 0.1936
vn -0.1032 -0.9921 0.0714
vn -0.0991 -0.6200 -0.7783
vn 0.5880 -0.7035 -0.3991
vn 0.6159 -0.7704 0.1647
vn 0.7916 0.4427 -0.4211
vn 0.7539 0.6453 0.1229
vn 0.1045 0.9940 -0.0299
vn 0.0357 0.6345 -0.7720
vn -0.4354 0.8354 -0.3355
vn -0.3335 0.8372 -0.4333
vn -0.6834 -0.5404 -0.4909
vn -0.5963 -0.6100 -0.5218
vn -0.1596 -0.9829 -0.0918
vn -0.2756 -0.9612 -0.0039
vn 0.0905 -0.7692 0.6325
vn 0.1382 -0.8287 0.5423
vn 0.0020 0.5760 -0.8174
vn -0.2230 -0.5705 -0.7904
vn 0.4772 -0.7252 -0.4964
vn 0.5406 -0.7912 0.2860
vn 0.8581 0.3232 0.3988
vn 0.4281 0.6122 0.6648
vn 0.2430 0.9696 0.0284
vn 0.7471 0.5058 -0.4313
vn 0.2991 0.6162 0.7285
vn 0.0594 0.9850 0.1618
vn 0.4368 0.7577 -0.4848
vn 0.8581 0.4199 -0.2955
vn 0.5456 -0.6925 -0.4719
vn 0.1135 -0.5924 -0.7976
vn -0.2684 -0.9342 -0.2349
vn 0.4874 -0.8232 0.2911
vn -0.2220 -0.7457 0.6281
vn -0.6917 -0.6454 0.3241
vn -0.0069 0.3569 0.9341
vn -0.3497 0.7045 0.6176
vn 0.2362 0.9481 0.2126
vn 0.7499 0.3863 0.5369
vn 0.7557 0.6516 0.0661
vn 0.7882 0.3150 0.5286
vn 0.5814 -0.7880 0.2023
vn 0.6222 -0.7052 -0.3399
vn -0.1030 -0.9385 -0.3295
vn -0.0893 -0.8021 0.5904
vn -0.7479 -0.6355 0.1915
vn -0.7515 -0.5463 -0.3698
vn -0.7110 0.4835 0.5106
vn -0.5905 0.8060 0.0409
vn 0.1051 0.9512 0.2899
vn 0.0438 0.4111 0.9105
vn 0.3162 0.7783 -0.5423
vn 0.1553 -0.6670 -0.7286
vn -0.1589 -0.9740 -0.1615
vn -0.6081 -0.7191 0.3364
vn 0.4635 0.6094 0.6432
vn 0.0440 0.3519 0.9350
vn 0.0218 -0.7762 0.6301
vn 0.5024 -0.7851 0.3621
vn 0.0603 -0.9716 -0.2288
vn -0.6650 -0.6932 0.2779
vn -0.6695 -0.5507 -0.4984
vn -0.1936 -0.5548 -0.8091
vn -0.7270 0.6004 -0.3330
vn -0.2226 0.8348 -0.5035
vn -0.0245 0.9777 0.2085
vn -0.6590 0.5457 0.5177
vn -0.4472 0.7259 0.5226
vn 0.0602 0.9939 0.0921
vn -0.1740 0.6707 0.7210
vn -0.6854 0.4762 0.5508
vn -0.6133 -0.6806 0.4008
vn -0.1276 -0.7492 0.6499
vn 0.0792 -0.9960 -0.0407
vn -0.7023 -0.6107 -0.3659
vn -0.0522 -0.5839 -0.8101
vn 0.4690 -0.6532 -0.5943
vn -0.0485 0.5803 -0.8129
vn 0.4067 0.7647 -0.4999
vn -0.0417 0.9974 0.0586
vn -0.7111 0.6478 -0.2733
vn -0.7306 -0.6753 0.1008
vn -0.1089 -0.9918 -0.0662
vn 0.7337 0.6285 0.2582
vn 0.1102 0.9760 0.1874
vn -0.5697 0.7701 0.2871
vn 0.5729 -0.8165 0.0719
vn -0.2004 -0.7951 0.5724
vn -0.0547 -0.9933 -0.1015
vn 0.5248 0.7393 -0.4217
vn 0.1644 0.9746 0.1521
vn -0.0394 0.6503 0.7587
vn 0.3640 -0.7056 -0.6080
vn 0.4054 -0.8363 0.3690
vn -0.0573 -0.9857 -0.1585
vn -0.0955 0.8257 -0.5559
vn 0.1618 0.9822 0.0951
vn 0.5663 0.6090 0.5553
vn -0.2564 -0.6192 -0.7421
vn 0.5771 -0.7745 -0.2590
vn -0.1075 -0.9763 -0.1874
vn -0.5647 0.8192 -0.1001
vn 0.1115 0.9915 0.0662
vn 0.7380 0.6709 -0.0727
vn -0.7255 -0.6258 -0.2863
vn 0.0098 -0.1289 0.9916
vn 0.7631 0.4256 0.4863
vn -0.1438 0.8470 0.5118
vn 0.6391 -0.6885 0.3428
vn -0.8861 0.0391 0.4619
vn -0.3378 -0.8963 0.2871
vn 0.8861 -0.0391 -0.4619
vn 0.3378 0.8963 -0.2871
vn -0.6391 0.6885 -0.3428
vn -0.7631 -0.4256 -0.4863
vn 0.1438 -0.8470 -0.5118
vn -0.0098 0.1289 -0.9916
vn 0.6344 0.1656 -0.7550
vn -0.1988 -0.5323 0.8229
vn -0.6160 0.2800 0.7363
vn 0.2572 -0.0391 -0.9656
vn -0.7298 0.0412 0.6825
vn -0.6603 0.1133 0.7424
vn -0.6603 0.1133 -0.7424
vn -0.7298 0.0412 -0.6825
vn 0.7359 -0.1285 -0.6648
vn 0.6781 -0.0392 -0.7339
vn 0.7359 -0.1285 0.6648
vn 0.6781 -0.0392 0.7339
vn 0.6779 0.1012 0.7281
vn -0.7183 -0.1058 0.6876
vn 0.7071 0.1724 0.6857
vn -0.6688 -0.1604 0.7259
vn 0.7071 0.1724 -0.6857
vn 0.6779 0.1012 -0.7281
vn -0.6688 -0.1604 -0.7259
vn -0.7183 -0.1058 -0.6876
usemtl pedel
s 1
f 97//1 2//2 4//3 98//4
f 102//5 10//6 8//7 99//8
f 99//8 8//7 6//9 100//10
f 101//11 12//12 2//2 97//1
f 13//13 91//14 92//15 15//16
f 10//6 4//3 2//2 12//12
f 8//7 10//6 12//12 6//9
f 21//17 96//18 93//19 19//20
f 100//10 6//9 12//12 101//11
f 98//4 4//3 10//6 102//5
f 91//14 14//21 16//22 92//15
f 96//18 22//23 20//24 93//19
f 93//19 20//24 18//25 94//26
f 95//27 24//28 14//21 91//14
f 19//20 93//19 94//26 17//29
f 22//23 16//22 14//21 24//28
f 20//24 22//23 24//28 18//25
f 23//30 95//27 91//14 13//13
f 94//26 18//25 24//28 95//27
f 92//15 16//22 22//23 96//18
f 85//31 26//32 28//33 86//34
f 90//35 34//36 32//37 87//38
f 87//38 32//37 30//39 88//40
f 89//41 36//42 26//32 85//31
f 17//29 94//26 95//27 23//30
f 34//36 28//33 26//32 36//42
f 32//37 34//36 36//42 30//39
f 15//16 92//15 96//18 21//17
f 88//40 30//39 36//42 89//41
f 86//34 28//33 34//36 90//35
f 115//43 38//44 40//45 116//46
f 120//47 46//48 44//49 117//50
f 117//50 44//49 42//51 118//52
f 119//53 48//54 38//44 115//43
f 25//55 85//31 86//34 27//56
f 46//48 40//45 38//44 48//54
f 44//49 46//48 48//54 42//51
f 33//57 90//35 87//38 31//58
f 118//52 42//51 48//54 119//53
f 116//46 40//45 46//48 120//47
f 109//59 50//60 52//61 110//62
f 114//63 58//64 56//65 111//66
f 111//66 56//65 54//67 112//68
f 113//69 60//70 50//60 109//59
f 31//58 87//38 88//40 29//71
f 58//64 52//61 50//60 60//70
f 56//65 58//64 60//70 54//67
f 35//72 89//41 85//31 25//55
f 112//68 54//67 60//70 113//69
f 110//62 52//61 58//64 114//63
f 103//73 62//74 64//75 104//76
f 108//77 70//78 68//79 105//80
f 105//80 68//79 66//81 106//82
f 107//83 72//84 62//74 103//73
f 29//71 88//40 89//41 35//72
f 70//78 64//75 62//74 72//84
f 68//79 70//78 72//84 66//81
f 27//56 86//34 90//35 33//57
f 106//82 66//81 72//84 107//83
f 104//76 64//75 70//78 108//77
f 3//85 98//4 102//5 9//86
f 5//87 100//10 101//11 11//88
f 11//88 101//11 97//1 1//89
f 7//90 99//8 100//10 5//87
f 9//86 102//5 99//8 7//90
f 1//89 97//1 98//4 3//85
f 63//91 104//76 108//77 69//92
f 65//93 106//82 107//83 71//94
f 71//94 107//83 103//73 61//95
f 67//96 105//80 106//82 65//93
f 69//92 108//77 105//80 67//96
f 61//95 103//73 104//76 63//91
f 51//97 110//62 114//63 57//98
f 53//99 112//68 113//69 59//100
f 59//100 113//69 109//59 49//101
f 55//102 111//66 112//68 53//99
f 57//98 114//63 111//66 55//102
f 49//101 109//59 110//62 51//97
f 39//103 116//46 120//47 45//104
f 41//105 118//52 119//53 47//106
f 47//106 119//53 115//43 37//107
f 43//108 117//50 118//52 41//105
f 45//104 120//47 117//50 43//108
f 37//107 115//43 116//46 39//103
usemtl Material
f 73//109 74//110 75//111
f 74//110 73//109 78//112
f 73//109 75//111 76//113
f 73//109 76//113 77//114
f 73//109 77//114 78//112
f 74//110 78//112 83//115
f 75//111 74//110 79//116
f 76//113 75//111 80//117
f 77//114 76//113 81//118
f 78//112 77//114 82//119
f 74//110 83//115 79//116
f 75//111 79//116 80//117
f 76//113 80//117 81//118
f 77//114 81//118 82//119
f 78//112 82//119 83//115
f 79//116 83//115 84//120
f 80//117 79//116 84//120
f 81//118 80//117 84//120
f 82//119 81//118 84//120
f 83//115 82//119 84//120
usemtl Material.001
s off
f 137//121 138//121 139//121
f 138//122 140//122 139//122
f 138//123 137//123 140//123
f 140//124 137//124 139//124
s 1
f 130//125 122//126 124//127 131//128
f 131//128 124//127 128//129 133//130
f 133//130 128//129 126//131 135//132
f 135//132 126//131 122//126 130//125
f 136//133 135//132 130//125 129//134
f 125//135 136//133 129//134 121//136
f 127//137 134//138 136//133 125//135
f 134//138 133//130 135//132 136//133
f 123//139 132//140 134//138 127//137
f 132//140 131//128 133//130 134//138
f 121//136 129//134 132//140 123//139
f 129//134 130//125 131//128 132//140
