# Blender v2.79 (sub 0) OBJ File: 'player_weapon.blend'
# www.blender.org
mtllib muzzle_flash.mtl
o muzzle_flash_Plane
v -0.984498 -1.000582 -1.583956
v -0.887858 -0.688864 -1.048961
v -0.569583 -0.761031 -1.583956
v -0.791219 -0.521480 -1.048961
v -0.569583 -0.281929 -1.583956
v -0.887858 -0.354095 -1.048961
v -0.984497 -0.042378 -1.583956
v -1.081137 -0.354095 -1.048961
v -1.399412 -0.281929 -1.583956
v -1.177776 -0.521480 -1.048961
v -1.399412 -0.761030 -1.583956
v -1.081137 -0.688864 -1.048961
v -0.984498 -0.521480 -0.899944
v 0.984498 -1.000582 -1.583956
v 0.887858 -0.688864 -1.048961
v 0.569583 -0.761031 -1.583956
v 0.791219 -0.521480 -1.048961
v 0.569583 -0.281929 -1.583956
v 0.887858 -0.354095 -1.048961
v 0.984497 -0.042378 -1.583956
v 1.081137 -0.354095 -1.048961
v 1.399412 -0.281929 -1.583956
v 1.177776 -0.521480 -1.048961
v 1.399412 -0.761030 -1.583956
v 1.081137 -0.688864 -1.048961
v 0.984498 -0.521480 -0.899944
vn -0.8612 -0.0467 0.5061
vn 0.8612 -0.0467 0.5061
vn 0.4711 -0.7225 0.5061
vn 0.8612 0.0467 0.5061
vn -0.3902 0.7692 0.5061
vn -0.4711 0.7225 0.5061
vn 0.3902 -0.7692 0.5061
vn -0.3902 -0.7692 0.5061
vn 0.4711 0.7225 0.5061
vn 0.3902 0.7692 0.5061
vn -0.8612 0.0467 0.5061
vn -0.4711 -0.7225 0.5061
usemtl muzzle_flash
s off
f 9//1 13//1 8//1
f 6//2 13//2 5//2
f 1//3 13//3 12//3
f 3//4 13//4 2//4
f 10//5 13//5 9//5
f 7//6 13//6 6//6
f 4//7 13//7 3//7
f 11//8 13//8 10//8
f 8//9 13//9 7//9
f 5//10 13//10 4//10
f 12//11 13//11 11//11
f 2//12 13//12 1//12
f 22//2 21//2 26//2
f 19//1 18//1 26//1
f 14//12 25//12 26//12
f 16//11 15//11 26//11
f 23//10 22//10 26//10
f 20//9 19//9 26//9
f 17//8 16//8 26//8
f 24//7 23//7 26//7
f 21//6 20//6 26//6
f 18//5 17//5 26//5
f 25//4 24//4 26//4
f 15//3 14//3 26//3
