# Blender v2.79 (sub 0) OBJ File: 'player_body.blend'
# www.blender.org
mtllib player_body.mtl
o Sphere.001
v 0.000000 1.000000 -1.000000
v -0.750000 -1.529938 0.433012
v 0.250000 1.866025 -0.433013
v 0.433013 1.500000 -0.750000
v 0.500000 1.000000 -0.866025
v -0.433012 -1.895963 0.250000
v -0.500000 -1.029938 0.866025
v -0.000000 2.000000 -0.000000
v 0.433013 1.866025 -0.250000
v 0.750000 1.500000 -0.433013
v 0.866025 1.000000 -0.500000
v -0.433013 -1.529938 0.750000
v -0.250000 -1.895963 0.433012
v 0.500000 1.866025 -0.000000
v 0.866025 1.500000 -0.000000
v 1.000000 1.000000 -0.000000
v 0.000000 -1.029938 1.000000
v 0.000000 -1.529938 0.866025
v 0.433013 1.866025 0.250000
v 0.750000 1.500000 0.433012
v 0.866025 1.000000 0.500000
v 0.000000 -1.895963 0.500000
v 0.500000 -1.029938 0.866025
v 0.250000 1.866025 0.433012
v 0.433013 1.500000 0.750000
v 0.500000 1.000000 0.866025
v 0.433013 -1.529938 0.750000
v 0.250000 -1.895963 0.433012
v 0.000000 1.866025 0.500000
v 0.000000 1.500000 0.866025
v 0.000000 1.000000 1.000000
v 0.866025 -1.029938 0.500000
v 0.750000 -1.529938 0.433012
v 0.433013 -1.895963 0.250000
v -0.250000 1.866025 0.433012
v -0.433013 1.500000 0.750000
v -0.500000 1.000000 0.866025
v 1.000000 -1.029938 -0.000000
v 0.866025 -1.529938 -0.000000
v -0.433012 1.866025 0.250000
v -0.750000 1.500000 0.433012
v -0.866025 1.000000 0.500000
v 0.500000 -1.895963 -0.000000
v 0.866025 -1.029938 -0.500000
v -0.500000 1.866025 -0.000000
v -0.866025 1.500000 -0.000000
v -1.000000 1.000000 -0.000000
v 0.750000 -1.529938 -0.433013
v 0.433013 -1.895963 -0.250000
v -0.433012 1.866025 -0.250000
v -0.750000 1.500000 -0.433013
v -0.866025 1.000000 -0.500000
v -0.000000 -2.029938 -0.000000
v 0.500000 -1.029938 -0.866025
v -0.250000 1.866025 -0.433013
v -0.433012 1.500000 -0.750000
v -0.500000 1.000000 -0.866025
v 0.433013 -1.529938 -0.750000
v 0.250000 -1.895963 -0.433013
v 0.000000 1.866025 -0.500000
v 0.000000 1.500000 -0.866025
v 0.000000 -1.029938 -1.000000
v -0.866025 -1.029938 0.500000
v -0.500000 -1.895963 -0.000000
v -0.866025 -1.529938 -0.000000
v -1.000000 -1.029938 -0.000000
v -0.433012 -1.895963 -0.250000
v -0.750000 -1.529938 -0.433013
v -0.866025 -1.029938 -0.500000
v -0.250000 -1.895963 -0.433013
v -0.433012 -1.529938 -0.750000
v -0.500000 -1.029938 -0.866025
v 0.000000 -1.895963 -0.500000
v 0.000000 -1.529938 -0.866025
vn -0.0692 -0.9636 -0.2582
vn 0.2506 0.2506 -0.9351
vn 0.0692 0.9636 -0.2582
vn -0.1862 -0.6947 -0.6947
vn -0.6846 -0.2506 -0.6846
vn 0.1862 0.6947 -0.6947
vn -0.6947 -0.6947 -0.1862
vn 0.6846 0.2506 -0.6846
vn 0.1890 0.9636 -0.1890
vn -0.2582 -0.9636 -0.0692
vn -0.1890 -0.9636 -0.1890
vn 0.5086 0.6947 -0.5086
vn 0.9351 0.2506 -0.2506
vn 0.2582 0.9636 -0.0692
vn -0.9351 -0.2506 0.2506
vn -0.9351 -0.2506 -0.2506
vn 0.6947 0.6947 -0.1862
vn -0.2582 -0.9636 0.0692
vn 0.2582 0.9636 0.0692
vn -0.6846 -0.2506 0.6846
vn -0.6947 -0.6947 0.1862
vn 0.6947 0.6947 0.1862
vn -0.1890 -0.9636 0.1890
vn 0.9351 0.2506 0.2506
vn -0.2506 -0.2506 0.9351
vn -0.5086 -0.6947 0.5086
vn 0.5086 0.6947 0.5086
vn -0.0692 -0.9636 0.2582
vn 0.6846 0.2506 0.6846
vn 0.1890 0.9636 0.1890
vn 0.2506 -0.2506 0.9351
vn -0.1862 -0.6947 0.6947
vn 0.1862 0.6947 0.6947
vn 0.0692 -0.9636 0.2582
vn 0.2506 0.2506 0.9351
vn 0.0692 0.9636 0.2582
vn 0.6846 -0.2506 0.6846
vn 0.1862 -0.6947 0.6947
vn -0.1862 0.6947 0.6947
vn 0.1890 -0.9636 0.1890
vn -0.2506 0.2506 0.9351
vn -0.0692 0.9636 0.2582
vn 0.6947 -0.6947 -0.1862
vn -0.5086 0.6947 0.5086
vn 0.2582 -0.9636 -0.0692
vn -0.6846 0.2506 0.6846
vn -0.1890 0.9636 0.1890
vn 0.5086 -0.6947 0.5086
vn -0.6947 0.6947 0.1862
vn 0.5086 -0.6947 -0.5086
vn -0.9351 0.2506 0.2506
vn -0.2582 0.9636 0.0692
vn 0.9351 -0.2506 0.2506
vn 0.9351 -0.2506 -0.2506
vn 0.6846 -0.2506 -0.6846
vn -0.9351 0.2506 -0.2506
vn -0.2582 0.9636 -0.0692
vn 0.6947 -0.6947 0.1862
vn 0.1890 -0.9636 -0.1890
vn -0.6947 0.6947 -0.1862
vn 0.0692 -0.9636 -0.2582
vn -0.6846 0.2506 -0.6846
vn -0.1890 0.9636 -0.1890
vn 0.2582 -0.9636 0.0692
vn 0.1862 -0.6947 -0.6947
vn -0.5086 0.6947 -0.5086
vn -0.2506 -0.2506 -0.9351
vn -0.2506 0.2506 -0.9351
vn -0.0692 0.9636 -0.2582
vn -0.5086 -0.6947 -0.5086
vn 0.2506 -0.2506 -0.9351
vn -0.1862 0.6947 -0.6947
vn -0.7071 0.0000 -0.7071
vn -0.2588 0.0000 -0.9659
vn 0.2588 0.0000 -0.9659
vn 0.7071 0.0000 -0.7071
vn 0.9659 0.0000 -0.2588
vn 0.9659 0.0000 0.2588
vn 0.7071 0.0000 0.7071
vn 0.2588 0.0000 0.9659
vn -0.2588 0.0000 0.9659
vn -0.7071 0.0000 0.7071
vn -0.9659 0.0000 0.2588
vn -0.9659 0.0000 -0.2588
usemtl Material
s off
f 70//1 73//1 53//1
f 1//2 61//2 4//2 5//2
f 60//3 8//3 3//3
f 71//4 74//4 73//4 70//4
f 69//5 72//5 71//5 68//5
f 61//6 60//6 3//6 4//6
f 65//7 68//7 67//7 64//7
f 5//8 4//8 10//8 11//8
f 3//9 8//9 9//9
f 64//10 67//10 53//10
f 67//11 70//11 53//11
f 4//12 3//12 9//12 10//12
f 11//13 10//13 15//13 16//13
f 9//14 8//14 14//14
f 63//15 66//15 65//15 2//15
f 66//16 69//16 68//16 65//16
f 10//17 9//17 14//17 15//17
f 6//18 64//18 53//18
f 14//19 8//19 19//19
f 7//20 63//20 2//20 12//20
f 2//21 65//21 64//21 6//21
f 15//22 14//22 19//22 20//22
f 13//23 6//23 53//23
f 16//24 15//24 20//24 21//24
f 17//25 7//25 12//25 18//25
f 12//26 2//26 6//26 13//26
f 20//27 19//27 24//27 25//27
f 22//28 13//28 53//28
f 21//29 20//29 25//29 26//29
f 19//30 8//30 24//30
f 23//31 17//31 18//31 27//31
f 18//32 12//32 13//32 22//32
f 25//33 24//33 29//33 30//33
f 28//34 22//34 53//34
f 26//35 25//35 30//35 31//35
f 24//36 8//36 29//36
f 32//37 23//37 27//37 33//37
f 27//38 18//38 22//38 28//38
f 30//39 29//39 35//39 36//39
f 34//40 28//40 53//40
f 31//41 30//41 36//41 37//41
f 29//42 8//42 35//42
f 48//43 39//43 43//43 49//43
f 36//44 35//44 40//44 41//44
f 49//45 43//45 53//45
f 37//46 36//46 41//46 42//46
f 35//47 8//47 40//47
f 33//48 27//48 28//48 34//48
f 41//49 40//49 45//49 46//49
f 58//50 48//50 49//50 59//50
f 42//51 41//51 46//51 47//51
f 40//52 8//52 45//52
f 38//53 32//53 33//53 39//53
f 44//54 38//54 39//54 48//54
f 54//55 44//55 48//55 58//55
f 47//56 46//56 51//56 52//56
f 45//57 8//57 50//57
f 39//58 33//58 34//58 43//58
f 59//59 49//59 53//59
f 46//60 45//60 50//60 51//60
f 73//61 59//61 53//61
f 52//62 51//62 56//62 57//62
f 50//63 8//63 55//63
f 43//64 34//64 53//64
f 74//65 58//65 59//65 73//65
f 51//66 50//66 55//66 56//66
f 72//67 62//67 74//67 71//67
f 57//68 56//68 61//68 1//68
f 55//69 8//69 60//69
f 68//70 71//70 70//70 67//70
f 62//71 54//71 58//71 74//71
f 56//72 55//72 60//72 61//72
f 52//73 57//73 72//73 69//73
f 57//74 1//74 62//74 72//74
f 1//75 5//75 54//75 62//75
f 5//76 11//76 44//76 54//76
f 11//77 16//77 38//77 44//77
f 16//78 21//78 32//78 38//78
f 21//79 26//79 23//79 32//79
f 26//80 31//80 17//80 23//80
f 31//81 37//81 7//81 17//81
f 37//82 42//82 63//82 7//82
f 42//83 47//83 66//83 63//83
f 47//84 52//84 69//84 66//84
