# Blender v2.79 (sub 0) OBJ File: 'player_weapon.blend'
# www.blender.org
mtllib player_weapon.mtl
o Cube.001_Cube
v 0.975375 -1.305173 -1.796651
v 0.865345 -1.077256 -1.735426
v 0.722948 -1.305173 -2.250299
v 0.612919 -1.077256 -2.189074
v 1.374787 -1.059021 -2.018898
v 1.264758 -0.831104 -1.957674
v 1.122361 -1.059021 -2.472546
v 1.012331 -0.831104 -2.411322
v 0.922655 -1.182097 -2.361423
v 0.812625 -0.954180 -2.300198
v 1.175081 -1.182097 -1.907774
v 1.065051 -0.954180 -1.846550
v 0.849162 -1.305173 -2.023475
v 0.739132 -1.077256 -1.962250
v 1.248574 -1.059021 -2.245722
v 1.138544 -0.831104 -2.184498
v 0.938838 -0.954180 -2.073374
v 1.048868 -1.182097 -2.134598
v 0.496281 -0.640317 -2.058975
v 0.623433 -0.634379 -2.129727
v 0.567092 -0.640317 -1.931718
v 0.694243 -0.634379 -2.002470
v 0.727542 -0.832473 -1.988400
v 0.564113 -0.896980 -1.897462
v 0.465601 -0.896980 -2.074502
v 0.629030 -0.832473 -2.165440
v -0.325598 -2.127697 -1.072742
v -0.435628 -1.899780 -1.011518
v -0.578025 -2.127697 -1.526390
v -0.688054 -1.899780 -1.465166
v -0.451811 -2.127697 -1.299566
v -0.561841 -1.899780 -1.238342
v 0.992592 -0.714428 -0.854383
v 0.992592 -0.931112 -0.780288
v 0.992592 -1.233049 -0.720086
v 0.992592 -1.343167 -0.937739
v 0.992592 -0.991499 -0.977102
v 0.992592 -1.030574 -1.173916
v 0.992592 -0.824546 -1.224856
v 1.054779 -0.714428 -0.854383
v 1.054779 -0.824546 -1.224856
v 1.054779 -0.824546 -1.372655
v 1.054779 -0.674757 -0.791351
v 1.036345 -0.657593 -0.764080
v 1.054779 -0.488391 -0.829595
v 1.036345 -0.465774 -0.803443
v 1.054779 -0.240184 -0.971970
v 1.036345 -0.199359 -0.956263
v 1.054779 -0.184032 -1.137757
v 1.036345 -0.138971 -1.134553
v 1.036345 -0.138971 -1.340229
v 1.054779 -0.184032 -1.340557
v 1.089031 -0.687631 -1.822389
v 1.127528 -0.398012 -1.822389
v 1.089031 -0.268491 -1.822389
v 1.026741 -0.219018 -1.822389
v 1.026741 -0.799864 -1.922355
v 1.129991 -0.738405 -3.018639
v 1.177815 -0.577504 -3.018639
v 1.177815 -0.378619 -3.018639
v 1.129991 -0.217717 -3.018639
v 1.026741 -0.156258 -1.922355
v 1.050682 -0.083071 -2.640767
v 1.146413 -0.159104 -2.640767
v 1.205579 -0.358161 -2.640767
v 1.205579 -0.604209 -2.640767
v 1.146413 -0.803266 -2.640767
v 1.050682 -0.879299 -2.640767
v 1.101912 -0.738405 -1.922355
v 1.149736 -0.577504 -1.922355
v 1.149736 -0.378618 -1.922355
v 1.101912 -0.217717 -1.922355
v 1.026741 -0.737104 -1.822389
v 1.127528 -0.558110 -1.822389
v 1.048232 -0.841495 -2.300227
v 1.050682 -0.879299 -2.324869
v 1.049965 -0.868226 -2.307445
v 1.136855 -0.771108 -2.300227
v 1.146413 -0.803266 -2.324869
v 1.143614 -0.793847 -2.307445
v 1.190113 -0.591925 -2.300227
v 1.205579 -0.604209 -2.324869
v 1.201049 -0.600611 -2.307445
v 1.190113 -0.370444 -2.300227
v 1.205579 -0.358161 -2.324869
v 1.201049 -0.361758 -2.307445
v 1.136855 -0.191262 -2.300227
v 1.146413 -0.159104 -2.324869
v 1.143614 -0.168523 -2.307445
v 1.048232 -0.120875 -2.300227
v 1.050682 -0.083071 -2.324869
v 1.049964 -0.094143 -2.307445
v 1.101798 -0.643551 -3.018639
v 1.132198 -0.541273 -3.018639
v 1.132198 -0.414850 -3.018639
v 1.101798 -0.312571 -3.018639
v 1.026741 -0.784281 -2.378864
v 1.126244 -0.725798 -2.535472
v 1.098165 -0.725798 -2.378864
v 1.171752 -0.572688 -2.535472
v 1.143673 -0.572688 -2.378864
v 1.171752 -0.383434 -2.535472
v 1.143673 -0.383434 -2.378864
v 1.126244 -0.230324 -2.535472
v 1.098165 -0.230324 -2.378864
v 1.026741 -0.171841 -2.378864
v 1.026741 -0.545066 -1.187857
v 1.026741 -0.737104 -1.435542
v 1.026741 -0.641085 -1.221041
v 1.026741 -0.711376 -1.311700
v 1.089031 -0.687631 -1.435542
v 1.042853 -0.532269 -1.187857
v 1.082844 -0.666817 -1.311700
v 1.065942 -0.609950 -1.221041
v 1.052811 -0.498767 -1.187857
v 1.127528 -0.558110 -1.435542
v 1.090169 -0.528438 -1.221041
v 1.117518 -0.550159 -1.311700
v 1.127528 -0.398012 -1.435542
v 1.052811 -0.457355 -1.187857
v 1.117518 -0.405963 -1.311700
v 1.090169 -0.427684 -1.221041
v 1.089031 -0.268491 -1.435542
v 1.042853 -0.423853 -1.187857
v 1.082844 -0.289305 -1.311700
v 1.065942 -0.346172 -1.221041
v 1.026741 -0.219018 -1.435542
v 1.026741 -0.411056 -1.187857
v 1.026741 -0.244746 -1.311700
v 1.026741 -0.315037 -1.221041
v 1.054779 -0.824546 -2.437518
v 1.036345 -0.138971 -2.517678
v 1.054779 -0.184032 -2.512409
v 0.920440 -0.714428 -0.854383
v 0.956516 -0.657593 -0.764080
v 0.956516 -0.138971 -1.134553
v 0.956516 -0.714428 -0.854383
v 0.920440 -0.931112 -0.780288
v 0.920440 -1.233049 -0.720086
v 0.920440 -1.343167 -0.937739
v 0.920440 -0.991499 -0.977102
v 0.920440 -1.030574 -1.173916
v 0.920440 -0.824546 -1.224856
v 0.956516 -0.824546 -1.372655
v 0.956516 -0.465774 -0.803443
v 0.956516 -0.199359 -0.956263
v 0.956516 -0.138971 -1.340229
v 0.956516 -0.931112 -0.780288
v 0.956516 -1.233049 -0.720086
v 0.956516 -1.343167 -0.937739
v 0.956516 -0.991499 -0.977102
v 0.956516 -1.030574 -1.173916
v 0.956516 -0.824546 -1.224856
v 0.858254 -0.714428 -0.854383
v 0.858254 -0.824546 -1.224856
v 0.858254 -0.824546 -1.372655
v 0.858254 -0.674757 -0.791351
v 0.876688 -0.657593 -0.764080
v 0.858254 -0.488391 -0.829595
v 0.876688 -0.465774 -0.803443
v 0.858254 -0.240184 -0.971970
v 0.876688 -0.199359 -0.956263
v 0.858254 -0.184032 -1.137757
v 0.876688 -0.138971 -1.134553
v 0.876688 -0.138971 -1.340229
v 0.858254 -0.184032 -1.340557
v 0.824002 -0.687631 -1.822389
v 0.785505 -0.398012 -1.822389
v 0.824002 -0.268491 -1.822389
v 0.886292 -0.219018 -1.822389
v 0.886292 -0.799864 -1.922355
v 0.956516 -0.799864 -3.018639
v 0.783042 -0.738405 -3.018639
v 0.735217 -0.577504 -3.018639
v 0.735217 -0.378619 -3.018639
v 0.783042 -0.217717 -3.018639
v 0.886292 -0.156258 -1.922355
v 0.956516 -0.156258 -3.018639
v 0.862351 -0.083071 -2.640767
v 0.766619 -0.159104 -2.640767
v 0.707454 -0.358161 -2.640767
v 0.707454 -0.604209 -2.640767
v 0.766619 -0.803266 -2.640767
v 0.862351 -0.879299 -2.640767
v 0.811121 -0.738405 -1.922355
v 0.763297 -0.577504 -1.922355
v 0.763297 -0.378618 -1.922355
v 0.811121 -0.217717 -1.922355
v 0.886292 -0.737104 -1.822389
v 0.785505 -0.558110 -1.822389
v 0.956516 -0.879299 -2.640767
v 0.956516 -0.083071 -2.640767
v 0.956516 -0.120875 -2.300227
v 0.956516 -0.083071 -2.324869
v 0.956516 -0.094143 -2.307445
v 0.956516 -0.879299 -2.324869
v 0.956516 -0.841495 -2.300227
v 0.956516 -0.868226 -2.307445
v 0.864800 -0.841495 -2.300227
v 0.862351 -0.879299 -2.324869
v 0.863068 -0.868226 -2.307445
v 0.776178 -0.771108 -2.300227
v 0.766619 -0.803266 -2.324869
v 0.769419 -0.793847 -2.307445
v 0.722920 -0.591925 -2.300227
v 0.707454 -0.604209 -2.324869
v 0.711984 -0.600611 -2.307445
v 0.722920 -0.370444 -2.300227
v 0.707454 -0.358161 -2.324869
v 0.711984 -0.361758 -2.307445
v 0.776178 -0.191262 -2.300227
v 0.766619 -0.159104 -2.324869
v 0.769419 -0.168523 -2.307445
v 0.864800 -0.120875 -2.300227
v 0.862351 -0.083071 -2.324869
v 0.863068 -0.094143 -2.307445
v 0.956516 -0.682618 -3.018639
v 0.811235 -0.643551 -3.018639
v 0.780835 -0.541273 -3.018639
v 0.780835 -0.414850 -3.018639
v 0.811235 -0.312571 -3.018639
v 0.956516 -0.273504 -3.018639
v 0.956516 -0.478061 -2.929283
v 0.886292 -0.784281 -2.378864
v 0.956516 -0.784281 -2.535472
v 0.786789 -0.725798 -2.535472
v 0.814868 -0.725798 -2.378864
v 0.741280 -0.572688 -2.535472
v 0.769360 -0.572688 -2.378864
v 0.741280 -0.383434 -2.535472
v 0.769360 -0.383434 -2.378864
v 0.786789 -0.230324 -2.535472
v 0.814868 -0.230324 -2.378864
v 0.956516 -0.171841 -2.535472
v 0.886292 -0.171841 -2.378864
v 0.886292 -0.545066 -1.187857
v 0.886292 -0.737104 -1.435542
v 0.886292 -0.641085 -1.221041
v 0.886292 -0.711376 -1.311700
v 0.824002 -0.687631 -1.435542
v 0.870180 -0.532269 -1.187857
v 0.830189 -0.666817 -1.311700
v 0.847091 -0.609950 -1.221041
v 0.860222 -0.498767 -1.187857
v 0.785505 -0.558110 -1.435542
v 0.822863 -0.528438 -1.221041
v 0.795515 -0.550159 -1.311700
v 0.785505 -0.398012 -1.435542
v 0.860222 -0.457355 -1.187857
v 0.795515 -0.405963 -1.311700
v 0.822863 -0.427684 -1.221041
v 0.824002 -0.268491 -1.435542
v 0.870180 -0.423853 -1.187857
v 0.830189 -0.289305 -1.311700
v 0.847091 -0.346172 -1.221041
v 0.886292 -0.219018 -1.435542
v 0.886292 -0.411056 -1.187857
v 0.886292 -0.244746 -1.311700
v 0.886292 -0.315037 -1.221041
v 0.956516 -0.824546 -2.437518
v 0.956516 -0.138971 -2.517678
v 0.858254 -0.824546 -2.437518
v 0.876688 -0.138971 -2.517678
v 0.858254 -0.184032 -2.512409
vn -0.4862 0.0000 -0.8738
vn 0.7649 0.4836 -0.4256
vn 0.4862 -0.0000 0.8738
vn 0.4143 -0.8804 -0.2305
vn -0.4143 0.8804 0.2305
vn 0.4593 0.1241 0.8796
vn 0.4226 -0.8753 -0.2351
vn -0.0356 0.9992 0.0198
vn -0.8714 0.0748 0.4849
vn -0.5053 0.1241 -0.8540
vn 0.8684 0.1116 -0.4832
vn 0.4144 0.8804 -0.2306
vn -0.5280 0.1160 -0.8413
vn -0.6108 -0.7151 0.3399
vn 0.4365 0.1160 0.8922
vn -0.4226 0.8753 0.2351
vn 1.0000 0.0000 0.0000
vn 0.0000 -0.2400 -0.9708
vn 0.0000 -1.0000 0.0000
vn 0.0000 0.3236 0.9462
vn 0.0000 -0.8463 0.5327
vn 0.0000 0.1955 0.9807
vn 0.0000 -0.8923 0.4514
vn 0.0000 -0.1112 -0.9938
vn 0.0000 -0.9809 0.1947
vn 0.0000 0.9471 0.3208
vn 0.0000 -0.9586 0.2849
vn 0.0000 1.0000 0.0000
vn 0.0000 0.4976 0.8674
vn 0.8533 0.1048 0.5108
vn 0.8787 0.2375 0.4140
vn 0.9214 0.3681 0.1247
vn 0.9255 0.3786 0.0000
vn 0.0000 0.2010 0.9796
vn 0.9586 0.2849 0.0000
vn 0.6219 0.7831 0.0000
vn 0.9586 -0.2849 0.0000
vn 0.6219 -0.7831 0.0000
vn 0.3298 -0.9436 0.0288
vn 0.9584 -0.2849 0.0149
vn 0.9999 -0.0000 0.0125
vn 0.9584 0.2849 0.0149
vn 0.3298 0.9436 0.0288
vn -0.0000 0.0000 -1.0000
vn 0.5656 0.7009 0.4345
vn 0.9258 0.2752 0.2591
vn 0.9762 0.0000 0.2169
vn 0.9258 -0.2752 0.2591
vn 0.5656 -0.7009 0.4345
vn 0.0000 0.0000 1.0000
vn 0.9161 0.2723 0.2944
vn 0.4665 0.1386 0.8736
vn 0.9161 -0.2723 0.2944
vn 0.4665 -0.1386 0.8736
vn 0.5511 -0.6938 0.4636
vn 0.1938 -0.2440 0.9502
vn 0.9678 0.0000 0.2516
vn 0.5508 -0.0000 0.8346
vn 0.5511 0.6938 0.4636
vn 0.1938 0.2440 0.9502
vn 0.0000 -0.2607 0.9654
vn 0.0000 -0.8440 0.5363
vn 0.0000 0.2607 0.9654
vn 0.0000 0.8440 0.5363
vn -0.1070 0.3980 -0.9111
vn -0.1070 -0.3980 -0.9111
vn -0.4143 0.1232 -0.9018
vn -0.4534 0.0000 -0.8913
vn -0.4143 -0.1232 -0.9018
vn 0.6330 0.7737 -0.0265
vn 0.9584 0.2849 -0.0157
vn 0.9999 0.0000 -0.0133
vn 0.9584 -0.2849 -0.0157
vn 0.6330 -0.7737 -0.0265
vn 0.6139 -0.7729 0.1606
vn 0.5316 -0.6694 0.5190
vn 0.2511 -0.3162 0.9149
vn 0.9542 -0.2836 0.0953
vn 0.9026 -0.2683 0.3366
vn 0.5750 -0.1709 0.8001
vn 0.9967 0.0000 0.0806
vn 0.9574 0.0000 0.2888
vn 0.6641 0.0000 0.7476
vn 0.9542 0.2836 0.0953
vn 0.9026 0.2683 0.3366
vn 0.5750 0.1709 0.8001
vn 0.6139 0.7729 0.1606
vn 0.5316 0.6694 0.5190
vn 0.2511 0.3162 0.9149
vn -1.0000 -0.0000 0.0000
vn -0.8533 0.1048 0.5108
vn -0.8787 0.2375 0.4140
vn -0.9214 0.3681 0.1247
vn -0.9255 0.3786 0.0000
vn -0.9586 0.2849 0.0000
vn -0.6219 0.7831 0.0000
vn -0.9586 -0.2849 0.0000
vn -0.6219 -0.7831 0.0000
vn -0.3298 -0.9436 0.0288
vn -0.9584 -0.2849 0.0149
vn -0.9999 -0.0000 0.0125
vn -0.9584 0.2849 0.0149
vn -0.3298 0.9436 0.0288
vn -0.5656 0.7009 0.4345
vn -0.9258 0.2752 0.2591
vn -0.9762 -0.0000 0.2169
vn -0.9258 -0.2752 0.2591
vn -0.5656 -0.7009 0.4345
vn -0.9161 0.2723 0.2944
vn -0.4665 0.1386 0.8736
vn -0.9161 -0.2723 0.2944
vn -0.4664 -0.1386 0.8736
vn -0.5511 -0.6938 0.4636
vn -0.1938 -0.2440 0.9502
vn -0.9678 -0.0000 0.2516
vn -0.5508 -0.0000 0.8346
vn -0.5511 0.6938 0.4636
vn -0.1938 0.2440 0.9502
vn 0.1070 0.3980 -0.9111
vn 0.1070 -0.3980 -0.9111
vn 0.4143 0.1232 -0.9018
vn 0.4534 0.0000 -0.8913
vn 0.4143 -0.1231 -0.9018
vn -0.6330 0.7737 -0.0265
vn -0.9584 0.2849 -0.0157
vn -0.9999 -0.0000 -0.0133
vn -0.9584 -0.2849 -0.0157
vn -0.6330 -0.7737 -0.0265
vn -0.6139 -0.7729 0.1606
vn -0.5316 -0.6694 0.5190
vn -0.2511 -0.3162 0.9149
vn -0.9542 -0.2836 0.0953
vn -0.9026 -0.2683 0.3366
vn -0.5750 -0.1709 0.8001
vn -0.9967 -0.0000 0.0806
vn -0.9574 0.0000 0.2888
vn -0.6641 0.0000 0.7476
vn -0.9542 0.2836 0.0953
vn -0.9026 0.2683 0.3366
vn -0.5750 0.1709 0.8001
vn -0.6139 0.7729 0.1606
vn -0.5316 0.6694 0.5190
vn -0.2511 0.3162 0.9149
usemtl metal
s off
f 4//1 3//1 29//1 30//1
f 9//1 10//1 8//1 7//1
f 15//2 16//2 6//2 5//2
f 11//3 12//3 2//3 1//3
f 18//4 15//4 5//4 11//4
f 17//5 14//5 2//5 12//5
f 16//5 17//5 12//5 6//5
f 13//4 18//4 11//4 1//4
f 5//3 6//3 12//3 11//3
f 3//1 4//1 10//1 9//1
f 3//4 9//4 18//4 13//4
f 8//5 10//5 17//5 16//5
f 24//6 23//6 22//6 21//6
f 9//4 7//4 15//4 18//4
f 7//2 8//2 16//2 15//2
f 3//7 13//7 31//7 29//7
f 20//8 19//8 21//8 22//8
f 25//9 24//9 21//9 19//9
f 26//10 25//10 19//10 20//10
f 23//11 26//11 20//11 22//11
f 17//12 10//12 26//12 23//12
f 10//13 4//13 25//13 26//13
f 4//14 14//14 24//14 25//14
f 14//15 17//15 23//15 24//15
f 1//3 2//3 28//3 27//3
f 2//16 14//16 32//16 28//16
f 14//16 4//16 30//16 32//16
f 13//7 1//7 27//7 31//7
f 33//17 34//17 35//17 36//17 37//17 38//17 39//17
f 39//18 38//18 152//18 153//18
f 144//19 39//19 153//19
f 34//20 33//20 137//20 148//20
f 33//21 135//21 137//21
f 35//22 34//22 148//22 149//22
f 36//23 35//23 149//23 150//23
f 37//24 36//24 150//24 151//24
f 38//25 37//25 151//25 152//25
f 136//26 146//26 48//26 50//26
f 135//21 33//21 40//21 43//21 44//21
f 33//27 39//27 41//27 40//27
f 39//19 144//19 42//19 41//19
f 147//28 136//28 50//28 51//28
f 43//17 40//17 41//17 42//17 52//17 49//17 47//17 45//17
f 146//29 145//29 46//29 48//29
f 147//28 51//28 132//28 261//28
f 46//30 44//30 43//30 45//30
f 48//31 46//31 45//31 47//31
f 50//32 48//32 47//32 49//32
f 51//33 50//33 49//33 52//33
f 145//34 135//34 44//34 46//34
f 116//17 74//17 54//17 119//17
f 119//35 54//35 55//35 123//35
f 123//36 55//36 56//36 127//36
f 111//37 53//37 74//37 116//37
f 108//38 73//38 53//38 111//38
f 225//39 172//39 58//39 98//39
f 98//40 58//40 59//40 100//40
f 100//41 59//41 60//41 102//41
f 102//42 60//42 61//42 104//42
f 104//43 61//43 178//43 234//43
f 59//44 58//44 93//44 94//44
f 82//17 66//17 65//17 85//17
f 79//37 67//37 66//37 82//37
f 88//36 64//36 63//36 91//36
f 85//35 65//35 64//35 88//35
f 62//45 56//45 55//45 72//45
f 72//46 55//46 54//46 71//46
f 71//47 54//47 74//47 70//47
f 70//48 74//48 53//48 69//48
f 69//49 53//49 73//49 57//49
f 76//38 68//38 67//38 79//38
f 65//44 66//44 67//44 68//44 191//44 192//44 63//44 64//44
f 68//19 76//19 196//19 191//19
f 87//50 90//50 193//50 197//50 75//50 78//50 81//50 84//50
f 85//51 88//51 89//51 86//51
f 86//52 89//52 87//52 84//52
f 79//53 82//53 83//53 80//53
f 80//54 83//54 81//54 78//54
f 76//55 79//55 80//55 77//55
f 77//56 80//56 78//56 75//56
f 82//57 85//57 86//57 83//57
f 83//58 86//58 84//58 81//58
f 88//59 91//59 92//59 89//59
f 89//60 92//60 90//60 87//60
f 75//61 197//61 198//61 77//61
f 77//62 198//62 196//62 76//62
f 193//63 90//63 92//63 195//63
f 195//64 92//64 91//64 194//64
f 91//28 63//28 192//28 194//28
f 93//65 217//65 223//65
f 178//44 61//44 96//44 222//44
f 61//44 60//44 95//44 96//44
f 58//44 172//44 217//44 93//44
f 60//44 59//44 94//44 95//44
f 222//66 96//66 223//66
f 94//67 93//67 223//67
f 95//68 94//68 223//68
f 96//69 95//69 223//69
f 72//70 105//70 106//70 62//70
f 71//71 103//71 105//71 72//71
f 70//72 101//72 103//72 71//72
f 69//73 99//73 101//73 70//73
f 57//74 97//74 99//74 69//74
f 112//50 115//50 120//50 124//50 128//50 107//50
f 108//75 111//75 113//75 110//75
f 110//76 113//76 114//76 109//76
f 109//77 114//77 112//77 107//77
f 111//78 116//78 118//78 113//78
f 113//79 118//79 117//79 114//79
f 114//80 117//80 115//80 112//80
f 116//81 119//81 121//81 118//81
f 118//82 121//82 122//82 117//82
f 117//83 122//83 120//83 115//83
f 119//84 123//84 125//84 121//84
f 121//85 125//85 126//85 122//85
f 122//86 126//86 124//86 120//86
f 123//87 127//87 129//87 125//87
f 125//88 129//88 130//88 126//88
f 126//89 130//89 128//89 124//89
f 42//19 144//19 260//19 131//19
f 52//17 42//17 131//17 133//17
f 51//33 52//33 133//33 132//33
f 134//90 143//90 142//90 141//90 140//90 139//90 138//90
f 143//18 153//18 152//18 142//18
f 144//19 153//19 143//19
f 138//20 148//20 137//20 134//20
f 134//21 137//21 135//21
f 139//22 149//22 148//22 138//22
f 140//23 150//23 149//23 139//23
f 141//24 151//24 150//24 140//24
f 142//25 152//25 151//25 141//25
f 136//26 164//26 162//26 146//26
f 135//21 158//21 157//21 154//21 134//21
f 134//27 154//27 155//27 143//27
f 143//19 155//19 156//19 144//19
f 147//28 165//28 164//28 136//28
f 157//90 159//90 161//90 163//90 166//90 156//90 155//90 154//90
f 146//29 162//29 160//29 145//29
f 147//28 261//28 263//28 165//28
f 160//91 159//91 157//91 158//91
f 162//92 161//92 159//92 160//92
f 164//93 163//93 161//93 162//93
f 165//94 166//94 163//94 164//94
f 145//34 160//34 158//34 135//34
f 245//90 248//90 168//90 190//90
f 248//95 252//95 169//95 168//95
f 252//96 256//96 170//96 169//96
f 240//97 245//97 190//97 167//97
f 237//98 240//98 167//98 189//98
f 225//99 226//99 173//99 172//99
f 226//100 228//100 174//100 173//100
f 228//101 230//101 175//101 174//101
f 230//102 232//102 176//102 175//102
f 232//103 234//103 178//103 176//103
f 174//44 219//44 218//44 173//44
f 206//90 209//90 181//90 182//90
f 203//97 206//97 182//97 183//97
f 212//96 215//96 179//96 180//96
f 209//95 212//95 180//95 181//95
f 177//104 188//104 169//104 170//104
f 188//105 187//105 168//105 169//105
f 187//106 186//106 190//106 168//106
f 186//107 185//107 167//107 190//107
f 185//108 171//108 189//108 167//108
f 200//98 203//98 183//98 184//98
f 181//44 180//44 179//44 192//44 191//44 184//44 183//44 182//44
f 184//19 191//19 196//19 200//19
f 211//50 208//50 205//50 202//50 199//50 197//50 193//50 214//50
f 209//109 210//109 213//109 212//109
f 210//110 208//110 211//110 213//110
f 203//111 204//111 207//111 206//111
f 204//112 202//112 205//112 207//112
f 200//113 201//113 204//113 203//113
f 201//114 199//114 202//114 204//114
f 206//115 207//115 210//115 209//115
f 207//116 205//116 208//116 210//116
f 212//117 213//117 216//117 215//117
f 213//118 211//118 214//118 216//118
f 199//61 201//61 198//61 197//61
f 201//62 200//62 196//62 198//62
f 193//63 195//63 216//63 214//63
f 195//64 194//64 215//64 216//64
f 215//28 194//28 192//28 179//28
f 218//119 223//119 217//119
f 178//44 222//44 221//44 176//44
f 176//44 221//44 220//44 175//44
f 173//44 218//44 217//44 172//44
f 175//44 220//44 219//44 174//44
f 222//120 223//120 221//120
f 219//121 223//121 218//121
f 220//122 223//122 219//122
f 221//123 223//123 220//123
f 188//124 177//124 235//124 233//124
f 187//125 188//125 233//125 231//125
f 186//126 187//126 231//126 229//126
f 185//127 186//127 229//127 227//127
f 171//128 185//128 227//128 224//128
f 241//50 236//50 257//50 253//50 249//50 244//50
f 237//129 239//129 242//129 240//129
f 239//130 238//130 243//130 242//130
f 238//131 236//131 241//131 243//131
f 240//132 242//132 247//132 245//132
f 242//133 243//133 246//133 247//133
f 243//134 241//134 244//134 246//134
f 245//135 247//135 250//135 248//135
f 247//136 246//136 251//136 250//136
f 246//137 244//137 249//137 251//137
f 248//138 250//138 254//138 252//138
f 250//139 251//139 255//139 254//139
f 251//140 249//140 253//140 255//140
f 252//141 254//141 258//141 256//141
f 254//142 255//142 259//142 258//142
f 255//143 253//143 257//143 259//143
f 156//19 262//19 260//19 144//19
f 166//90 264//90 262//90 156//90
f 165//94 263//94 264//94 166//94
