# Blender v2.79 (sub 0) OBJ File: 'player_mech.blend'
# www.blender.org
mtllib player_head.mtl
o head_Cube.007
v -0.856463 0.713363 -0.679167
v -0.856463 1.976926 -0.679167
v -0.856463 0.713363 0.759916
v -0.856463 1.976926 0.558032
v -1.264436 1.100199 -0.369303
v -1.517291 1.818101 -0.369303
v -1.264436 1.100199 0.497554
v -1.517291 1.818101 0.375945
v -0.524008 1.524394 1.358154
v -0.595367 1.976926 1.129630
v -0.617436 0.206415 -1.015366
v -0.617436 -0.111426 -1.314504
v -0.617436 0.206415 -1.314504
v -0.659906 0.666576 -1.026752
v -0.660397 0.680973 -1.324850
v -0.633302 -0.111426 -2.022258
v -0.430856 -0.111426 -2.279222
v -0.430856 0.206415 -2.279222
v -0.633302 0.206415 -2.022258
v -0.492127 1.633078 -0.820635
v -0.732247 1.332508 -0.918985
v -0.493593 1.676046 -1.116667
v -0.734363 1.375245 -1.213959
v -0.641191 0.562649 -1.996069
v -0.641191 0.562649 -1.027839
v -0.641191 0.740220 -1.027839
v -0.853334 0.562649 -1.996069
v -0.641191 0.649765 -1.996069
v -0.641191 0.740220 -1.905614
v -0.853334 0.740220 -1.905614
v -0.853334 0.649765 -1.996069
v -0.769785 0.562649 -1.027839
v -0.853334 0.562649 -1.111387
v -0.853334 0.740220 -1.111387
v -0.769785 0.740220 -1.027839
v -0.255334 -0.026976 0.556045
v -0.255334 -0.403745 0.399982
v -0.255334 -0.403745 -0.353555
v -0.255334 -0.026976 -0.509618
v -0.255334 0.349793 -0.353555
v -0.255334 0.505855 0.023213
v -0.255334 0.349793 0.399982
v -1.927756 0.987181 -0.717830
v -1.927756 0.987181 0.250647
v -2.151432 1.183623 -0.717830
v -2.151432 1.183623 0.250647
v -2.170691 1.480690 -0.717830
v -2.170691 1.480690 0.250647
v -1.974250 1.704367 -0.717830
v -1.974250 1.704367 0.250647
v -1.677182 1.723625 -0.717830
v -1.677182 1.723625 0.250647
v -1.453506 1.527184 -0.717830
v -1.453506 1.527184 0.250647
v -1.434248 1.230116 -0.717830
v -1.434248 1.230116 0.250647
v -1.630689 1.006440 -0.717830
v -1.630689 1.006440 0.250647
v -2.067606 -0.102393 -0.587783
v -1.542511 1.019843 -0.632046
v -2.140076 -0.315383 0.120600
v -1.542511 1.019843 0.164863
v -2.481449 0.038416 -0.587783
v -2.213137 1.248023 -0.632046
v -2.553919 -0.174574 0.120600
v -2.213138 1.248023 0.164863
v -2.098868 -0.836519 -0.346409
v -2.904412 -0.562433 -0.346409
v -2.066627 -0.741762 -0.588049
v -2.872172 -0.467677 -0.588050
v -1.988791 -0.513002 -0.688140
v -2.794336 -0.238916 -0.688140
v -1.910955 -0.284241 -0.588049
v -2.716500 -0.010155 -0.588050
v -1.878715 -0.189485 -0.346409
v -2.684260 0.084601 -0.346409
v -1.910955 -0.284241 -0.104769
v -2.716500 -0.010155 -0.104769
v -1.988791 -0.513002 -0.004679
v -2.794336 -0.238916 -0.004679
v -2.066627 -0.741762 -0.104769
v -2.872172 -0.467677 -0.104769
v -1.983685 0.144254 -0.587783
v -1.698902 0.560206 -0.632046
v -1.698902 0.560206 0.164863
v -1.983685 0.144254 0.120600
v -2.369529 0.788386 0.164863
v -2.397528 0.285063 0.120600
v -2.369529 0.788386 -0.632046
v -2.397528 0.285063 -0.587783
v -2.136315 -0.239489 -2.279214
v -1.999450 -0.218037 -0.659110
v -2.356688 -0.887169 -2.263604
v -2.246472 -0.944040 -0.434569
v -2.510612 -0.112135 -2.279214
v -2.605992 -0.011662 -0.659110
v -2.730984 -0.759814 -2.263604
v -2.853014 -0.737665 -0.434569
v -2.133679 -0.231740 -1.666265
v -2.001150 -0.223033 -1.054291
v -2.249062 -0.951653 -1.036730
v -2.354052 -0.879420 -1.650655
v -2.855604 -0.745277 -1.036730
v -2.728348 -0.752066 -1.650655
v -2.607692 -0.016658 -1.054291
v -2.507976 -0.104387 -1.666265
v -0.366667 -0.026976 0.292744
v -0.366667 -0.217564 0.213800
v -0.366667 -0.296507 0.023214
v -0.366667 -0.217564 -0.167374
v -0.366667 -0.026976 -0.246317
v -0.366667 0.163611 -0.167374
v -0.366667 0.242554 0.023213
v -0.366667 0.163611 0.213800
v -0.696661 -0.026976 0.292744
v -0.696661 -0.217564 0.213800
v -0.696661 -0.296507 0.023214
v -0.696661 -0.217564 -0.167373
v -0.696661 -0.026976 -0.246317
v -0.696661 0.163611 -0.167373
v -0.696661 0.242554 0.023214
v -0.696661 0.163611 0.213800
v -0.255334 -0.559808 0.023214
v -0.160035 -0.026976 -0.509618
v -0.160035 0.349793 -0.353555
v -0.160035 0.505855 0.023213
v -0.160035 0.349793 0.399982
v -0.160035 0.230400 -1.130978
v -0.160035 0.664992 -1.114512
v -0.160035 1.122674 0.278708
v -0.160035 0.966612 0.655477
v 0.856463 0.713363 -0.679167
v 0.856463 1.976926 -0.679167
v 0.856463 0.713363 0.759916
v 0.856463 1.976926 0.558032
v 1.264436 1.100199 -0.369303
v 1.517291 1.818101 -0.369303
v 1.264436 1.100199 0.497554
v 1.517291 1.818101 0.375945
v 0.000000 0.713363 0.759916
v 0.000000 1.976926 0.558032
v 0.000000 0.713363 -0.679167
v 0.000000 1.976926 -0.679167
v 0.524008 1.524394 1.358154
v 0.595367 1.976926 1.129630
v 0.000000 1.976926 1.129630
v 0.000000 1.524394 1.358154
v 0.000000 0.249050 -1.843642
v 0.617436 0.206415 -1.015366
v 0.617436 -0.111426 -1.314504
v 0.617436 0.206415 -1.314504
v 0.659906 0.666576 -1.026752
v 0.660397 0.680973 -1.324850
v 0.000000 0.206415 -0.911455
v 0.000000 -0.111426 -2.372779
v 0.000000 0.206415 -2.372779
v 0.000000 0.206415 -1.210593
v 0.000000 -0.111426 -1.210593
v 0.000000 1.704991 -0.758626
v 0.000000 1.747984 -1.054658
v 0.000000 0.710021 -1.220938
v 0.000000 0.695616 -0.922841
v 0.633302 -0.111426 -2.022258
v 0.430856 -0.111426 -2.279222
v 0.430856 0.206415 -2.279222
v 0.633302 0.206415 -2.022258
v 0.492127 1.633078 -0.820635
v 0.732247 1.332508 -0.918985
v 0.493593 1.676046 -1.116667
v 0.734363 1.375245 -1.213959
v 0.641191 0.562649 -1.996069
v 0.641191 0.562649 -1.027839
v 0.641191 0.740220 -1.027839
v 0.853334 0.562649 -1.996069
v 0.641191 0.649765 -1.996069
v 0.641191 0.740220 -1.905614
v 0.853334 0.740220 -1.905614
v 0.853334 0.649765 -1.996069
v 0.769785 0.562649 -1.027839
v 0.853334 0.562649 -1.111387
v 0.853334 0.740220 -1.111387
v 0.769785 0.740220 -1.027839
v 0.255334 -0.026976 0.556045
v 0.255334 -0.403745 0.399982
v 0.255334 -0.403745 -0.353555
v 0.255334 -0.026976 -0.509618
v 0.255334 0.349793 -0.353555
v 0.255334 0.505855 0.023213
v 0.255334 0.349793 0.399982
v 0.000000 -0.026976 0.556045
v 0.000000 -0.403745 0.399982
v 0.000000 -0.559808 0.023213
v 0.000000 -0.403745 -0.353555
v 0.000000 -0.026976 -0.509619
v 0.000000 0.349793 -0.353555
v 0.000000 0.505855 0.023213
v 0.000000 0.349793 0.399982
v 1.927756 0.987181 -0.717830
v 1.927756 0.987181 0.250647
v 2.151432 1.183623 -0.717830
v 2.151432 1.183623 0.250647
v 2.170691 1.480690 -0.717830
v 2.170691 1.480690 0.250647
v 1.974250 1.704367 -0.717830
v 1.974250 1.704367 0.250647
v 1.677182 1.723625 -0.717830
v 1.677182 1.723625 0.250647
v 1.453506 1.527184 -0.717830
v 1.453506 1.527184 0.250647
v 1.434248 1.230116 -0.717830
v 1.434248 1.230116 0.250647
v 1.630689 1.006440 -0.717830
v 1.630689 1.006440 0.250647
v 2.067606 -0.102393 -0.587783
v 1.542511 1.019843 -0.632046
v 2.140076 -0.315383 0.120600
v 1.542511 1.019843 0.164863
v 2.481449 0.038416 -0.587783
v 2.213137 1.248023 -0.632046
v 2.553919 -0.174574 0.120600
v 2.213138 1.248023 0.164863
v 2.098868 -0.836519 -0.346409
v 2.904412 -0.562433 -0.346409
v 2.066627 -0.741762 -0.588049
v 2.872172 -0.467677 -0.588050
v 1.988791 -0.513002 -0.688140
v 2.794336 -0.238916 -0.688140
v 1.910955 -0.284241 -0.588049
v 2.716500 -0.010155 -0.588050
v 1.878715 -0.189485 -0.346409
v 2.684260 0.084601 -0.346409
v 1.910955 -0.284241 -0.104769
v 2.716500 -0.010155 -0.104769
v 1.988791 -0.513002 -0.004679
v 2.794336 -0.238916 -0.004679
v 2.066627 -0.741762 -0.104769
v 2.872172 -0.467677 -0.104769
v 1.983685 0.144254 -0.587783
v 1.698902 0.560206 -0.632046
v 1.698902 0.560206 0.164863
v 1.983685 0.144254 0.120600
v 2.369529 0.788386 0.164863
v 2.397528 0.285063 0.120600
v 2.369529 0.788386 -0.632046
v 2.397528 0.285063 -0.587783
v 2.136315 -0.239489 -2.279214
v 1.999450 -0.218037 -0.659110
v 2.356688 -0.887169 -2.263604
v 2.246472 -0.944040 -0.434569
v 2.510612 -0.112135 -2.279214
v 2.605992 -0.011662 -0.659110
v 2.730984 -0.759814 -2.263604
v 2.853014 -0.737665 -0.434569
v 2.133679 -0.231740 -1.666265
v 2.001150 -0.223033 -1.054291
v 2.249062 -0.951653 -1.036730
v 2.354052 -0.879420 -1.650655
v 2.855604 -0.745277 -1.036730
v 2.728348 -0.752066 -1.650655
v 2.607692 -0.016658 -1.054291
v 2.507976 -0.104387 -1.666265
v 0.366667 -0.026976 0.292744
v 0.366667 -0.217564 0.213800
v 0.366667 -0.296507 0.023214
v 0.366667 -0.217564 -0.167374
v 0.366667 -0.026976 -0.246317
v 0.366667 0.163611 -0.167374
v 0.366667 0.242554 0.023213
v 0.366667 0.163611 0.213800
v 0.696661 -0.026976 0.292744
v 0.696661 -0.217564 0.213800
v 0.696661 -0.296507 0.023214
v 0.696661 -0.217564 -0.167373
v 0.696661 -0.026976 -0.246317
v 0.696661 0.163611 -0.167373
v 0.696661 0.242554 0.023214
v 0.696661 0.163611 0.213800
v 0.255334 -0.559808 0.023214
v 0.160035 -0.026976 -0.509618
v 0.160035 0.349793 -0.353555
v 0.160035 0.505855 0.023213
v 0.160035 0.349793 0.399982
v 0.000000 0.230400 -1.130978
v 0.000000 0.664992 -1.114512
v 0.160035 0.230400 -1.130978
v 0.160035 0.664992 -1.114512
v 0.000000 1.122674 0.278708
v 0.000000 0.966612 0.655477
v 0.160035 1.122674 0.278708
v 0.160035 0.966612 0.655477
vn 0.0000 1.0000 0.0000
vn -0.2337 0.9723 0.0000
vn 0.0000 -1.0000 0.0000
vn -0.9432 -0.3322 0.0000
vn -0.3627 0.1049 0.9260
vn -0.5109 -0.0652 -0.8572
vn -0.6881 -0.7257 0.0000
vn -0.9076 0.0662 0.4146
vn 0.0000 0.0000 -1.0000
vn 0.0000 0.4508 0.8926
vn 0.0000 -0.5936 0.8048
vn 0.9467 -0.3221 0.0000
vn 0.0000 0.0000 1.0000
vn -0.9467 0.3221 -0.0000
vn -0.3070 -0.9023 -0.3027
vn 0.3221 0.9467 -0.0000
vn -0.0292 -0.0860 -0.9959
vn -0.9985 0.0555 -0.0000
vn -0.0292 -0.0860 0.9959
vn 0.8251 -0.5649 0.0000
vn -0.3221 -0.9466 0.0134
vn 0.3221 0.9466 -0.0134
vn -0.0073 -0.0216 -0.9997
vn 0.0905 0.2660 0.9597
vn 0.3210 0.9434 -0.0829
vn -0.9297 0.3116 -0.1962
vn -0.3216 -0.9452 -0.0562
vn 0.9269 -0.3201 -0.1962
vn 0.2337 0.9723 0.0000
vn 0.9432 -0.3322 0.0000
vn 0.3627 0.1049 0.9260
vn 0.5109 -0.0652 -0.8572
vn 0.6881 -0.7257 0.0000
vn 0.9076 0.0662 0.4146
vn -0.9467 -0.3221 0.0000
vn 0.9467 0.3221 -0.0000
vn 0.3070 -0.9023 -0.3027
vn -0.3221 0.9467 -0.0000
vn 0.0292 -0.0860 -0.9959
vn 0.9985 0.0555 -0.0000
vn 0.0292 -0.0860 0.9959
vn -0.8251 -0.5649 0.0000
vn 0.3221 -0.9466 0.0134
vn -0.3221 0.9466 -0.0134
vn 0.0073 -0.0216 -0.9997
vn -0.0905 0.2660 0.9597
vn -0.3210 0.9434 -0.0829
vn 0.9297 0.3116 -0.1962
vn 0.3216 -0.9452 -0.0562
vn -0.9269 -0.3201 -0.1962
vn -0.7400 0.6252 -0.2477
vn 0.0000 1.0000 -0.0071
vn 0.0000 0.6412 -0.7674
vn -0.4158 0.6153 -0.6697
vn -0.6459 -0.7099 0.2808
vn -0.8979 0.3149 -0.3074
vn -0.7301 -0.6383 -0.2439
vn -0.7710 -0.1189 0.6257
vn 0.0000 -0.0827 0.9966
vn 0.0000 0.6011 0.7992
vn -0.4495 0.5456 0.7072
vn -0.7889 0.1123 0.6041
vn 0.0000 -0.3481 0.9374
vn -0.6711 -0.2988 0.6784
vn 0.0000 -0.9024 0.4309
vn 0.0000 0.6769 -0.7360
vn -0.6284 -0.0098 -0.7778
vn 0.0000 0.0826 -0.9966
vn -0.6985 0.3208 -0.6396
vn -0.4080 -0.6383 -0.6527
vn 0.0000 -0.6623 -0.7492
vn -0.3428 0.7741 -0.5322
vn 0.0000 0.8546 -0.5192
vn 0.7400 0.6252 -0.2477
vn 0.4158 0.6153 -0.6697
vn 0.6459 -0.7099 0.2808
vn 0.7301 -0.6383 -0.2439
vn 0.8979 0.3149 -0.3074
vn 0.7710 -0.1189 0.6257
vn 0.7889 0.1123 0.6041
vn 0.4495 0.5456 0.7072
vn 0.6711 -0.2988 0.6784
vn 0.6284 -0.0098 -0.7778
vn 0.6985 0.3208 -0.6396
vn 0.4080 -0.6383 -0.6527
vn 0.3428 0.7741 -0.5322
vn -1.0000 0.0000 0.0000
vn 1.0000 0.0000 0.0000
vn 0.0000 0.7071 -0.7071
vn -0.7071 0.0000 0.7071
vn 0.0000 -0.3827 -0.9239
vn 0.0000 0.3827 -0.9239
vn -0.0000 0.9239 -0.3827
vn -0.9093 -0.1593 -0.3845
vn 0.0000 0.9239 0.3827
vn 0.0000 0.3827 0.9239
vn -0.6599 -0.7514 0.0000
vn -0.9979 -0.0647 0.0000
vn -0.7514 0.6599 0.0000
vn -0.0647 0.9979 0.0000
vn 0.6599 0.7514 0.0000
vn 0.9979 0.0647 -0.0000
vn 0.7514 -0.6599 0.0000
vn 0.0647 -0.9979 0.0000
vn -0.2976 -0.8746 -0.3827
vn -0.1233 -0.3623 -0.9239
vn 0.1233 0.3623 -0.9239
vn 0.2976 0.8746 -0.3827
vn 0.2976 0.8746 0.3827
vn 0.1233 0.3623 0.9239
vn -0.1233 -0.3623 0.9239
vn -0.2976 -0.8746 0.3827
vn -0.9093 -0.3845 0.1593
vn -0.9093 -0.1593 0.3845
vn -0.9093 0.3845 0.1593
vn -0.9093 0.1593 -0.3845
vn -0.9093 -0.3845 -0.1593
vn -0.9093 0.1593 0.3845
vn -0.9093 0.3845 -0.1593
vn -0.0000 -0.9239 -0.3827
vn 0.0000 -0.3827 0.9239
vn 0.0000 -0.9239 0.3827
vn 0.7071 0.0000 0.7071
vn 0.9093 -0.1593 -0.3845
vn 0.6599 -0.7514 0.0000
vn 0.9979 -0.0647 0.0000
vn 0.7514 0.6599 0.0000
vn 0.0647 0.9979 0.0000
vn -0.6599 0.7514 0.0000
vn -0.9979 0.0647 -0.0000
vn -0.7514 -0.6599 0.0000
vn -0.0647 -0.9979 0.0000
vn 0.2976 -0.8746 -0.3827
vn 0.1233 -0.3623 -0.9239
vn -0.1233 0.3623 -0.9239
vn -0.2976 0.8746 -0.3827
vn -0.2976 0.8746 0.3827
vn -0.1233 0.3623 0.9239
vn 0.1233 -0.3623 0.9239
vn 0.2976 -0.8746 0.3827
vn 0.9093 -0.3845 0.1593
vn 0.9093 -0.1593 0.3845
vn 0.9093 0.3845 0.1593
vn 0.9093 0.1593 -0.3845
vn 0.9093 -0.3845 -0.1593
vn 0.9093 0.1593 0.3845
vn 0.9093 0.3845 -0.1593
usemtl red
s off
f 141//1 4//1 10//1 146//1
f 4//2 2//2 6//2 8//2
f 140//3 3//3 1//3 142//3
f 7//4 8//4 6//4 5//4
f 3//5 4//5 8//5 7//5
f 2//6 1//6 5//6 6//6
f 1//7 3//7 7//7 5//7
f 4//8 3//8 9//8 10//8
f 4//1 141//1 143//1 2//1
f 1//9 2//9 143//9 142//9
f 9//10 147//10 146//10 10//10
f 3//11 140//11 147//11 9//11
f 84//12 60//12 62//12 85//12
f 85//13 62//13 66//13 87//13
f 87//14 66//14 64//14 89//14
f 89//9 64//9 60//9 84//9
f 61//15 65//15 63//15 59//15
f 66//16 62//16 60//16 64//16
f 63//9 90//9 83//9 59//9
f 90//17 89//17 84//17 83//17
f 65//14 88//14 90//14 63//14
f 88//18 87//18 89//18 90//18
f 61//13 86//13 88//13 65//13
f 86//19 85//19 87//19 88//19
f 59//12 83//12 86//12 61//12
f 83//20 84//20 85//20 86//20
f 100//12 92//12 94//12 101//12
f 101//21 94//21 98//21 103//21
f 103//14 98//14 96//14 105//14
f 105//22 96//22 92//22 100//22
f 93//23 97//23 95//23 91//23
f 98//24 94//24 92//24 96//24
f 95//22 106//22 99//22 91//22
f 106//25 105//25 100//25 99//25
f 97//14 104//14 106//14 95//14
f 104//26 103//26 105//26 106//26
f 93//21 102//21 104//21 97//21
f 102//27 101//27 103//27 104//27
f 91//12 99//12 102//12 93//12
f 99//28 100//28 101//28 102//28
f 141//1 146//1 145//1 135//1
f 135//29 139//29 137//29 133//29
f 140//3 142//3 132//3 134//3
f 138//30 136//30 137//30 139//30
f 134//31 138//31 139//31 135//31
f 133//32 137//32 136//32 132//32
f 132//33 136//33 138//33 134//33
f 135//34 145//34 144//34 134//34
f 135//1 133//1 143//1 141//1
f 132//9 142//9 143//9 133//9
f 144//10 145//10 146//10 147//10
f 134//11 144//11 147//11 140//11
f 239//35 240//35 217//35 215//35
f 240//13 242//13 221//13 217//13
f 242//36 244//36 219//36 221//36
f 244//9 239//9 215//9 219//9
f 216//37 214//37 218//37 220//37
f 221//38 219//38 215//38 217//38
f 218//9 214//9 238//9 245//9
f 245//39 238//39 239//39 244//39
f 220//36 218//36 245//36 243//36
f 243//40 245//40 244//40 242//40
f 216//13 220//13 243//13 241//13
f 241//41 243//41 242//41 240//41
f 214//35 216//35 241//35 238//35
f 238//42 241//42 240//42 239//42
f 255//35 256//35 249//35 247//35
f 256//43 258//43 253//43 249//43
f 258//36 260//36 251//36 253//36
f 260//44 255//44 247//44 251//44
f 248//45 246//45 250//45 252//45
f 253//46 251//46 247//46 249//46
f 250//44 246//44 254//44 261//44
f 261//47 254//47 255//47 260//47
f 252//36 250//36 261//36 259//36
f 259//48 261//48 260//48 258//48
f 248//43 252//43 259//43 257//43
f 257//49 259//49 258//49 256//49
f 246//35 248//35 257//35 254//35
f 254//50 257//50 256//50 255//50
usemtl brown
s 1
f 19//51 148//52 156//53 18//54
f 12//55 13//56 19//51 16//57
f 14//58 162//59 159//60 20//61 21//62
f 154//63 11//64 12//55 158//65
f 11//64 13//56 12//55
f 157//66 13//56 15//67 161//68
f 13//56 11//64 14//58 15//67
f 11//64 154//63 162//59 14//58
f 15//67 14//58 21//62 23//69
f 13//56 157//66 148//52 19//51
f 158//65 12//55 16//57 17//70 155//71
f 18//54 17//70 16//57 19//51
f 17//70 18//54 156//53 155//71
f 20//61 22//72 23//69 21//62
f 20//61 159//60 160//73 22//72
f 161//68 15//67 23//69 22//72 160//73
f 166//74 165//75 156//53 148//52
f 150//76 163//77 166//74 151//78
f 152//79 168//80 167//81 159//60 162//59
f 154//63 158//65 150//76 149//82
f 149//82 150//76 151//78
f 157//66 161//68 153//83 151//78
f 151//78 153//83 152//79 149//82
f 149//82 152//79 162//59 154//63
f 153//83 170//84 168//80 152//79
f 151//78 166//74 148//52 157//66
f 158//65 155//71 164//85 163//77 150//76
f 165//75 166//74 163//77 164//85
f 164//85 155//71 156//53 165//75
f 167//81 168//80 170//84 169//86
f 167//81 169//86 160//73 159//60
f 161//68 160//73 169//86 170//84 153//83
usemtl gray
s off
f 33//87 34//87 30//87 31//87 27//87
f 24//88 28//88 29//88 26//88 25//88
f 25//13 26//13 35//13 32//13
f 34//1 35//1 26//1 29//1 30//1
f 30//89 29//89 28//89 31//89
f 27//9 31//9 28//9 24//9
f 34//90 33//90 32//90 35//90
f 25//3 32//3 33//3 27//3 24//3
f 38//91 39//91 124//91
f 124//92 39//92 40//92 125//92
f 125//93 40//93 41//93 126//93
f 39//94 38//94 110//94 111//94
f 126//95 41//95 42//95 127//95
f 127//96 42//96 36//96
f 43//97 44//97 46//97 45//97
f 45//98 46//98 48//98 47//98
f 47//99 48//99 50//99 49//99
f 49//100 50//100 52//100 51//100
f 51//101 52//101 54//101 53//101
f 53//102 54//102 56//102 55//102
f 46//13 44//13 58//13 56//13 54//13 52//13 50//13 48//13
f 55//103 56//103 58//103 57//103
f 57//104 58//104 44//104 43//104
f 43//9 45//9 47//9 49//9 51//9 53//9 55//9 57//9
f 67//105 68//105 70//105 69//105
f 69//106 70//106 72//106 71//106
f 71//107 72//107 74//107 73//107
f 73//108 74//108 76//108 75//108
f 75//109 76//109 78//109 77//109
f 77//110 78//110 80//110 79//110
f 70//14 68//14 82//14 80//14 78//14 76//14 74//14 72//14
f 79//111 80//111 82//111 81//111
f 81//112 82//112 68//112 67//112
f 67//12 69//12 71//12 73//12 75//12 77//12 79//12 81//12
f 114//95 113//95 121//95 122//95
f 123//113 37//113 108//113 109//113
f 37//114 36//114 107//114 108//114
f 42//115 41//115 113//115 114//115
f 40//116 39//116 111//116 112//116
f 38//117 123//117 109//117 110//117
f 36//118 42//118 114//118 107//118
f 41//119 40//119 112//119 113//119
f 116//87 115//87 122//87 121//87 120//87 119//87 118//87 117//87
f 112//92 111//92 119//92 120//92
f 110//120 109//120 117//120 118//120
f 108//121 107//121 115//121 116//121
f 107//96 114//96 122//96 115//96
f 113//93 112//93 120//93 121//93
f 111//91 110//91 118//91 119//91
f 109//122 108//122 116//122 117//122
f 197//96 127//96 36//96 190//96
f 127//121 197//121 288//121 131//121
f 195//93 125//93 126//93 196//93
f 125//95 195//95 284//95 129//95
f 193//91 38//91 124//91 194//91
f 192//120 123//120 38//120 193//120
f 191//122 37//122 123//122 192//122
f 190//121 36//121 37//121 191//121
f 194//120 124//120 128//120 283//120
f 124//87 125//87 129//87 128//87
f 126//87 127//87 131//87 130//87
f 196//92 126//92 130//92 287//92
f 180//88 174//88 178//88 177//88 181//88
f 171//87 172//87 173//87 176//87 175//87
f 172//13 179//13 182//13 173//13
f 181//1 177//1 176//1 173//1 182//1
f 177//89 178//89 175//89 176//89
f 174//9 171//9 175//9 178//9
f 181//123 182//123 179//123 180//123
f 172//3 171//3 174//3 180//3 179//3
f 185//91 279//91 186//91
f 279//92 280//92 187//92 186//92
f 280//93 281//93 188//93 187//93
f 186//124 266//124 265//124 185//124
f 281//95 282//95 189//95 188//95
f 282//96 183//96 189//96
f 198//125 200//125 201//125 199//125
f 200//126 202//126 203//126 201//126
f 202//127 204//127 205//127 203//127
f 204//128 206//128 207//128 205//128
f 206//129 208//129 209//129 207//129
f 208//130 210//130 211//130 209//130
f 201//13 203//13 205//13 207//13 209//13 211//13 213//13 199//13
f 210//131 212//131 213//131 211//131
f 212//132 198//132 199//132 213//132
f 198//9 212//9 210//9 208//9 206//9 204//9 202//9 200//9
f 222//133 224//133 225//133 223//133
f 224//134 226//134 227//134 225//134
f 226//135 228//135 229//135 227//135
f 228//136 230//136 231//136 229//136
f 230//137 232//137 233//137 231//137
f 232//138 234//138 235//138 233//138
f 225//36 227//36 229//36 231//36 233//36 235//36 237//36 223//36
f 234//139 236//139 237//139 235//139
f 236//140 222//140 223//140 237//140
f 222//35 236//35 234//35 232//35 230//35 228//35 226//35 224//35
f 269//95 277//95 276//95 268//95
f 278//141 264//141 263//141 184//141
f 184//142 263//142 262//142 183//142
f 189//143 269//143 268//143 188//143
f 187//144 267//144 266//144 186//144
f 185//145 265//145 264//145 278//145
f 183//146 262//146 269//146 189//146
f 188//147 268//147 267//147 187//147
f 271//88 272//88 273//88 274//88 275//88 276//88 277//88 270//88
f 267//92 275//92 274//92 266//92
f 265//120 273//120 272//120 264//120
f 263//121 271//121 270//121 262//121
f 262//96 270//96 277//96 269//96
f 268//93 276//93 275//93 267//93
f 266//91 274//91 273//91 265//91
f 264//122 272//122 271//122 263//122
f 197//96 190//96 183//96 282//96
f 282//121 290//121 288//121 197//121
f 195//93 196//93 281//93 280//93
f 280//95 286//95 284//95 195//95
f 193//91 194//91 279//91 185//91
f 192//120 193//120 185//120 278//120
f 191//122 192//122 278//122 184//122
f 190//121 191//121 184//121 183//121
f 194//120 283//120 285//120 279//120
f 279//88 285//88 286//88 280//88
f 281//88 289//88 290//88 282//88
f 196//92 287//92 289//92 281//92
