# Blender v2.79 (sub 0) OBJ File: 'player_head.blend'
# www.blender.org
mtllib player_head.mtl
o Sphere.001
v 0.250000 0.866025 -0.433013
v 0.433013 0.500000 -0.750000
v -0.000000 1.000000 -0.000000
v 0.433013 0.866025 -0.250000
v 0.750000 0.500000 -0.433013
v 0.500000 0.866025 -0.000000
v 0.866025 0.500000 -0.000000
v 0.433013 0.866025 0.250000
v 0.750000 0.500000 0.433012
v 0.250000 0.866025 0.433012
v 0.433013 0.500000 0.750000
v 0.000000 0.866025 0.500000
v 0.000000 0.500000 0.866025
v -0.250000 0.866025 0.433012
v -0.433013 0.500000 0.750000
v -0.433012 0.866025 0.250000
v -0.750000 0.500000 0.433012
v -0.500000 0.866025 -0.000000
v -0.866025 0.500000 -0.000000
v -0.433012 0.866025 -0.250000
v -0.750000 0.500000 -0.433013
v -0.250000 0.866025 -0.433013
v -0.433012 0.500000 -0.750000
v 0.000000 0.866025 -0.500000
v 0.000000 0.500000 -0.866025
v 0.000000 0.000000 -1.000000
v 0.250000 -0.866025 -0.433013
v 0.433013 -0.500000 -0.750000
v 0.500000 0.000000 -0.866025
v -0.000000 -1.000000 -0.000000
v 0.433013 -0.866025 -0.250000
v 0.750000 -0.500000 -0.433013
v 0.866025 0.000000 -0.500000
v 0.500000 -0.866025 -0.000000
v 0.866025 -0.500000 -0.000000
v 1.000000 0.000000 -0.000000
v 0.433013 -0.866025 0.250000
v 0.750000 -0.500000 0.433012
v 0.866025 0.000000 0.500000
v 0.250000 -0.866025 0.433012
v 0.433013 -0.500000 0.750000
v 0.500000 0.000000 0.866025
v 0.000000 -0.866025 0.500000
v 0.000000 -0.500000 0.866025
v 0.000000 0.000000 1.000000
v -0.250000 -0.866025 0.433012
v -0.433013 -0.500000 0.750000
v -0.500000 0.000000 0.866025
v -0.433012 -0.866025 0.250000
v -0.750000 -0.500000 0.433012
v -0.866025 0.000000 0.500000
v -0.500000 -0.866025 -0.000000
v -0.866025 -0.500000 -0.000000
v -1.000000 0.000000 -0.000000
v -0.433012 -0.866025 -0.250000
v -0.750000 -0.500000 -0.433013
v -0.866025 0.000000 -0.500000
v -0.250000 -0.866025 -0.433013
v -0.433012 -0.500000 -0.750000
v -0.500000 0.000000 -0.866025
v 0.000000 -0.866025 -0.500000
v 0.000000 -0.500000 -0.866025
vn 0.2506 0.2506 -0.9351
vn 0.0692 0.9636 -0.2582
vn 0.1862 0.6947 -0.6947
vn 0.6846 0.2506 -0.6846
vn 0.1890 0.9636 -0.1890
vn 0.5086 0.6947 -0.5086
vn 0.9351 0.2506 -0.2506
vn 0.2582 0.9636 -0.0692
vn 0.6947 0.6947 -0.1862
vn 0.2582 0.9636 0.0692
vn 0.6947 0.6947 0.1862
vn 0.9351 0.2506 0.2506
vn 0.5086 0.6947 0.5086
vn 0.6846 0.2506 0.6846
vn 0.1890 0.9636 0.1890
vn 0.1862 0.6947 0.6947
vn 0.2506 0.2506 0.9351
vn 0.0692 0.9636 0.2582
vn -0.1862 0.6947 0.6947
vn -0.2506 0.2506 0.9351
vn -0.0692 0.9636 0.2582
vn -0.5086 0.6947 0.5086
vn -0.6846 0.2506 0.6846
vn -0.1890 0.9636 0.1890
vn -0.6947 0.6947 0.1862
vn -0.9351 0.2506 0.2506
vn -0.2582 0.9636 0.0692
vn -0.9351 0.2506 -0.2506
vn -0.2582 0.9636 -0.0692
vn -0.6947 0.6947 -0.1862
vn -0.6846 0.2506 -0.6846
vn -0.1890 0.9636 -0.1890
vn -0.5086 0.6947 -0.5086
vn -0.2506 0.2506 -0.9351
vn -0.0692 0.9636 -0.2582
vn -0.1862 0.6947 -0.6947
vn 0.2506 -0.2506 -0.9351
vn 0.0692 -0.9636 -0.2582
vn 0.1862 -0.6947 -0.6947
vn 0.6846 -0.2506 -0.6846
vn 0.1890 -0.9636 -0.1890
vn 0.5086 -0.6947 -0.5086
vn 0.9351 -0.2506 -0.2506
vn 0.2582 -0.9636 -0.0692
vn 0.6947 -0.6947 -0.1862
vn 0.2582 -0.9636 0.0692
vn 0.6947 -0.6947 0.1862
vn 0.9351 -0.2506 0.2506
vn 0.5086 -0.6947 0.5086
vn 0.6846 -0.2506 0.6846
vn 0.1890 -0.9636 0.1890
vn 0.1862 -0.6947 0.6947
vn 0.2506 -0.2506 0.9351
vn 0.0692 -0.9636 0.2582
vn -0.1862 -0.6947 0.6947
vn -0.2506 -0.2506 0.9351
vn -0.0692 -0.9636 0.2582
vn -0.5086 -0.6947 0.5086
vn -0.6846 -0.2506 0.6846
vn -0.1890 -0.9636 0.1890
vn -0.6947 -0.6947 0.1862
vn -0.9351 -0.2506 0.2506
vn -0.2582 -0.9636 0.0692
vn -0.9351 -0.2506 -0.2506
vn -0.2582 -0.9636 -0.0692
vn -0.6947 -0.6947 -0.1862
vn -0.6846 -0.2506 -0.6846
vn -0.1890 -0.9636 -0.1890
vn -0.5086 -0.6947 -0.5086
vn -0.2506 -0.2506 -0.9351
vn -0.0692 -0.9636 -0.2582
vn -0.1862 -0.6947 -0.6947
usemtl Material.001
s off
f 26//1 25//1 2//1 29//1
f 24//2 3//2 1//2
f 25//3 24//3 1//3 2//3
f 29//4 2//4 5//4 33//4
f 1//5 3//5 4//5
f 2//6 1//6 4//6 5//6
f 33//7 5//7 7//7 36//7
f 4//8 3//8 6//8
f 5//9 4//9 6//9 7//9
f 6//10 3//10 8//10
f 7//11 6//11 8//11 9//11
f 36//12 7//12 9//12 39//12
f 9//13 8//13 10//13 11//13
f 39//14 9//14 11//14 42//14
f 8//15 3//15 10//15
f 11//16 10//16 12//16 13//16
f 42//17 11//17 13//17 45//17
f 10//18 3//18 12//18
f 13//19 12//19 14//19 15//19
f 45//20 13//20 15//20 48//20
f 12//21 3//21 14//21
f 15//22 14//22 16//22 17//22
f 48//23 15//23 17//23 51//23
f 14//24 3//24 16//24
f 17//25 16//25 18//25 19//25
f 51//26 17//26 19//26 54//26
f 16//27 3//27 18//27
f 54//28 19//28 21//28 57//28
f 18//29 3//29 20//29
f 19//30 18//30 20//30 21//30
f 57//31 21//31 23//31 60//31
f 20//32 3//32 22//32
f 21//33 20//33 22//33 23//33
f 60//34 23//34 25//34 26//34
f 22//35 3//35 24//35
f 23//36 22//36 24//36 25//36
f 26//37 29//37 28//37 62//37
f 61//38 27//38 30//38
f 62//39 28//39 27//39 61//39
f 29//40 33//40 32//40 28//40
f 27//41 31//41 30//41
f 28//42 32//42 31//42 27//42
f 33//43 36//43 35//43 32//43
f 31//44 34//44 30//44
f 32//45 35//45 34//45 31//45
f 34//46 37//46 30//46
f 35//47 38//47 37//47 34//47
f 36//48 39//48 38//48 35//48
f 38//49 41//49 40//49 37//49
f 39//50 42//50 41//50 38//50
f 37//51 40//51 30//51
f 41//52 44//52 43//52 40//52
f 42//53 45//53 44//53 41//53
f 40//54 43//54 30//54
f 44//55 47//55 46//55 43//55
f 45//56 48//56 47//56 44//56
f 43//57 46//57 30//57
f 47//58 50//58 49//58 46//58
f 48//59 51//59 50//59 47//59
f 46//60 49//60 30//60
f 50//61 53//61 52//61 49//61
f 51//62 54//62 53//62 50//62
f 49//63 52//63 30//63
f 54//64 57//64 56//64 53//64
f 52//65 55//65 30//65
f 53//66 56//66 55//66 52//66
f 57//67 60//67 59//67 56//67
f 55//68 58//68 30//68
f 56//69 59//69 58//69 55//69
f 60//70 26//70 62//70 59//70
f 58//71 61//71 30//71
f 59//72 62//72 61//72 58//72
