# Blender v2.79 (sub 0) OBJ File: 'player_weapon.blend'
# www.blender.org
mtllib player_weapon.mtl
o Cube_Cube.001
v 0.092997 -0.120772 -1.744677
v 0.092997 -0.488888 0.700683
v 0.092997 -0.120772 -0.987301
v 0.092997 0.127863 -1.744677
v 0.040664 0.186049 -1.744677
v 0.077669 0.169007 -1.744677
v 0.040664 0.034472 0.700683
v 0.092997 -0.023715 0.700683
v 0.077669 0.017429 0.700683
v 0.092997 0.127863 -0.987301
v 0.040664 0.186049 -0.987301
v 0.077669 0.169007 -0.987301
v 0.092997 -0.203720 -0.176278
v 0.092997 -0.120772 -0.312824
v 0.092997 -0.145067 -0.238492
v 0.040664 0.141385 -0.176278
v 0.040664 0.186049 -0.312824
v 0.040664 0.172967 -0.238492
v 0.092997 0.127863 -0.312824
v 0.092997 0.083198 -0.176278
v 0.092997 0.114781 -0.238492
v 0.077669 0.169007 -0.312824
v 0.077669 0.124342 -0.176278
v 0.077669 0.155925 -0.238492
v 0.092997 -0.407432 -0.003268
v 0.092997 -0.357501 -0.076819
v 0.092997 -0.390670 -0.043283
v 0.092997 0.000393 -0.076819
v 0.092997 -0.023715 -0.003268
v 0.092997 -0.016654 -0.043283
v 0.040664 0.034472 -0.003268
v 0.040664 0.058579 -0.076819
v 0.040664 0.041533 -0.043283
v 0.077669 0.041537 -0.076819
v 0.077669 0.017429 -0.003268
v 0.077669 0.024490 -0.043283
v -0.092997 -0.120772 -1.744677
v -0.092997 -0.488888 0.700683
v -0.092997 -0.120772 -0.987301
v 0.000000 -0.488888 0.700683
v 0.000000 0.034472 0.700683
v 0.000000 -0.120772 -1.744677
v 0.000000 0.186049 -1.744677
v 0.000000 0.186049 -0.987301
v 0.000000 -0.120772 -0.987301
v -0.092997 0.127863 -1.744677
v -0.040664 0.186049 -1.744677
v -0.077669 0.169007 -1.744677
v -0.040664 0.034472 0.700683
v -0.092997 -0.023715 0.700683
v -0.077669 0.017429 0.700683
v -0.092997 0.127863 -0.987301
v -0.040664 0.186049 -0.987301
v -0.077669 0.169007 -0.987301
v -0.092997 -0.203720 -0.176278
v -0.092997 -0.120772 -0.312824
v -0.092997 -0.145067 -0.238492
v 0.000000 0.186049 -0.312824
v 0.000000 0.141385 -0.176278
v 0.000000 0.172967 -0.238492
v 0.000000 -0.203720 -0.176278
v 0.000000 -0.120772 -0.312824
v 0.000000 -0.145067 -0.238492
v -0.040664 0.141385 -0.176278
v -0.040664 0.186049 -0.312824
v -0.040664 0.172967 -0.238492
v -0.092997 0.127863 -0.312824
v -0.092997 0.083198 -0.176278
v -0.092997 0.114781 -0.238492
v -0.077669 0.169007 -0.312824
v -0.077669 0.124342 -0.176278
v -0.077669 0.155925 -0.238492
v -0.092997 -0.407432 -0.003268
v -0.092997 -0.357501 -0.076819
v -0.092997 -0.390670 -0.043283
v 0.000000 -0.407432 -0.003268
v 0.000000 -0.357501 -0.076819
v 0.000000 -0.390670 -0.043283
v 0.000000 0.058579 -0.076819
v 0.000000 0.034472 -0.003268
v 0.000000 0.041533 -0.043283
v -0.092997 0.000393 -0.076819
v -0.092997 -0.023715 -0.003268
v -0.092997 -0.016654 -0.043283
v -0.040664 0.034472 -0.003268
v -0.040664 0.058579 -0.076819
v -0.040664 0.041533 -0.043283
v -0.077669 0.041537 -0.076819
v -0.077669 0.017429 -0.003268
v -0.077669 0.024490 -0.043283
vt 0.975509 0.216755
vt 0.686802 0.189891
vt 0.687129 0.206286
vt 0.973959 0.233150
vt 0.036887 0.830977
vt 0.000080 0.830977
vt 0.000080 0.952414
vt 0.016174 0.952414
vt 0.030820 0.945669
vt 0.036887 0.929384
vt 0.000080 0.531214
vt 0.036887 0.531214
vt 0.550960 0.213448
vt 0.294389 0.181351
vt 0.292425 0.196971
vt 0.550300 0.229042
vt 0.037047 0.756767
vt 0.037047 0.829253
vt 0.073854 0.829253
vt 0.073854 0.756767
vt 0.977079 0.200326
vt 0.978792 0.182673
vt 0.690107 0.154422
vt 0.687622 0.172780
vt 0.686800 0.014228
vt 0.635892 0.066653
vt 0.609070 0.177454
vt 0.658107 0.158300
vt 0.037047 0.440450
vt 0.073854 0.440450
vt 0.073854 0.256339
vt 0.067787 0.240054
vt 0.053141 0.233309
vt 0.037047 0.233309
vt 0.999920 0.000080
vt 0.719900 0.000080
vt 0.000080 0.264260
vt 0.036887 0.264260
vt 0.310891 0.052041
vt 0.018186 0.015458
vt 0.006199 0.111606
vt 0.298525 0.148733
vt 0.653908 0.193676
vt 0.604647 0.208669
vt 0.608002 0.224274
vt 0.657408 0.209915
vt 0.296380 0.165604
vt 0.004056 0.128554
vt 0.002066 0.144281
vt 0.552331 0.198149
vt 0.554884 0.181674
vt 0.653595 0.176244
vt 0.604543 0.193345
vt 0.000080 0.159977
vt 0.036887 0.233309
vt 0.000080 0.233309
vt 0.073855 0.863095
vt 0.037047 0.863095
vt 0.579012 0.213025
vt 0.579757 0.198147
vt 0.583247 0.182515
vt 0.580309 0.228646
vt 0.605913 0.084067
vt 0.574756 0.087220
vt 0.073854 0.738097
vt 0.037047 0.738097
vt 0.073854 0.720926
vt 0.037047 0.720926
vt 0.669816 0.173040
vt 0.669650 0.190842
vt 0.673141 0.154393
vt 0.671713 0.207348
vt 0.702724 0.003657
vt 0.975509 0.216755
vt 0.686802 0.189891
vt 0.036887 0.830977
vt 0.036887 0.929384
vt 0.030820 0.945669
vt 0.016174 0.952414
vt 0.036887 0.531214
vt 0.550960 0.213448
vt 0.294389 0.181351
vt 0.073854 0.756767
vt 0.073854 0.829253
vt 0.977079 0.200326
vt 0.687622 0.172780
vt 0.690107 0.154422
vt 0.978792 0.182673
vt 0.686800 0.014228
vt 0.658107 0.158300
vt 0.609070 0.177454
vt 0.635892 0.066653
vt 0.053141 0.233309
vt 0.067787 0.240054
vt 0.073854 0.256339
vt 0.073854 0.440450
vt 0.999920 0.000080
vt 0.719900 0.000080
vt 0.036887 0.264260
vt 0.310891 0.052041
vt 0.298525 0.148733
vt 0.006199 0.111606
vt 0.018186 0.015458
vt 0.653908 0.193676
vt 0.604647 0.208669
vt 0.002066 0.144281
vt 0.004056 0.128554
vt 0.296380 0.165604
vt 0.552331 0.198149
vt 0.554884 0.181674
vt 0.604543 0.193345
vt 0.653595 0.176244
vt 0.036887 0.233309
vt 0.073855 0.863095
vt 0.579757 0.198147
vt 0.579012 0.213025
vt 0.583247 0.182515
vt 0.605913 0.084067
vt 0.574756 0.087220
vt 0.073854 0.738097
vt 0.073854 0.720926
vt 0.669650 0.190842
vt 0.669816 0.173040
vt 0.673141 0.154393
vt 0.702724 0.003657
vn 0.0000 1.0000 -0.0000
vn -0.0000 0.0000 -1.0000
vn 0.0000 -1.0000 0.0000
vn 0.0000 -0.5431 -0.8397
vn 0.9371 0.3491 -0.0000
vn 1.0000 0.0000 -0.0000
vn 0.0000 0.0000 1.0000
vn 0.0000 0.7685 0.6398
vn 0.4183 0.9083 0.0000
vn 0.3336 0.7245 0.6032
vn 0.8998 0.3352 0.2791
vn 0.0000 -0.9505 -0.3107
vn 0.0000 -0.7276 -0.6860
vn 0.4131 0.8969 0.1579
vn 0.3799 0.8248 0.4187
vn 0.9353 0.3484 0.0613
vn 0.9227 0.3438 0.1745
vn 0.0000 0.9849 0.1733
vn 0.0000 0.8917 0.4527
vn 0.0000 -0.7110 -0.7032
vn 0.0000 -0.9223 -0.3864
vn 0.4130 0.8969 0.1583
vn 0.3798 0.8247 0.4192
vn 0.9353 0.3484 0.0615
vn 0.9227 0.3437 0.1747
vn 0.0000 0.8914 0.4531
vn 0.0000 0.9848 0.1738
vn 0.0000 -0.9934 -0.1149
vn -0.9371 0.3491 -0.0000
vn -1.0000 0.0000 -0.0000
vn -0.4183 0.9083 0.0000
vn -0.3336 0.7245 0.6032
vn -0.8998 0.3352 0.2791
vn -0.4131 0.8969 0.1579
vn -0.3799 0.8248 0.4187
vn -0.9353 0.3484 0.0613
vn -0.9227 0.3438 0.1745
vn -0.4130 0.8969 0.1583
vn -0.3798 0.8247 0.4192
vn -0.9353 0.3484 0.0615
vn -0.9227 0.3437 0.1747
usemtl Material
s off
f 7/1/1 31/2/1 80/3/1 41/4/1
f 1/5/2 42/6/2 43/7/2 5/8/2 6/9/2 4/10/2
f 45/11/3 42/6/3 1/5/3 3/12/3
f 17/13/1 11/14/1 44/15/1 58/16/1
f 77/17/4 61/18/4 13/19/4 26/20/4
f 9/21/5 8/22/5 29/23/5 35/24/5
f 26/25/6 13/26/6 20/27/6 28/28/6
f 40/29/7 2/30/7 8/31/7 9/32/7 7/33/7 41/34/7
f 2/35/6 25/36/6 29/23/6 8/22/6
f 62/37/3 45/11/3 3/12/3 14/38/3
f 3/39/6 1/40/6 4/41/6 10/42/6
f 32/43/8 16/44/8 59/45/8 79/46/8
f 11/14/9 12/47/9 6/48/9 5/49/9
f 12/47/5 10/42/5 4/41/5 6/48/5
f 17/13/9 22/50/9 12/47/9 11/14/9
f 22/50/5 19/51/5 10/42/5 12/47/5
f 7/1/9 9/21/9 35/24/9 31/2/9
f 32/43/10 34/52/10 23/53/10 16/44/10
f 34/52/11 28/28/11 20/27/11 23/53/11
f 11/14/1 5/49/1 43/54/1 44/15/1
f 14/38/12 15/55/12 63/56/12 62/37/12
f 15/57/13 13/19/13 61/18/13 63/58/13
f 17/13/14 18/59/14 24/60/14 22/50/14
f 18/59/15 16/44/15 23/53/15 24/60/15
f 22/50/16 24/60/16 21/61/16 19/51/16
f 24/60/17 23/53/17 20/27/17 21/61/17
f 58/16/18 60/62/18 18/59/18 17/13/18
f 60/62/19 59/45/19 16/44/19 18/59/19
f 13/26/6 15/63/6 21/61/6 20/27/6
f 15/63/6 14/64/6 19/51/6 21/61/6
f 14/64/6 3/39/6 10/42/6 19/51/6
f 26/20/20 27/65/20 78/66/20 77/17/20
f 27/65/21 25/67/21 76/68/21 78/66/21
f 35/24/22 36/69/22 33/70/22 31/2/22
f 36/69/23 34/52/23 32/43/23 33/70/23
f 29/23/24 30/71/24 36/69/24 35/24/24
f 30/71/25 28/28/25 34/52/25 36/69/25
f 79/46/26 81/72/26 33/70/26 32/43/26
f 81/72/27 80/3/27 31/2/27 33/70/27
f 28/28/6 30/71/6 27/73/6 26/25/6
f 30/71/6 29/23/6 25/36/6 27/73/6
f 40/29/28 76/68/28 25/67/28 2/30/28
f 49/74/1 41/4/1 80/3/1 85/75/1
f 37/76/2 46/77/2 48/78/2 47/79/2 43/7/2 42/6/2
f 45/11/3 39/80/3 37/76/3 42/6/3
f 65/81/1 58/16/1 44/15/1 53/82/1
f 77/17/4 74/83/4 55/84/4 61/18/4
f 51/85/29 89/86/29 83/87/29 50/88/29
f 74/89/30 82/90/30 68/91/30 55/92/30
f 40/29/7 41/34/7 49/93/7 51/94/7 50/95/7 38/96/7
f 38/97/30 50/88/30 83/87/30 73/98/30
f 62/37/3 56/99/3 39/80/3 45/11/3
f 39/100/30 52/101/30 46/102/30 37/103/30
f 86/104/8 79/46/8 59/45/8 64/105/8
f 53/82/31 47/106/31 48/107/31 54/108/31
f 54/108/29 48/107/29 46/102/29 52/101/29
f 65/81/31 53/82/31 54/108/31 70/109/31
f 70/109/29 54/108/29 52/101/29 67/110/29
f 49/74/31 85/75/31 89/86/31 51/85/31
f 86/104/32 64/105/32 71/111/32 88/112/32
f 88/112/33 71/111/33 68/91/33 82/90/33
f 53/82/1 44/15/1 43/54/1 47/106/1
f 56/99/12 62/37/12 63/56/12 57/113/12
f 57/114/13 63/58/13 61/18/13 55/84/13
f 65/81/34 70/109/34 72/115/34 66/116/34
f 66/116/35 72/115/35 71/111/35 64/105/35
f 70/109/36 67/110/36 69/117/36 72/115/36
f 72/115/37 69/117/37 68/91/37 71/111/37
f 58/16/18 65/81/18 66/116/18 60/62/18
f 60/62/19 66/116/19 64/105/19 59/45/19
f 55/92/30 68/91/30 69/117/30 57/118/30
f 57/118/30 69/117/30 67/110/30 56/119/30
f 56/119/30 67/110/30 52/101/30 39/100/30
f 74/83/20 77/17/20 78/66/20 75/120/20
f 75/120/21 78/66/21 76/68/21 73/121/21
f 89/86/38 85/75/38 87/122/38 90/123/38
f 90/123/39 87/122/39 86/104/39 88/112/39
f 83/87/40 89/86/40 90/123/40 84/124/40
f 84/124/41 90/123/41 88/112/41 82/90/41
f 79/46/26 86/104/26 87/122/26 81/72/26
f 81/72/27 87/122/27 85/75/27 80/3/27
f 82/90/30 74/89/30 75/125/30 84/124/30
f 84/124/30 75/125/30 73/98/30 83/87/30
f 40/29/28 38/96/28 73/121/28 76/68/28
