# Blender v2.79 (sub 0) OBJ File: 'player_body.blend'
# www.blender.org
mtllib player_body.mtl
o Cube
v -0.366101 -0.696258 -0.407456
v -0.366101 0.118655 -0.407456
v -0.366101 -0.696258 0.407456
v -0.366101 0.118655 0.407456
v -0.388157 -1.280509 -0.071339
v -0.399690 -0.423261 -0.183459
v -0.388157 -1.283757 0.108619
v -0.399690 -0.429128 0.141506
v -0.537660 -1.280509 -0.071339
v -0.669659 -0.423261 -0.183459
v -0.537660 -1.283757 0.108619
v -0.669659 -0.429128 0.141506
v -0.339833 -0.981429 0.263367
v -0.339833 -1.244797 0.532757
v -0.339833 -0.872339 0.000000
v -0.339833 -1.621513 0.376716
v -0.339833 -0.981429 -0.263367
v -0.339833 -1.777554 0.000000
v -0.339833 -1.244797 -0.372458
v -0.339833 -1.621513 -0.376716
v -0.339833 -1.508164 -0.263367
v -0.339833 -1.244797 -0.532757
v -0.339833 -1.617254 0.000000
v -0.339833 -0.868081 -0.376716
v -0.339833 -1.508164 0.263368
v -0.339833 -0.712040 0.000000
v -0.339833 -1.244797 0.372458
v -0.339833 -0.868081 0.376716
v -0.804750 -0.411824 -0.567020
v -0.996769 0.722216 -0.926768
v -0.804750 -0.411824 0.567020
v -0.996769 0.722216 0.926768
v -0.319375 2.000000 1.000000
v -0.319375 1.292893 0.707107
v -0.319376 1.000000 0.000000
v -0.319376 1.292893 -0.707107
v -0.319376 2.000000 -1.000000
v -0.319375 2.707107 -0.707106
v -0.319375 3.000000 0.000000
v -0.319375 2.707107 0.707107
v -0.486733 0.496996 -0.334070
v -0.486733 2.334070 -0.334070
v -0.486733 0.496996 0.334070
v -0.486733 2.334070 0.334070
v -0.758171 0.496996 -0.334070
v -0.758171 2.334070 -0.334070
v -0.758171 0.496996 0.334070
v -0.758171 2.334070 0.334070
v 0.366101 -0.696258 -0.407456
v 0.366101 0.118655 -0.407456
v 0.366101 -0.696258 0.407456
v 0.366101 0.118655 0.407456
v 0.000000 -0.696258 0.407456
v 0.000000 0.118655 0.407456
v 0.000000 -0.696258 -0.407456
v 0.000000 0.118655 -0.407456
v 0.388157 -1.280509 -0.071339
v 0.399690 -0.423261 -0.183459
v 0.388157 -1.283757 0.108619
v 0.399690 -0.429128 0.141506
v 0.537660 -1.280509 -0.071339
v 0.669659 -0.423261 -0.183459
v 0.537660 -1.283757 0.108619
v 0.669659 -0.429128 0.141506
v 0.339833 -0.981429 0.263367
v 0.339833 -1.244797 0.532757
v 0.339833 -0.872339 0.000000
v 0.339833 -1.621513 0.376716
v 0.339833 -0.981429 -0.263367
v 0.339833 -1.777554 0.000000
v 0.339833 -1.244797 -0.372458
v 0.339833 -1.621513 -0.376716
v 0.339833 -1.508164 -0.263367
v 0.339833 -1.244797 -0.532757
v 0.339833 -1.617254 0.000000
v 0.339833 -0.868081 -0.376716
v 0.339833 -1.508164 0.263368
v 0.339833 -0.712040 0.000000
v 0.339833 -1.244797 0.372458
v 0.339833 -0.868081 0.376716
v 0.000000 -1.244797 0.598065
v 0.000000 -1.667692 0.422896
v 0.000000 -1.842861 -0.000000
v 0.000000 -1.667692 -0.422896
v 0.000000 -1.244797 -0.598065
v 0.000000 -0.821901 -0.422895
v 0.000000 -0.646732 0.000000
v 0.000000 -0.821901 0.422895
v 0.804750 -0.411824 -0.567020
v 0.996769 0.722216 -0.926768
v 0.804750 -0.411824 0.567020
v 0.996769 0.722216 0.926768
v 0.000000 -0.411824 0.567020
v 0.000000 0.722216 0.926768
v 0.000000 -0.411824 -0.567020
v 0.000000 0.722216 -0.926768
v 0.319375 2.000000 1.000000
v 0.319375 1.292893 0.707107
v 0.319376 1.000000 0.000000
v 0.319376 1.292893 -0.707107
v 0.319376 2.000000 -1.000000
v 0.319375 2.707107 -0.707106
v 0.319375 3.000000 0.000000
v 0.319375 2.707107 0.707107
v 0.000000 2.000000 1.000000
v 0.000000 1.292893 0.707107
v 0.000000 1.000000 0.000000
v 0.000000 1.292893 -0.707107
v 0.000000 2.000000 -1.000000
v 0.000000 2.707107 -0.707107
v 0.000000 3.000000 0.000000
v 0.000000 2.707107 0.707107
v 0.486733 0.496996 -0.334070
v 0.486733 2.334070 -0.334070
v 0.486733 0.496996 0.334070
v 0.486733 2.334070 0.334070
v 0.758171 0.496996 -0.334070
v 0.758171 2.334070 -0.334070
v 0.758171 0.496996 0.334070
v 0.758171 2.334070 0.334070
vn 0.0000 0.0000 1.0000
vn -1.0000 0.0000 0.0000
vn 0.0000 -1.0000 0.0000
vn 0.0000 1.0000 0.0000
vn 0.0000 0.0000 -1.0000
vn 0.9999 0.0135 0.0002
vn 0.0000 -0.0385 0.9993
vn -0.9883 -0.1525 -0.0028
vn 0.0000 -0.1297 -0.9916
vn 0.0000 -0.9998 -0.0180
vn 0.0000 0.9998 0.0180
vn 0.0000 -0.3024 0.9532
vn -0.9860 -0.1669 0.0000
vn 0.0000 -0.3024 -0.9532
vn -0.0000 -0.3827 0.9239
vn -0.0000 -0.9239 0.3827
vn -0.0000 -0.9239 -0.3827
vn -0.0000 -0.3827 -0.9239
vn -0.0000 0.3827 -0.9239
vn 0.0000 0.9239 -0.3827
vn 0.0000 0.9239 0.3827
vn 0.0000 0.3827 0.9239
vn 1.0000 0.0000 0.0000
vn -0.9999 0.0135 0.0002
vn 0.9883 -0.1525 -0.0028
vn 0.9860 -0.1669 0.0000
vn -0.1748 -0.3768 0.9097
vn -0.1748 -0.9097 0.3768
vn -0.1748 -0.9097 -0.3768
vn -0.1748 -0.3768 -0.9097
vn -0.1748 0.3768 -0.9097
vn -0.1748 0.9097 -0.3768
vn -0.1748 0.9097 0.3768
vn -0.1748 0.3768 0.9097
vn 0.1748 -0.3768 0.9097
vn 0.1748 -0.9097 0.3768
vn 0.1748 -0.9097 -0.3768
vn 0.1748 -0.3768 -0.9097
vn 0.1748 0.3768 -0.9097
vn 0.1748 0.9097 -0.3768
vn 0.1748 0.9097 0.3768
vn 0.1748 0.3768 0.9097
usemtl Material
s off
f 53//1 54//1 4//1 3//1
f 3//2 4//2 2//2 1//2
f 53//3 3//3 1//3 55//3
f 4//4 54//4 56//4 2//4
f 1//5 2//5 56//5 55//5
f 5//6 6//6 8//6 7//6
f 7//7 8//7 12//7 11//7
f 11//8 12//8 10//8 9//8
f 9//9 10//9 6//9 5//9
f 7//10 11//10 9//10 5//10
f 12//11 8//11 6//11 10//11
f 93//12 94//12 32//12 31//12
f 31//13 32//13 30//13 29//13
f 93//3 31//3 29//3 95//3
f 32//4 94//4 96//4 30//4
f 29//14 30//14 96//14 95//14
f 105//15 33//15 34//15 106//15
f 106//16 34//16 35//16 107//16
f 107//17 35//17 36//17 108//17
f 108//18 36//18 37//18 109//18
f 109//19 37//19 38//19 110//19
f 110//20 38//20 39//20 111//20
f 34//2 33//2 40//2 39//2 38//2 37//2 36//2 35//2
f 111//21 39//21 40//21 112//21
f 112//22 40//22 33//22 105//22
f 41//23 42//23 44//23 43//23
f 43//1 44//1 48//1 47//1
f 47//2 48//2 46//2 45//2
f 45//5 46//5 42//5 41//5
f 43//3 47//3 45//3 41//3
f 48//4 44//4 42//4 46//4
f 53//1 51//1 52//1 54//1
f 51//23 49//23 50//23 52//23
f 53//3 55//3 49//3 51//3
f 52//4 50//4 56//4 54//4
f 49//5 55//5 56//5 50//5
f 57//24 59//24 60//24 58//24
f 59//7 63//7 64//7 60//7
f 63//25 61//25 62//25 64//25
f 61//9 57//9 58//9 62//9
f 59//10 57//10 61//10 63//10
f 64//11 62//11 58//11 60//11
f 93//12 91//12 92//12 94//12
f 91//26 89//26 90//26 92//26
f 93//3 95//3 89//3 91//3
f 92//4 90//4 96//4 94//4
f 89//14 95//14 96//14 90//14
f 105//15 106//15 98//15 97//15
f 106//16 107//16 99//16 98//16
f 107//17 108//17 100//17 99//17
f 108//18 109//18 101//18 100//18
f 109//19 110//19 102//19 101//19
f 110//20 111//20 103//20 102//20
f 98//23 99//23 100//23 101//23 102//23 103//23 104//23 97//23
f 111//21 112//21 104//21 103//21
f 112//22 105//22 97//22 104//22
f 113//2 115//2 116//2 114//2
f 115//1 119//1 120//1 116//1
f 119//23 117//23 118//23 120//23
f 117//5 113//5 114//5 118//5
f 115//3 113//3 117//3 119//3
f 120//4 118//4 114//4 116//4
usemtl tire
f 81//27 14//27 16//27 82//27
f 82//28 16//28 18//28 83//28
f 83//29 18//29 20//29 84//29
f 84//30 20//30 22//30 85//30
f 85//31 22//31 24//31 86//31
f 86//32 24//32 26//32 87//32
f 24//2 22//2 19//2 17//2
f 87//33 26//33 28//33 88//33
f 88//34 28//34 14//34 81//34
f 28//2 26//2 15//2 13//2
f 14//2 28//2 13//2 27//2
f 16//2 14//2 27//2 25//2
f 20//2 18//2 23//2 21//2
f 26//2 24//2 17//2 15//2
f 22//2 20//2 21//2 19//2
f 18//2 16//2 25//2 23//2
f 81//35 82//35 68//35 66//35
f 82//36 83//36 70//36 68//36
f 83//37 84//37 72//37 70//37
f 84//38 85//38 74//38 72//38
f 85//39 86//39 76//39 74//39
f 86//40 87//40 78//40 76//40
f 76//23 69//23 71//23 74//23
f 87//41 88//41 80//41 78//41
f 88//42 81//42 66//42 80//42
f 80//23 65//23 67//23 78//23
f 66//23 79//23 65//23 80//23
f 68//23 77//23 79//23 66//23
f 72//23 73//23 75//23 70//23
f 78//23 67//23 69//23 76//23
f 74//23 71//23 73//23 72//23
f 70//23 75//23 77//23 68//23
usemtl tin
f 25//2 27//2 13//2 15//2 17//2 19//2 21//2 23//2
f 77//23 75//23 73//23 71//23 69//23 67//23 65//23 79//23
o Sphere.001
v -0.000000 1.000000 1.000000
v 0.750000 -1.529938 -0.433012
v -0.250000 1.866025 0.433013
v -0.433013 1.500000 0.750000
v -0.500000 1.000000 0.866025
v 0.433012 -1.895963 -0.250000
v 0.500000 -1.029938 -0.866025
v 0.000000 2.000000 0.000000
v -0.433013 1.866025 0.250000
v -0.750000 1.500000 0.433013
v -0.866025 1.000000 0.500000
v 0.433013 -1.529938 -0.750000
v 0.250000 -1.895963 -0.433012
v -0.500000 1.866025 0.000000
v -0.866025 1.500000 0.000000
v -1.000000 1.000000 0.000000
v -0.000000 -1.029938 -1.000000
v -0.000000 -1.529938 -0.866025
v -0.433013 1.866025 -0.250000
v -0.750000 1.500000 -0.433012
v -0.866025 1.000000 -0.500000
v -0.000000 -1.895963 -0.500000
v -0.500000 -1.029938 -0.866025
v -0.250000 1.866025 -0.433012
v -0.433013 1.500000 -0.750000
v -0.500000 1.000000 -0.866025
v -0.433013 -1.529938 -0.750000
v -0.250000 -1.895963 -0.433012
v -0.000000 1.866025 -0.500000
v -0.000000 1.500000 -0.866025
v -0.000000 1.000000 -1.000000
v -0.866025 -1.029938 -0.500000
v -0.750000 -1.529938 -0.433012
v -0.433013 -1.895963 -0.250000
v 0.250000 1.866025 -0.433012
v 0.433013 1.500000 -0.750000
v 0.500000 1.000000 -0.866025
v -1.000000 -1.029938 0.000000
v -0.866025 -1.529938 0.000000
v 0.433012 1.866025 -0.250000
v 0.750000 1.500000 -0.433012
v 0.866025 1.000000 -0.500000
v -0.500000 -1.895963 0.000000
v -0.866025 -1.029938 0.500000
v 0.500000 1.866025 0.000000
v 0.866025 1.500000 0.000000
v 1.000000 1.000000 0.000000
v -0.750000 -1.529938 0.433013
v -0.433013 -1.895963 0.250000
v 0.433012 1.866025 0.250000
v 0.750000 1.500000 0.433013
v 0.866025 1.000000 0.500000
v 0.000000 -2.029938 0.000000
v -0.500000 -1.029938 0.866025
v 0.250000 1.866025 0.433013
v 0.433012 1.500000 0.750000
v 0.500000 1.000000 0.866025
v -0.433013 -1.529938 0.750000
v -0.250000 -1.895963 0.433013
v -0.000000 1.866025 0.500000
v -0.000000 1.500000 0.866025
v -0.000000 -1.029938 1.000000
v 0.866025 -1.029938 -0.500000
v 0.500000 -1.895963 0.000000
v 0.866025 -1.529938 0.000000
v 1.000000 -1.029938 0.000000
v 0.433012 -1.895963 0.250000
v 0.750000 -1.529938 0.433013
v 0.866025 -1.029938 0.500000
v 0.250000 -1.895963 0.433013
v 0.433012 -1.529938 0.750000
v 0.500000 -1.029938 0.866025
v -0.000000 -1.895963 0.500000
v -0.000000 -1.529938 0.866025
vn 0.0692 -0.9636 0.2582
vn -0.2506 0.2506 0.9351
vn -0.0692 0.9636 0.2582
vn 0.1862 -0.6947 0.6947
vn 0.6846 -0.2506 0.6846
vn -0.1862 0.6947 0.6947
vn 0.6947 -0.6947 0.1862
vn -0.6846 0.2506 0.6846
vn -0.1890 0.9636 0.1890
vn 0.2582 -0.9636 0.0692
vn 0.1890 -0.9636 0.1890
vn -0.5086 0.6947 0.5086
vn -0.9351 0.2506 0.2506
vn -0.2582 0.9636 0.0692
vn 0.9351 -0.2506 -0.2506
vn 0.9351 -0.2506 0.2506
vn -0.6947 0.6947 0.1862
vn 0.2582 -0.9636 -0.0692
vn -0.2582 0.9636 -0.0692
vn 0.6846 -0.2506 -0.6846
vn 0.6947 -0.6947 -0.1862
vn -0.6947 0.6947 -0.1862
vn 0.1890 -0.9636 -0.1890
vn -0.9351 0.2506 -0.2506
vn 0.2506 -0.2506 -0.9351
vn 0.5086 -0.6947 -0.5086
vn -0.5086 0.6947 -0.5086
vn 0.0692 -0.9636 -0.2582
vn -0.6846 0.2506 -0.6846
vn -0.1890 0.9636 -0.1890
vn -0.2506 -0.2506 -0.9351
vn 0.1862 -0.6947 -0.6947
vn -0.1862 0.6947 -0.6947
vn -0.0692 -0.9636 -0.2582
vn -0.2506 0.2506 -0.9351
vn -0.0692 0.9636 -0.2582
vn -0.6846 -0.2506 -0.6846
vn -0.1862 -0.6947 -0.6947
vn 0.1862 0.6947 -0.6947
vn -0.1890 -0.9636 -0.1890
vn 0.2506 0.2506 -0.9351
vn 0.0692 0.9636 -0.2582
vn -0.6947 -0.6947 0.1862
vn 0.5086 0.6947 -0.5086
vn -0.2582 -0.9636 0.0692
vn 0.6846 0.2506 -0.6846
vn 0.1890 0.9636 -0.1890
vn -0.5086 -0.6947 -0.5086
vn 0.6947 0.6947 -0.1862
vn -0.5086 -0.6947 0.5086
vn 0.9351 0.2506 -0.2506
vn 0.2582 0.9636 -0.0692
vn -0.9351 -0.2506 -0.2506
vn -0.9351 -0.2506 0.2506
vn -0.6846 -0.2506 0.6846
vn 0.9351 0.2506 0.2506
vn 0.2582 0.9636 0.0692
vn -0.6947 -0.6947 -0.1862
vn -0.1890 -0.9636 0.1890
vn 0.6947 0.6947 0.1862
vn -0.0692 -0.9636 0.2582
vn 0.6846 0.2506 0.6846
vn 0.1890 0.9636 0.1890
vn -0.2582 -0.9636 -0.0692
vn -0.1862 -0.6947 0.6947
vn 0.5086 0.6947 0.5086
vn 0.2506 -0.2506 0.9351
vn 0.2506 0.2506 0.9351
vn 0.0692 0.9636 0.2582
vn 0.5086 -0.6947 0.5086
vn -0.2506 -0.2506 0.9351
vn 0.1862 0.6947 0.6947
vn 0.7071 0.0000 0.7071
vn 0.2588 0.0000 0.9659
vn -0.2588 0.0000 0.9659
vn -0.7071 0.0000 0.7071
vn -0.9659 0.0000 0.2588
vn -0.9659 0.0000 -0.2588
vn -0.7071 0.0000 -0.7071
vn -0.2588 0.0000 -0.9659
vn 0.2588 0.0000 -0.9659
vn 0.7071 0.0000 -0.7071
vn 0.9659 0.0000 -0.2588
vn 0.9659 0.0000 0.2588
usemtl Material
s off
f 190//43 193//43 173//43
f 121//44 181//44 124//44 125//44
f 180//45 128//45 123//45
f 191//46 194//46 193//46 190//46
f 189//47 192//47 191//47 188//47
f 181//48 180//48 123//48 124//48
f 185//49 188//49 187//49 184//49
f 125//50 124//50 130//50 131//50
f 123//51 128//51 129//51
f 184//52 187//52 173//52
f 187//53 190//53 173//53
f 124//54 123//54 129//54 130//54
f 131//55 130//55 135//55 136//55
f 129//56 128//56 134//56
f 183//57 186//57 185//57 122//57
f 186//58 189//58 188//58 185//58
f 130//59 129//59 134//59 135//59
f 126//60 184//60 173//60
f 134//61 128//61 139//61
f 127//62 183//62 122//62 132//62
f 122//63 185//63 184//63 126//63
f 135//64 134//64 139//64 140//64
f 133//65 126//65 173//65
f 136//66 135//66 140//66 141//66
f 137//67 127//67 132//67 138//67
f 132//68 122//68 126//68 133//68
f 140//69 139//69 144//69 145//69
f 142//70 133//70 173//70
f 141//71 140//71 145//71 146//71
f 139//72 128//72 144//72
f 143//73 137//73 138//73 147//73
f 138//74 132//74 133//74 142//74
f 145//75 144//75 149//75 150//75
f 148//76 142//76 173//76
f 146//77 145//77 150//77 151//77
f 144//78 128//78 149//78
f 152//79 143//79 147//79 153//79
f 147//80 138//80 142//80 148//80
f 150//81 149//81 155//81 156//81
f 154//82 148//82 173//82
f 151//83 150//83 156//83 157//83
f 149//84 128//84 155//84
f 168//85 159//85 163//85 169//85
f 156//86 155//86 160//86 161//86
f 169//87 163//87 173//87
f 157//88 156//88 161//88 162//88
f 155//89 128//89 160//89
f 153//90 147//90 148//90 154//90
f 161//91 160//91 165//91 166//91
f 178//92 168//92 169//92 179//92
f 162//93 161//93 166//93 167//93
f 160//94 128//94 165//94
f 158//95 152//95 153//95 159//95
f 164//96 158//96 159//96 168//96
f 174//97 164//97 168//97 178//97
f 167//98 166//98 171//98 172//98
f 165//99 128//99 170//99
f 159//100 153//100 154//100 163//100
f 179//101 169//101 173//101
f 166//102 165//102 170//102 171//102
f 193//103 179//103 173//103
f 172//104 171//104 176//104 177//104
f 170//105 128//105 175//105
f 163//106 154//106 173//106
f 194//107 178//107 179//107 193//107
f 171//108 170//108 175//108 176//108
f 192//109 182//109 194//109 191//109
f 177//110 176//110 181//110 121//110
f 175//111 128//111 180//111
f 188//112 191//112 190//112 187//112
f 182//113 174//113 178//113 194//113
f 176//114 175//114 180//114 181//114
f 172//115 177//115 192//115 189//115
f 177//116 121//116 182//116 192//116
f 121//117 125//117 174//117 182//117
f 125//118 131//118 164//118 174//118
f 131//119 136//119 158//119 164//119
f 136//120 141//120 152//120 158//120
f 141//121 146//121 143//121 152//121
f 146//122 151//122 137//122 143//122
f 151//123 157//123 127//123 137//123
f 157//124 162//124 183//124 127//124
f 162//125 167//125 186//125 183//125
f 167//126 172//126 189//126 186//126
