# Blender v2.79 (sub 0) OBJ File: 'player_head.blend'
# www.blender.org
mtllib player_head.mtl
o Cube_Cube.001
v 0.187498 0.166780 -0.038851
v 0.251575 -0.451694 -0.866589
v 0.136480 -0.410576 -0.942265
v 0.190534 0.187714 -0.886558
v 0.170733 0.345592 -0.803288
v 0.101226 -0.095812 -0.890209
v 0.329294 -0.071419 -0.796432
v 0.076627 -0.097489 -0.048351
v 0.398653 -0.008103 -0.308601
v 0.361039 0.116096 -0.749411
v 0.336469 -0.521874 -0.610784
v 0.222132 0.012849 -0.948925
v 0.199688 -0.765153 -0.854485
v 0.310842 0.346462 -0.300541
v 0.097450 -0.793300 -0.956121
v 0.098443 -0.269301 -0.941030
v 0.396518 -0.052378 -0.563730
v 0.332457 -0.019937 -0.157832
v 0.297081 -0.716633 -0.665405
v 0.311070 0.347735 -0.500152
v 0.274685 0.303084 -0.755873
v 0.285569 0.309411 -0.173724
v 0.370026 -0.282331 -0.564295
v 0.287853 -0.347921 -0.855552
v 0.069133 -0.158258 -0.100777
v 0.332371 -0.141384 -0.316611
v 0.201912 -0.556226 -0.497166
v 0.124332 -0.827135 -0.769887
v 0.070489 -0.852866 -0.838234
v 0.321798 -0.180707 -0.385801
v 0.282589 -0.180518 -0.262562
v 0.199219 -0.745941 -0.628439
v 0.252226 -0.287261 -0.358416
v 0.245308 -0.177615 -0.868731
v 0.339530 -0.165170 -0.825992
v 0.251741 -0.333575 0.138951
v 0.219049 -0.431840 -0.013883
v 0.250984 -0.741568 0.306489
v 0.223064 -0.835394 0.161773
v -0.187498 0.166780 -0.038851
v -0.251575 -0.451694 -0.866589
v -0.136480 -0.410576 -0.942265
v -0.190534 0.187714 -0.886558
v -0.170733 0.345592 -0.803288
v -0.101226 -0.095812 -0.890209
v -0.329294 -0.071419 -0.796432
v -0.076627 -0.097489 -0.048351
v -0.398653 -0.008103 -0.308601
v -0.361039 0.116096 -0.749411
v -0.336469 -0.521874 -0.610784
v -0.222132 0.012849 -0.948925
v -0.199688 -0.765153 -0.854485
v -0.310842 0.346462 -0.300541
v -0.097450 -0.793300 -0.956121
v -0.098443 -0.269301 -0.941030
v -0.396518 -0.052378 -0.563730
v -0.332457 -0.019937 -0.157832
v -0.297081 -0.716633 -0.665405
v -0.311070 0.347735 -0.500152
v -0.274685 0.303084 -0.755873
v -0.285569 0.309411 -0.173724
v -0.370026 -0.282331 -0.564295
v -0.287853 -0.347921 -0.855552
v -0.069133 -0.158258 -0.100777
v -0.332371 -0.141384 -0.316611
v -0.201912 -0.556226 -0.497166
v -0.124332 -0.827135 -0.769887
v -0.070489 -0.852866 -0.838234
v -0.321798 -0.180707 -0.385801
v -0.282589 -0.180518 -0.262562
v -0.199219 -0.745941 -0.628439
v -0.252226 -0.287261 -0.358416
v -0.245308 -0.177615 -0.868731
v -0.339530 -0.165170 -0.825992
v -0.251741 -0.333575 0.138951
v -0.219049 -0.431840 -0.013883
v -0.250984 -0.741568 0.306489
v -0.223064 -0.835394 0.161773
v 0.000000 0.175025 -0.006877
v 0.000000 0.292420 -0.868025
v 0.000000 -0.379840 -0.963221
v 0.000000 0.459328 -0.284053
v 0.000000 0.362136 -0.823871
v 0.000000 -0.026419 -0.983226
v 0.000000 -0.090385 -0.026176
v 0.000000 0.460596 -0.512562
v 0.000000 0.366210 -0.115347
v 0.000000 -0.797161 -0.964326
v 0.000000 -0.289661 -0.962384
v 0.000000 -0.207878 -0.146966
v 0.000000 -0.764439 -0.698158
v 0.000000 -0.240602 -1.071760
v 0.000000 -0.437172 -0.969842
v 0.000000 -0.313286 0.202825
v 0.000000 -0.466706 -0.058284
v 0.000000 -0.715935 0.368858
v 0.000000 -0.868119 0.124707
v 0.000000 -0.967393 0.291038
vn 0.1756 0.1129 -0.9780
vn 0.0900 0.3422 -0.9353
vn 0.6719 0.3535 -0.6508
vn 0.2268 -0.6461 -0.7288
vn 0.7433 0.2556 -0.6182
vn 0.3570 0.3161 -0.8790
vn 0.8195 0.0050 -0.5731
vn 0.9584 -0.0948 -0.2691
vn 0.9673 -0.1695 -0.1886
vn 0.3323 -0.7071 -0.6242
vn 0.2876 0.2650 -0.9203
vn 0.8052 0.1548 -0.5724
vn 0.2674 -0.8792 -0.3944
vn 0.3258 0.3424 -0.8813
vn 0.4234 0.0357 -0.9053
vn 0.4094 0.0317 -0.9118
vn 0.9383 0.1929 -0.2869
vn -0.1756 0.1129 -0.9780
vn -0.0900 0.3422 -0.9353
vn -0.6719 0.3535 -0.6508
vn -0.2268 -0.6461 -0.7288
vn -0.7433 0.2556 -0.6182
vn -0.3570 0.3161 -0.8790
vn -0.8195 0.0050 -0.5731
vn -0.9584 -0.0948 -0.2691
vn -0.9673 -0.1695 -0.1886
vn -0.3323 -0.7071 -0.6242
vn -0.2876 0.2650 -0.9203
vn -0.8052 0.1548 -0.5724
vn -0.2674 -0.8792 -0.3944
vn -0.3258 0.3424 -0.8813
vn -0.4234 0.0357 -0.9053
vn -0.4094 0.0317 -0.9118
vn -0.9383 0.1929 -0.2869
vn 0.1947 -0.0938 0.9764
vn 0.2288 0.5287 0.8174
vn 0.5902 -0.0549 0.8053
vn 0.9738 0.2260 -0.0255
vn 0.9231 0.1857 0.3369
vn 0.9780 0.2085 0.0023
vn 0.8925 0.4053 -0.1978
vn 0.9461 -0.1438 -0.2901
vn 0.9149 -0.1324 -0.3813
vn 0.1788 0.0382 -0.9832
vn 0.6273 -0.0800 -0.7747
vn 0.4817 0.0473 -0.8751
vn 0.6184 0.3474 -0.7049
vn 0.1702 0.4926 -0.8534
vn 0.3412 0.9400 0.0058
vn 0.2968 0.8643 0.4061
vn 0.2670 0.9394 -0.2148
vn 0.4522 0.8655 -0.2155
vn 0.5726 -0.4068 0.7118
vn 0.8976 -0.4340 0.0767
vn 0.8179 -0.4573 0.3493
vn 0.8998 -0.2272 0.3725
vn 0.5052 -0.8598 0.0741
vn -0.5065 -0.8570 -0.0955
vn 0.5278 -0.8191 -0.2250
vn 0.3475 -0.2040 -0.9152
vn 0.7602 -0.3294 0.5600
vn 0.4548 -0.5909 0.6663
vn 0.1508 0.0032 -0.9886
vn 0.4744 -0.4721 0.7431
vn 0.8369 -0.4778 0.2670
vn 0.7469 -0.6206 0.2386
vn 0.4012 -0.6725 0.6219
vn 0.2096 -0.8065 0.5528
vn 0.0183 -0.7036 0.7104
vn -0.1717 -0.8698 0.4627
vn -0.1108 -0.8355 0.5382
vn -0.2294 -0.5516 0.8019
vn 0.2580 0.3674 0.8936
vn 0.2350 0.7007 0.6737
vn 0.8518 0.3201 -0.4148
vn 0.6172 -0.7092 0.3408
vn 0.9851 -0.0636 -0.1596
vn 0.2246 -0.3956 -0.8905
vn 0.2029 -0.2895 0.9354
vn 0.2066 -0.8402 -0.5014
vn -0.1947 -0.0938 0.9764
vn -0.2288 0.5287 0.8174
vn -0.5902 -0.0549 0.8053
vn -0.9738 0.2260 -0.0255
vn -0.9231 0.1857 0.3369
vn -0.9780 0.2085 0.0023
vn -0.8925 0.4053 -0.1978
vn -0.9461 -0.1438 -0.2901
vn -0.9149 -0.1324 -0.3813
vn -0.1788 0.0382 -0.9832
vn -0.6273 -0.0800 -0.7747
vn -0.4817 0.0473 -0.8751
vn -0.6184 0.3474 -0.7049
vn -0.1702 0.4926 -0.8534
vn -0.3412 0.9400 0.0058
vn -0.2968 0.8643 0.4061
vn -0.2670 0.9394 -0.2148
vn -0.4522 0.8655 -0.2155
vn -0.5726 -0.4068 0.7118
vn -0.8976 -0.4340 0.0767
vn -0.8179 -0.4573 0.3493
vn -0.8998 -0.2272 0.3725
vn -0.5052 -0.8598 0.0741
vn 0.5065 -0.8570 -0.0955
vn -0.5278 -0.8191 -0.2250
vn -0.3475 -0.2040 -0.9152
vn -0.7602 -0.3294 0.5600
vn -0.4548 -0.5909 0.6663
vn -0.1508 0.0032 -0.9886
vn -0.4744 -0.4721 0.7431
vn -0.8369 -0.4778 0.2670
vn -0.7469 -0.6206 0.2386
vn -0.4012 -0.6725 0.6219
vn -0.2096 -0.8065 0.5528
vn -0.0183 -0.7036 0.7104
vn 0.1717 -0.8698 0.4627
vn 0.1108 -0.8355 0.5382
vn 0.2294 -0.5516 0.8019
vn -0.2580 0.3674 0.8936
vn -0.2350 0.7007 0.6737
vn -0.8518 0.3201 -0.4148
vn -0.6172 -0.7092 0.3408
vn -0.9851 -0.0636 -0.1596
vn -0.2246 -0.3956 -0.8905
vn -0.2029 -0.2895 0.9354
vn -0.2066 -0.8402 -0.5014
usemtl skin
s off
f 3//1 93//1 81//1
f 4//2 12//2 84//2 80//2
f 4//3 10//3 12//3
f 6//4 84//4 12//4
f 6//5 92//5 84//5
f 35//6 34//6 7//6
f 7//7 12//7 10//7
f 7//8 10//8 17//8
f 35//9 17//9 23//9 24//9
f 6//10 12//10 7//10
f 6//11 34//11 16//11
f 16//12 92//12 6//12
f 89//13 92//13 16//13
f 7//14 34//14 6//14
f 16//15 34//15 24//15
f 24//16 34//16 35//16
f 7//17 17//17 35//17
f 42//18 81//18 93//18
f 43//19 80//19 84//19 51//19
f 43//20 51//20 49//20
f 45//21 51//21 84//21
f 45//22 84//22 92//22
f 74//23 46//23 73//23
f 46//24 49//24 51//24
f 46//25 56//25 49//25
f 74//26 63//26 62//26 56//26
f 45//27 46//27 51//27
f 45//28 55//28 73//28
f 55//29 45//29 92//29
f 89//30 55//30 92//30
f 46//31 45//31 73//31
f 55//32 63//32 73//32
f 63//33 74//33 73//33
f 46//34 74//34 56//34
usemtl neard
f 1//35 79//35 85//35 8//35
f 1//36 22//36 87//36 79//36
f 1//37 8//37 18//37 22//37
f 14//38 9//38 17//38 20//38
f 14//39 22//39 18//39 9//39
f 10//40 20//40 17//40
f 10//41 21//41 20//41
f 2//42 24//42 23//42 11//42
f 2//43 11//43 19//43 13//43
f 3//44 81//44 89//44 16//44
f 3//45 2//45 13//45 15//45
f 3//46 16//46 24//46 2//46
f 4//47 5//47 21//47 10//47
f 4//48 80//48 83//48 5//48
f 14//49 20//49 86//49 82//49
f 14//50 82//50 87//50 22//50
f 5//51 83//51 86//51 20//51
f 5//52 20//52 21//52
f 11//53 27//53 32//53 19//53
f 9//54 26//54 30//54 17//54
f 18//55 31//55 26//55 9//55
f 17//56 30//56 33//56 23//56
f 19//57 32//57 28//57 13//57
f 15//58 29//58 91//58 88//58
f 13//59 28//59 29//59 15//59
f 90//60 25//60 37//60 95//60
f 23//61 33//61 27//61 11//61
f 8//62 25//62 31//62 18//62
f 15//63 88//63 93//63 3//63
f 27//64 33//64 90//64
f 33//65 30//65 31//65
f 30//66 26//66 31//66
f 31//67 25//67 33//67
f 25//68 90//68 33//68
f 90//69 91//69 27//69
f 91//70 29//70 28//70
f 28//71 32//71 91//71
f 32//72 27//72 91//72
f 36//73 94//73 96//73 38//73
f 8//74 85//74 94//74 36//74
f 25//75 8//75 36//75 37//75
f 39//76 38//76 98//76
f 37//77 36//77 38//77 39//77
f 95//78 37//78 39//78 97//78
f 38//79 96//79 98//79
f 97//80 39//80 98//80
f 40//81 47//81 85//81 79//81
f 40//82 79//82 87//82 61//82
f 40//83 61//83 57//83 47//83
f 53//84 59//84 56//84 48//84
f 53//85 48//85 57//85 61//85
f 49//86 56//86 59//86
f 49//87 59//87 60//87
f 41//88 50//88 62//88 63//88
f 41//89 52//89 58//89 50//89
f 42//90 55//90 89//90 81//90
f 42//91 54//91 52//91 41//91
f 42//92 41//92 63//92 55//92
f 43//93 49//93 60//93 44//93
f 43//94 44//94 83//94 80//94
f 53//95 82//95 86//95 59//95
f 53//96 61//96 87//96 82//96
f 44//97 59//97 86//97 83//97
f 44//98 60//98 59//98
f 50//99 58//99 71//99 66//99
f 48//100 56//100 69//100 65//100
f 57//101 48//101 65//101 70//101
f 56//102 62//102 72//102 69//102
f 58//103 52//103 67//103 71//103
f 54//104 88//104 91//104 68//104
f 52//105 54//105 68//105 67//105
f 90//106 95//106 76//106 64//106
f 62//107 50//107 66//107 72//107
f 47//108 57//108 70//108 64//108
f 54//109 42//109 93//109 88//109
f 66//110 90//110 72//110
f 72//111 70//111 69//111
f 69//112 70//112 65//112
f 70//113 72//113 64//113
f 64//114 72//114 90//114
f 90//115 66//115 91//115
f 91//116 67//116 68//116
f 67//117 91//117 71//117
f 71//118 91//118 66//118
f 75//119 77//119 96//119 94//119
f 47//120 75//120 94//120 85//120
f 64//121 76//121 75//121 47//121
f 78//122 98//122 77//122
f 76//123 78//123 77//123 75//123
f 95//124 97//124 78//124 76//124
f 77//125 98//125 96//125
f 97//126 98//126 78//126
