# Blender v2.79 (sub 0) OBJ File: 'player_head.blend'
# www.blender.org
mtllib player_head.mtl
o Cube
v -1.579753 1.000000 1.308169
v -1.579753 -1.000000 1.308169
v -1.000000 -1.000000 -3.283940
v -1.000000 -0.006364 -3.283940
v -1.579753 -1.000000 -0.999533
v -1.579753 1.000000 -0.999533
v -1.919438 0.163237 -4.011184
v -1.919438 -0.261805 -4.011184
v -1.646409 -0.049284 0.672484
v -2.131959 -0.049284 0.672485
v -1.646409 -0.551508 0.464456
v -2.131959 -0.551509 0.464456
v -1.646409 -0.759537 -0.037768
v -2.131959 -0.759537 -0.037768
v -1.646409 -0.551509 -0.539993
v -2.131959 -0.551509 -0.539993
v -1.646409 -0.049284 -0.748021
v -2.131959 -0.049284 -0.748021
v -1.646409 0.452941 -0.539993
v -2.131959 0.452941 -0.539993
v -1.646409 0.660969 -0.037769
v -2.131959 0.660969 -0.037768
v -1.646409 0.452941 0.464456
v -2.131959 0.452941 0.464456
v -1.919438 -0.261805 0.174753
v -1.919438 0.163237 0.174753
v -2.344480 -0.261805 -4.011184
v -2.344480 0.163237 -4.011184
v -2.344480 -0.261805 0.174753
v -2.344480 0.163237 0.174753
v -1.697537 0.385138 -5.136902
v -1.697537 -0.483706 -5.136902
v -1.697537 -0.483706 -3.681993
v -1.697537 0.385138 -3.681993
v -2.566381 -0.483706 -5.136902
v -2.566381 0.385138 -5.136902
v -2.566381 -0.483706 -3.681993
v -2.566381 0.385138 -3.681993
v -0.789876 1.533783 1.308169
v -0.789876 1.533783 2.703701
v -0.789876 1.533783 -0.999533
v 0.000000 1.533783 1.308169
v 0.000000 -1.000000 1.308169
v 1.579753 1.000000 1.308169
v 1.579753 -1.000000 1.308169
v 1.000000 -1.000000 -3.283940
v 1.000000 -0.006364 -3.283940
v 1.579753 -1.000000 -0.999533
v 1.579753 1.000000 -0.999533
v 0.000000 -1.000000 -0.999533
v 0.000000 1.533783 -0.999533
v 0.000000 -1.000000 -3.283940
v 0.000000 -0.006364 -3.283940
v 1.919438 0.163237 -4.011184
v 1.919438 -0.261805 -4.011184
v 1.646409 -0.049284 0.672484
v 2.131959 -0.049284 0.672485
v 1.646409 -0.551508 0.464456
v 2.131959 -0.551509 0.464456
v 1.646409 -0.759537 -0.037768
v 2.131959 -0.759537 -0.037768
v 1.646409 -0.551509 -0.539993
v 2.131959 -0.551509 -0.539993
v 1.646409 -0.049284 -0.748021
v 2.131959 -0.049284 -0.748021
v 1.646409 0.452941 -0.539993
v 2.131959 0.452941 -0.539993
v 1.646409 0.660969 -0.037769
v 2.131959 0.660969 -0.037768
v 1.646409 0.452941 0.464456
v 2.131959 0.452941 0.464456
v 1.919438 -0.261805 0.174753
v 1.919438 0.163237 0.174753
v 2.344480 -0.261805 -4.011184
v 2.344480 0.163237 -4.011184
v 2.344480 -0.261805 0.174753
v 2.344480 0.163237 0.174753
v 1.697537 0.385138 -5.136902
v 1.697537 -0.483706 -5.136902
v 1.697537 -0.483706 -3.681993
v 1.697537 0.385138 -3.681993
v 2.566381 -0.483706 -5.136902
v 2.566381 0.385138 -5.136902
v 2.566381 -0.483706 -3.681993
v 2.566381 0.385138 -3.681993
v 0.789876 1.533783 1.308169
v 0.000000 1.533783 2.703701
v 0.789876 1.533783 2.703701
v 0.789876 1.533783 -0.999533
vn -0.5599 0.8285 0.0000
vn -0.9693 0.0000 -0.2460
vn -1.0000 0.0000 0.0000
vn 0.0000 -1.0000 0.0000
vn 0.0000 0.8292 -0.5590
vn 0.0000 0.0000 -1.0000
vn -0.8703 0.0000 0.4926
vn 0.0000 1.0000 0.0000
vn 0.0000 -0.3827 0.9239
vn 0.0000 -0.9239 0.3827
vn 1.0000 0.0000 0.0000
vn 0.0000 -0.9239 -0.3827
vn 0.0000 0.0000 1.0000
vn -0.0000 -0.3827 -0.9239
vn -0.0000 0.3827 -0.9239
vn -0.0000 0.9239 -0.3827
vn 0.0000 0.9239 0.3827
vn 0.0000 0.3827 0.9239
vn 0.0000 -0.4824 0.8759
vn -0.4994 0.7390 -0.4523
vn 0.5599 0.8285 0.0000
vn 0.9693 0.0000 -0.2460
vn 0.8703 0.0000 0.4926
vn 0.4994 0.7390 -0.4523
usemtl Material.001
s off
f 41//1 6//1 1//1 39//1
f 5//2 6//2 4//2 3//2
f 6//3 5//3 2//3 1//3
f 50//4 5//4 3//4 52//4
f 5//4 50//4 43//4 2//4
f 41//5 51//5 53//5 4//5
f 3//6 4//6 53//6 52//6
f 1//7 2//7 40//7
f 38//8 34//8 31//8 36//8
f 9//9 10//9 12//9 11//9
f 30//8 26//8 7//8 28//8
f 11//10 12//10 14//10 13//10
f 32//11 31//11 34//11 33//11
f 25//4 29//4 27//4 8//4
f 13//12 14//12 16//12 15//12
f 33//13 34//13 38//13 37//13
f 27//6 28//6 7//6 8//6
f 15//14 16//14 18//14 17//14
f 37//3 38//3 36//3 35//3
f 29//3 30//3 28//3 27//3
f 17//15 18//15 20//15 19//15
f 35//6 36//6 31//6 32//6
f 25//13 26//13 30//13 29//13
f 19//16 20//16 22//16 21//16
f 12//3 10//3 24//3 22//3 20//3 18//3 16//3 14//3
f 8//11 7//11 26//11 25//11
f 21//17 22//17 24//17 23//17
f 33//4 37//4 35//4 32//4
f 23//18 24//18 10//18 9//18
f 9//11 11//11 13//11 15//11 17//11 19//11 21//11 23//11
f 40//1 39//1 1//1
f 2//19 43//19 87//19 40//19
f 42//8 39//8 40//8 87//8
f 6//20 41//20 4//20
f 51//8 41//8 39//8 42//8
f 89//21 86//21 44//21 49//21
f 48//22 46//22 47//22 49//22
f 49//11 44//11 45//11 48//11
f 50//4 52//4 46//4 48//4
f 48//4 45//4 43//4 50//4
f 89//5 47//5 53//5 51//5
f 46//6 52//6 53//6 47//6
f 44//23 88//23 45//23
f 85//8 83//8 78//8 81//8
f 56//9 58//9 59//9 57//9
f 77//8 75//8 54//8 73//8
f 58//10 60//10 61//10 59//10
f 79//3 80//3 81//3 78//3
f 72//4 55//4 74//4 76//4
f 60//12 62//12 63//12 61//12
f 80//13 84//13 85//13 81//13
f 74//6 55//6 54//6 75//6
f 62//14 64//14 65//14 63//14
f 84//11 82//11 83//11 85//11
f 76//11 74//11 75//11 77//11
f 64//15 66//15 67//15 65//15
f 82//6 79//6 78//6 83//6
f 72//13 76//13 77//13 73//13
f 66//16 68//16 69//16 67//16
f 59//11 61//11 63//11 65//11 67//11 69//11 71//11 57//11
f 55//3 72//3 73//3 54//3
f 68//17 70//17 71//17 69//17
f 80//4 79//4 82//4 84//4
f 70//18 56//18 57//18 71//18
f 56//3 70//3 68//3 66//3 64//3 62//3 60//3 58//3
f 88//21 44//21 86//21
f 45//19 88//19 87//19 43//19
f 42//8 87//8 88//8 86//8
f 49//24 47//24 89//24
f 51//8 42//8 86//8 89//8
o Sphere.001
v -0.250000 0.866025 0.433013
v -0.433013 0.500000 0.750000
v 0.000000 1.000000 0.000000
v -0.433013 0.866025 0.250000
v -0.750000 0.500000 0.433013
v -0.500000 0.866025 0.000000
v -0.866025 0.500000 0.000000
v -0.433013 0.866025 -0.250000
v -0.750000 0.500000 -0.433012
v -0.250000 0.866025 -0.433012
v -0.433013 0.500000 -0.750000
v -0.000000 0.866025 -0.500000
v -0.000000 0.500000 -0.866025
v 0.250000 0.866025 -0.433012
v 0.433013 0.500000 -0.750000
v 0.433012 0.866025 -0.250000
v 0.750000 0.500000 -0.433012
v 0.500000 0.866025 0.000000
v 0.866025 0.500000 0.000000
v 0.433012 0.866025 0.250000
v 0.750000 0.500000 0.433013
v 0.250000 0.866025 0.433013
v 0.433012 0.500000 0.750000
v -0.000000 0.866025 0.500000
v -0.000000 0.500000 0.866025
v -0.000000 0.000000 1.000000
v -0.250000 -0.866025 0.433013
v -0.433013 -0.500000 0.750000
v -0.500000 0.000000 0.866025
v 0.000000 -1.000000 0.000000
v -0.433013 -0.866025 0.250000
v -0.750000 -0.500000 0.433013
v -0.866025 0.000000 0.500000
v -0.500000 -0.866025 0.000000
v -0.866025 -0.500000 0.000000
v -1.000000 0.000000 0.000000
v -0.433013 -0.866025 -0.250000
v -0.750000 -0.500000 -0.433012
v -0.866025 0.000000 -0.500000
v -0.250000 -0.866025 -0.433012
v -0.433013 -0.500000 -0.750000
v -0.500000 0.000000 -0.866025
v -0.000000 -0.866025 -0.500000
v -0.000000 -0.500000 -0.866025
v -0.000000 0.000000 -1.000000
v 0.250000 -0.866025 -0.433012
v 0.433013 -0.500000 -0.750000
v 0.500000 0.000000 -0.866025
v 0.433012 -0.866025 -0.250000
v 0.750000 -0.500000 -0.433012
v 0.866025 0.000000 -0.500000
v 0.500000 -0.866025 0.000000
v 0.866025 -0.500000 0.000000
v 1.000000 0.000000 0.000000
v 0.433012 -0.866025 0.250000
v 0.750000 -0.500000 0.433013
v 0.866025 0.000000 0.500000
v 0.250000 -0.866025 0.433013
v 0.433012 -0.500000 0.750000
v 0.500000 0.000000 0.866025
v -0.000000 -0.866025 0.500000
v -0.000000 -0.500000 0.866025
vn -0.2506 0.2506 0.9351
vn -0.0692 0.9636 0.2582
vn -0.1862 0.6947 0.6947
vn -0.6846 0.2506 0.6846
vn -0.1890 0.9636 0.1890
vn -0.5086 0.6947 0.5086
vn -0.9351 0.2506 0.2506
vn -0.2582 0.9636 0.0692
vn -0.6947 0.6947 0.1862
vn -0.2582 0.9636 -0.0692
vn -0.6947 0.6947 -0.1862
vn -0.9351 0.2506 -0.2506
vn -0.5086 0.6947 -0.5086
vn -0.6846 0.2506 -0.6846
vn -0.1890 0.9636 -0.1890
vn -0.1862 0.6947 -0.6947
vn -0.2506 0.2506 -0.9351
vn -0.0692 0.9636 -0.2582
vn 0.1862 0.6947 -0.6947
vn 0.2506 0.2506 -0.9351
vn 0.0692 0.9636 -0.2582
vn 0.5086 0.6947 -0.5086
vn 0.6846 0.2506 -0.6846
vn 0.1890 0.9636 -0.1890
vn 0.6947 0.6947 -0.1862
vn 0.9351 0.2506 -0.2506
vn 0.2582 0.9636 -0.0692
vn 0.9351 0.2506 0.2506
vn 0.2582 0.9636 0.0692
vn 0.6947 0.6947 0.1862
vn 0.6846 0.2506 0.6846
vn 0.1890 0.9636 0.1890
vn 0.5086 0.6947 0.5086
vn 0.2506 0.2506 0.9351
vn 0.0692 0.9636 0.2582
vn 0.1862 0.6947 0.6947
vn -0.2506 -0.2506 0.9351
vn -0.0692 -0.9636 0.2582
vn -0.1862 -0.6947 0.6947
vn -0.6846 -0.2506 0.6846
vn -0.1890 -0.9636 0.1890
vn -0.5086 -0.6947 0.5086
vn -0.9351 -0.2506 0.2506
vn -0.2582 -0.9636 0.0692
vn -0.6947 -0.6947 0.1862
vn -0.2582 -0.9636 -0.0692
vn -0.6947 -0.6947 -0.1862
vn -0.9351 -0.2506 -0.2506
vn -0.5086 -0.6947 -0.5086
vn -0.6846 -0.2506 -0.6846
vn -0.1890 -0.9636 -0.1890
vn -0.1862 -0.6947 -0.6947
vn -0.2506 -0.2506 -0.9351
vn -0.0692 -0.9636 -0.2582
vn 0.1862 -0.6947 -0.6947
vn 0.2506 -0.2506 -0.9351
vn 0.0692 -0.9636 -0.2582
vn 0.5086 -0.6947 -0.5086
vn 0.6846 -0.2506 -0.6846
vn 0.1890 -0.9636 -0.1890
vn 0.6947 -0.6947 -0.1862
vn 0.9351 -0.2506 -0.2506
vn 0.2582 -0.9636 -0.0692
vn 0.9351 -0.2506 0.2506
vn 0.2582 -0.9636 0.0692
vn 0.6947 -0.6947 0.1862
vn 0.6846 -0.2506 0.6846
vn 0.1890 -0.9636 0.1890
vn 0.5086 -0.6947 0.5086
vn 0.2506 -0.2506 0.9351
vn 0.0692 -0.9636 0.2582
vn 0.1862 -0.6947 0.6947
usemtl Material.001
s off
f 115//25 114//25 91//25 118//25
f 113//26 92//26 90//26
f 114//27 113//27 90//27 91//27
f 118//28 91//28 94//28 122//28
f 90//29 92//29 93//29
f 91//30 90//30 93//30 94//30
f 122//31 94//31 96//31 125//31
f 93//32 92//32 95//32
f 94//33 93//33 95//33 96//33
f 95//34 92//34 97//34
f 96//35 95//35 97//35 98//35
f 125//36 96//36 98//36 128//36
f 98//37 97//37 99//37 100//37
f 128//38 98//38 100//38 131//38
f 97//39 92//39 99//39
f 100//40 99//40 101//40 102//40
f 131//41 100//41 102//41 134//41
f 99//42 92//42 101//42
f 102//43 101//43 103//43 104//43
f 134//44 102//44 104//44 137//44
f 101//45 92//45 103//45
f 104//46 103//46 105//46 106//46
f 137//47 104//47 106//47 140//47
f 103//48 92//48 105//48
f 106//49 105//49 107//49 108//49
f 140//50 106//50 108//50 143//50
f 105//51 92//51 107//51
f 143//52 108//52 110//52 146//52
f 107//53 92//53 109//53
f 108//54 107//54 109//54 110//54
f 146//55 110//55 112//55 149//55
f 109//56 92//56 111//56
f 110//57 109//57 111//57 112//57
f 149//58 112//58 114//58 115//58
f 111//59 92//59 113//59
f 112//60 111//60 113//60 114//60
f 115//61 118//61 117//61 151//61
f 150//62 116//62 119//62
f 151//63 117//63 116//63 150//63
f 118//64 122//64 121//64 117//64
f 116//65 120//65 119//65
f 117//66 121//66 120//66 116//66
f 122//67 125//67 124//67 121//67
f 120//68 123//68 119//68
f 121//69 124//69 123//69 120//69
f 123//70 126//70 119//70
f 124//71 127//71 126//71 123//71
f 125//72 128//72 127//72 124//72
f 127//73 130//73 129//73 126//73
f 128//74 131//74 130//74 127//74
f 126//75 129//75 119//75
f 130//76 133//76 132//76 129//76
f 131//77 134//77 133//77 130//77
f 129//78 132//78 119//78
f 133//79 136//79 135//79 132//79
f 134//80 137//80 136//80 133//80
f 132//81 135//81 119//81
f 136//82 139//82 138//82 135//82
f 137//83 140//83 139//83 136//83
f 135//84 138//84 119//84
f 139//85 142//85 141//85 138//85
f 140//86 143//86 142//86 139//86
f 138//87 141//87 119//87
f 143//88 146//88 145//88 142//88
f 141//89 144//89 119//89
f 142//90 145//90 144//90 141//90
f 146//91 149//91 148//91 145//91
f 144//92 147//92 119//92
f 145//93 148//93 147//93 144//93
f 149//94 115//94 151//94 148//94
f 147//95 150//95 119//95
f 148//96 151//96 150//96 147//96
