# Blender v2.79 (sub 0) OBJ File: 'player_hero.blend'
# www.blender.org
mtllib player_hover_board.mtl
o Cube_Cube.005
v -0.494200 -1.299084 -0.224979
v -0.494200 -1.203010 -0.224979
v -0.494200 -1.299084 0.145033
v -0.494200 -1.203010 0.145033
v -0.512819 -1.251047 0.189344
v -0.550007 -1.251047 0.227844
v -0.723697 -1.251047 0.189344
v -0.686509 -1.251047 0.227844
v -0.512819 -1.345719 0.163977
v -0.550007 -1.364969 0.197318
v -0.723697 -1.345719 0.163977
v -0.686509 -1.364969 0.197318
v -0.512819 -1.415024 0.094672
v -0.550007 -1.448365 0.113922
v -0.723697 -1.415024 0.094672
v -0.686509 -1.448365 0.113922
v -0.512819 -1.440391 -0.000000
v -0.550007 -1.478891 0.000000
v -0.723697 -1.440391 0.000000
v -0.686509 -1.478891 0.000000
v -0.512819 -1.415024 -0.094672
v -0.550007 -1.448365 -0.113922
v -0.723697 -1.415024 -0.094672
v -0.686509 -1.448365 -0.113922
v -0.512819 -1.345719 -0.163977
v -0.550007 -1.364969 -0.197318
v -0.723697 -1.345719 -0.163977
v -0.686509 -1.364969 -0.197318
v -0.512819 -1.251047 -0.189344
v -0.550007 -1.251047 -0.227844
v -0.723697 -1.251047 -0.189344
v -0.686509 -1.251047 -0.227844
v -0.512819 -1.156375 -0.163977
v -0.550007 -1.137125 -0.197318
v -0.723697 -1.156375 -0.163977
v -0.686509 -1.137125 -0.197318
v -0.512819 -1.087071 -0.094672
v -0.550007 -1.053729 -0.113922
v -0.723697 -1.087071 -0.094672
v -0.686509 -1.053729 -0.113922
v -0.512819 -1.061703 -0.000000
v -0.550007 -1.023204 -0.000000
v -0.723697 -1.061703 -0.000000
v -0.686509 -1.023204 -0.000000
v -0.512819 -1.087070 0.094672
v -0.550007 -1.053729 0.113922
v -0.723697 -1.087071 0.094672
v -0.686509 -1.053729 0.113922
v -0.512819 -1.156375 0.163977
v -0.550007 -1.137125 0.197318
v -0.723697 -1.156375 0.163977
v -0.686509 -1.137125 0.197318
v 0.494200 -1.299084 -0.224979
v 0.494200 -1.203010 -0.224979
v 0.494200 -1.299084 0.145033
v 0.494200 -1.203010 0.145033
v 0.000000 -1.299084 0.145033
v 0.000000 -1.203010 0.145033
v 0.000000 -1.299084 -0.224979
v 0.000000 -1.203010 -0.224979
v 0.512819 -1.251047 0.189344
v 0.550007 -1.251047 0.227844
v 0.723697 -1.251047 0.189344
v 0.686509 -1.251047 0.227844
v 0.512819 -1.345719 0.163977
v 0.550007 -1.364969 0.197318
v 0.723697 -1.345719 0.163977
v 0.686509 -1.364969 0.197318
v 0.512819 -1.415024 0.094672
v 0.550007 -1.448365 0.113922
v 0.723697 -1.415024 0.094672
v 0.686509 -1.448365 0.113922
v 0.512819 -1.440391 -0.000000
v 0.550007 -1.478891 0.000000
v 0.723697 -1.440391 0.000000
v 0.686509 -1.478891 0.000000
v 0.512819 -1.415024 -0.094672
v 0.550007 -1.448365 -0.113922
v 0.723697 -1.415024 -0.094672
v 0.686509 -1.448365 -0.113922
v 0.512819 -1.345719 -0.163977
v 0.550007 -1.364969 -0.197318
v 0.723697 -1.345719 -0.163977
v 0.686509 -1.364969 -0.197318
v 0.512819 -1.251047 -0.189344
v 0.550007 -1.251047 -0.227844
v 0.723697 -1.251047 -0.189344
v 0.686509 -1.251047 -0.227844
v 0.512819 -1.156375 -0.163977
v 0.550007 -1.137125 -0.197318
v 0.723697 -1.156375 -0.163977
v 0.686509 -1.137125 -0.197318
v 0.512819 -1.087071 -0.094672
v 0.550007 -1.053729 -0.113922
v 0.723697 -1.087071 -0.094672
v 0.686509 -1.053729 -0.113922
v 0.512819 -1.061703 -0.000000
v 0.550007 -1.023204 -0.000000
v 0.723697 -1.061703 -0.000000
v 0.686509 -1.023204 -0.000000
v 0.512819 -1.087070 0.094672
v 0.550007 -1.053729 0.113922
v 0.723697 -1.087071 0.094672
v 0.686509 -1.053729 0.113922
v 0.512819 -1.156375 0.163977
v 0.550007 -1.137125 0.197318
v 0.723697 -1.156375 0.163977
v 0.686509 -1.137125 0.197318
vn 0.0000 -0.7071 0.7071
vn 0.0000 0.7071 0.7071
vn -0.5773 0.5773 0.5773
vn -0.5773 -0.5773 0.5773
vn -0.5773 0.5773 -0.5773
vn -0.5773 -0.5773 -0.5773
vn 0.0000 -0.7071 -0.7071
vn 0.0000 0.7071 -0.7071
vn 0.3692 0.4646 0.8048
vn -0.3692 0.4646 0.8048
vn -0.3692 0.0000 0.9293
vn 0.3692 0.0000 0.9293
vn 0.3692 -0.8048 0.4646
vn -0.3692 -0.8048 0.4646
vn -0.3692 -0.9293 0.0000
vn 0.3692 -0.9293 0.0000
vn -0.3692 -0.8048 -0.4646
vn 0.3692 -0.8048 -0.4646
vn -0.3692 -0.4646 -0.8048
vn 0.3692 -0.4646 -0.8048
vn -0.3692 0.0000 -0.9293
vn 0.3692 0.0000 -0.9293
vn -0.3692 0.4646 -0.8048
vn 0.3692 0.4646 -0.8048
vn -0.3692 0.8048 -0.4646
vn 0.3692 0.8048 -0.4646
vn -0.3692 0.9293 0.0000
vn 0.3692 0.9293 0.0000
vn -0.3692 0.8048 0.4646
vn 0.3692 0.8048 0.4646
vn 0.3692 -0.4646 0.8048
vn -0.3692 -0.4646 0.8048
vn -0.9048 -0.2128 0.3687
vn -0.9048 0.0000 0.4257
vn -0.9048 0.2128 0.3687
vn -0.9048 0.3687 0.2128
vn -0.9048 0.4257 0.0000
vn -0.9048 0.3687 -0.2128
vn -0.9048 0.2128 -0.3687
vn -0.9048 0.0000 -0.4257
vn -0.9048 -0.2128 -0.3687
vn -0.9048 -0.3687 -0.2128
vn -0.9048 -0.4257 0.0000
vn -0.9048 -0.3687 0.2128
vn 0.9048 -0.2128 0.3687
vn 0.9048 0.0000 0.4257
vn 0.9048 -0.3687 0.2128
vn 0.9048 -0.4257 0.0000
vn 0.9048 -0.3687 -0.2128
vn 0.9048 -0.2128 -0.3687
vn 0.9048 0.0000 -0.4257
vn 0.9048 0.2128 -0.3687
vn 0.9048 0.3687 -0.2128
vn 0.9048 0.4257 0.0000
vn 0.9048 0.3687 0.2128
vn 0.9048 0.2128 0.3687
vn 0.5773 -0.5773 0.5773
vn 0.5773 0.5773 0.5773
vn 0.5773 -0.5773 -0.5773
vn 0.5773 0.5773 -0.5773
usemtl base
s 1
f 57//1 58//2 4//3 3//4
f 3//4 4//3 2//5 1//6
f 57//1 3//4 1//6 59//7
f 4//3 58//2 60//8 2//5
f 1//6 2//5 60//8 59//7
f 50//9 52//10 8//11 6//12
f 14//13 16//14 20//15 18//16
f 18//16 20//15 24//17 22//18
f 22//18 24//17 28//19 26//20
f 26//20 28//19 32//21 30//22
f 30//22 32//21 36//23 34//24
f 34//24 36//23 40//25 38//26
f 38//26 40//25 44//27 42//28
f 42//28 44//27 48//29 46//30
f 46//30 48//29 52//10 50//9
f 10//31 12//32 16//14 14//13
f 11//33 7//34 51//35 47//36 43//37 39//38 35//39 31//40 27//41 23//42 19//43 15//44
f 6//12 8//11 12//32 10//31
f 6//12 10//31 9//45 5//46
f 12//32 8//11 7//34 11//33
f 10//31 14//13 13//47 9//45
f 16//14 12//32 11//33 15//44
f 14//13 18//16 17//48 13//47
f 20//15 16//14 15//44 19//43
f 18//16 22//18 21//49 17//48
f 24//17 20//15 19//43 23//42
f 22//18 26//20 25//50 21//49
f 28//19 24//17 23//42 27//41
f 26//20 30//22 29//51 25//50
f 32//21 28//19 27//41 31//40
f 30//22 34//24 33//52 29//51
f 36//23 32//21 31//40 35//39
f 34//24 38//26 37//53 33//52
f 40//25 36//23 35//39 39//38
f 38//26 42//28 41//54 37//53
f 44//27 40//25 39//38 43//37
f 42//28 46//30 45//55 41//54
f 48//29 44//27 43//37 47//36
f 46//30 50//9 49//56 45//55
f 52//10 48//29 47//36 51//35
f 50//9 6//12 5//46 49//56
f 8//11 52//10 51//35 7//34
f 5//46 9//45 13//47 17//48 21//49 25//50 29//51 33//52 37//53 41//54 45//55 49//56
f 57//1 55//57 56//58 58//2
f 55//57 53//59 54//60 56//58
f 57//1 59//7 53//59 55//57
f 56//58 54//60 60//8 58//2
f 53//59 59//7 60//8 54//60
f 106//10 62//11 64//12 108//9
f 70//14 74//15 76//16 72//13
f 74//15 78//17 80//18 76//16
f 78//17 82//19 84//20 80//18
f 82//19 86//21 88//22 84//20
f 86//21 90//23 92//24 88//22
f 90//23 94//25 96//26 92//24
f 94//25 98//27 100//28 96//26
f 98//27 102//29 104//30 100//28
f 102//29 106//10 108//9 104//30
f 66//32 70//14 72//13 68//31
f 67//45 71//47 75//48 79//49 83//50 87//51 91//52 95//53 99//54 103//55 107//56 63//46
f 62//11 66//32 68//31 64//12
f 62//11 61//34 65//33 66//32
f 68//31 67//45 63//46 64//12
f 66//32 65//33 69//44 70//14
f 72//13 71//47 67//45 68//31
f 70//14 69//44 73//43 74//15
f 76//16 75//48 71//47 72//13
f 74//15 73//43 77//42 78//17
f 80//18 79//49 75//48 76//16
f 78//17 77//42 81//41 82//19
f 84//20 83//50 79//49 80//18
f 82//19 81//41 85//40 86//21
f 88//22 87//51 83//50 84//20
f 86//21 85//40 89//39 90//23
f 92//24 91//52 87//51 88//22
f 90//23 89//39 93//38 94//25
f 96//26 95//53 91//52 92//24
f 94//25 93//38 97//37 98//27
f 100//28 99//54 95//53 96//26
f 98//27 97//37 101//36 102//29
f 104//30 103//55 99//54 100//28
f 102//29 101//36 105//35 106//10
f 108//9 107//56 103//55 104//30
f 106//10 105//35 61//34 62//11
f 64//12 63//46 107//56 108//9
f 61//34 105//35 101//36 97//37 93//38 89//39 85//40 81//41 77//42 73//43 69//44 65//33
