# Blender v2.79 (sub 0) OBJ File: 'player_body.blend'
# www.blender.org
mtllib player_body.mtl
o Icosphere
v 0.872645 0.075229 -0.075771
v 0.515184 -1.973604 0.238113
v 0.689830 -1.973604 -0.155874
v 0.650990 -0.158546 -0.614766
v 0.896687 -0.357517 0.104368
v 0.650990 0.655084 -0.205839
v 0.650990 0.252714 0.561401
v 0.780137 -1.973604 0.325299
v 0.436846 -1.973604 0.414836
v 0.666577 -1.973604 0.430468
v 0.873129 -1.973604 -0.035493
v 0.696628 -0.402966 0.532711
v 0.478592 0.719311 0.282523
v 0.696628 -0.506558 -0.356145
v 0.478592 0.590857 -0.694200
v 0.473900 1.236307 -0.072812
v 0.347414 1.181631 0.284417
v 0.347414 1.290984 -0.430040
v 0.205021 1.415357 -0.045670
v 0.148245 1.390814 0.114682
v 0.148245 1.439900 -0.206023
v 0.623255 -0.071081 0.654739
v 0.762811 -1.190363 -0.015893
v 0.811040 -1.832863 0.104574
v 0.666577 -1.834380 0.430468
v 0.667060 -1.135589 0.573658
v 0.205477 -1.117988 0.673707
v 0.436846 -1.833621 0.414836
v 0.780137 -1.834380 0.325299
v 0.833844 -1.121658 0.319929
v 0.627741 -1.832863 -0.015807
v 0.331304 -1.286302 -0.142085
v 0.257948 -1.271374 0.323326
v 0.515184 -1.832863 0.238113
v 0.000000 -0.193434 -0.994618
v -0.872645 0.075229 -0.075771
v 0.000000 0.310101 0.773625
v 0.000000 -0.716940 0.308733
v 0.000000 1.415357 -0.045670
v -0.515184 -1.973604 0.238113
v -0.689830 -1.973604 -0.155874
v 0.000000 -0.742041 -0.428711
v 0.000000 0.568377 -0.865127
v -0.650990 -0.158546 -0.614766
v -0.896687 -0.357517 0.104368
v -0.650990 0.655084 -0.205839
v -0.650990 0.252714 0.561401
v 0.000000 -0.376393 0.792465
v 0.000000 0.741791 0.453449
v -0.780137 -1.973604 0.325299
v -0.436846 -1.973604 0.414836
v -0.666577 -1.973604 0.430468
v -0.873129 -1.973604 -0.035493
v -0.696628 -0.402966 0.532711
v -0.478592 0.719311 0.282523
v -0.696628 -0.506558 -0.356145
v -0.478592 0.590857 -0.694200
v 0.000000 1.310121 -0.555071
v -0.473900 1.236307 -0.072812
v 0.000000 1.162494 0.409447
v -0.347414 1.181631 0.284417
v -0.347414 1.290984 -0.430040
v 0.000000 1.448490 -0.262146
v -0.205021 1.415357 -0.045670
v 0.000000 1.382224 0.170805
v -0.148245 1.390814 0.114682
v -0.148245 1.439900 -0.206023
v 0.000000 -0.462237 -0.678521
v 0.000000 -0.023760 0.890525
v -0.623255 -0.071081 0.654739
v 0.000000 -0.364757 -0.870253
v -0.762811 -1.190363 -0.015893
v -0.811040 -1.832863 0.104574
v -0.666577 -1.834380 0.430468
v -0.667060 -1.135589 0.573658
v -0.205477 -1.117988 0.673707
v -0.436846 -1.833621 0.414836
v -0.780137 -1.834380 0.325299
v -0.833844 -1.121658 0.319929
v -0.627741 -1.832863 -0.015807
v -0.331304 -1.286302 -0.142085
v -0.257948 -1.271374 0.323326
v -0.515184 -1.832863 0.238113
vn 0.8794 0.0272 0.4753
vn -0.0679 0.0000 0.9977
vn 0.3098 -0.5847 -0.7498
vn 0.9302 -0.1132 -0.3491
vn 0.9267 0.1018 0.3619
vn 0.3270 -0.2573 0.9093
vn -0.9142 0.0000 -0.4052
vn 0.0000 -1.0000 0.0000
vn -0.8763 -0.4803 -0.0375
vn 0.2653 -0.3689 -0.8908
vn 0.2961 -0.0151 0.9550
vn 0.9497 -0.1103 -0.2931
vn 0.3741 0.7319 -0.5696
vn -0.9279 -0.3434 0.1450
vn 0.6795 0.0000 0.7337
vn 0.3390 0.2735 0.9002
vn 0.1105 -0.2550 0.9606
vn 0.7866 -0.0898 0.6109
vn 0.3818 -0.0804 -0.9207
vn -0.9368 -0.3208 -0.1396
vn -0.8703 -0.4428 -0.2157
vn 0.9974 -0.0106 -0.0706
vn 0.9719 0.1118 0.2073
vn -0.8794 0.0272 0.4753
vn 0.0679 0.0000 0.9977
vn -0.3098 -0.5847 -0.7498
vn -0.9302 -0.1132 -0.3491
vn -0.9267 0.1018 0.3619
vn -0.3270 -0.2573 0.9093
vn 0.9142 0.0000 -0.4052
vn 0.8763 -0.4803 -0.0375
vn -0.2653 -0.3689 -0.8908
vn -0.2961 -0.0151 0.9550
vn -0.9497 -0.1103 -0.2931
vn -0.3741 0.7319 -0.5696
vn 0.9279 -0.3434 0.1450
vn -0.6795 0.0000 0.7337
vn -0.3390 0.2735 0.9002
vn -0.1105 -0.2550 0.9606
vn -0.7866 -0.0898 0.6109
vn -0.3818 -0.0804 -0.9207
vn 0.9368 -0.3208 -0.1396
vn 0.8703 -0.4428 -0.2157
vn -0.9974 -0.0106 -0.0706
vn -0.9719 0.1118 0.2073
vn 0.4181 -0.8098 -0.4117
vn 0.4498 -0.5247 -0.7228
vn -0.4181 -0.8098 -0.4117
vn -0.4498 -0.5247 -0.7228
vn 0.4336 0.0792 -0.8976
vn 0.8935 0.2016 -0.4012
vn 0.8818 0.4177 0.2190
vn 0.3000 0.5685 0.7661
vn 0.8940 0.3141 -0.3195
vn 0.5484 0.8336 -0.0666
vn 0.2012 0.7228 0.6611
vn 0.9184 0.2297 0.3220
vn 0.3361 0.0946 0.9371
vn 0.3112 0.3759 -0.8728
vn 0.0000 0.9885 0.1513
vn 0.5481 0.7757 0.3128
vn 0.2014 0.8871 -0.4154
vn -0.4336 0.0792 -0.8976
vn -0.8935 0.2016 -0.4012
vn -0.8818 0.4177 0.2190
vn -0.3000 0.5685 0.7661
vn -0.8940 0.3141 -0.3195
vn -0.5484 0.8336 -0.0666
vn -0.2012 0.7228 0.6611
vn -0.9184 0.2297 0.3220
vn -0.3361 0.0946 0.9371
vn -0.3112 0.3759 -0.8728
vn -0.5481 0.7757 0.3128
vn -0.2014 0.8871 -0.4154
usemtl Material
s off
f 5//1 12//1 26//1 30//1
f 25//2 28//2 9//2 10//2
f 4//3 14//3 42//3 68//3
f 1//4 5//4 14//4 4//4
f 1//5 7//5 22//5 12//5 5//5
f 69//6 48//6 12//6 22//6
f 34//7 31//7 3//7 2//7
f 2//8 3//8 11//8 8//8
f 2//8 8//8 10//8 9//8
f 38//9 42//9 32//9 33//9
f 42//10 14//10 23//10 32//10
f 12//11 48//11 27//11 26//11
f 14//12 5//12 30//12 23//12
f 31//13 24//13 11//13 3//13
f 48//14 38//14 33//14 27//14
f 28//7 34//7 2//7 9//7
f 29//15 25//15 10//15 8//15
f 37//16 69//16 22//16 7//16
f 28//17 25//17 26//17 27//17
f 25//18 29//18 30//18 26//18
f 24//19 31//19 32//19 23//19
f 34//20 28//20 27//20 33//20
f 33//21 32//21 31//21 34//21
f 29//22 24//22 23//22 30//22
f 24//23 29//23 8//23 11//23
f 45//24 79//24 75//24 54//24
f 74//25 52//25 51//25 77//25
f 44//26 68//26 42//26 56//26
f 36//27 44//27 56//27 45//27
f 36//28 45//28 54//28 70//28 47//28
f 69//29 70//29 54//29 48//29
f 83//30 40//30 41//30 80//30
f 40//8 50//8 53//8 41//8
f 40//8 51//8 52//8 50//8
f 38//31 82//31 81//31 42//31
f 42//32 81//32 72//32 56//32
f 54//33 75//33 76//33 48//33
f 56//34 72//34 79//34 45//34
f 80//35 41//35 53//35 73//35
f 48//36 76//36 82//36 38//36
f 77//30 51//30 40//30 83//30
f 78//37 50//37 52//37 74//37
f 37//38 47//38 70//38 69//38
f 77//39 76//39 75//39 74//39
f 74//40 75//40 79//40 78//40
f 73//41 72//41 81//41 80//41
f 83//42 82//42 76//42 77//42
f 82//43 83//43 80//43 81//43
f 78//44 79//44 72//44 73//44
f 73//45 53//45 50//45 78//45
usemtl skin
f 4//46 68//46 71//46
f 35//47 4//47 71//47
f 44//48 71//48 68//48
f 35//49 71//49 44//49
usemtl skirt
f 35//50 43//50 15//50 4//50
f 1//51 4//51 15//51 6//51
f 1//52 6//52 13//52 7//52
f 37//53 7//53 13//53 49//53
f 6//54 15//54 18//54 16//54
f 16//55 18//55 21//55 19//55
f 60//56 17//56 20//56 65//56
f 13//57 6//57 16//57 17//57
f 49//58 13//58 17//58 60//58
f 15//59 43//59 58//59 18//59
f 39//60 19//60 21//60 63//60
f 39//60 65//60 20//60 19//60
f 17//61 16//61 19//61 20//61
f 18//62 58//62 63//62 21//62
f 35//63 44//63 57//63 43//63
f 36//64 46//64 57//64 44//64
f 36//65 47//65 55//65 46//65
f 37//66 49//66 55//66 47//66
f 46//67 59//67 62//67 57//67
f 59//68 64//68 67//68 62//68
f 60//69 65//69 66//69 61//69
f 55//70 61//70 59//70 46//70
f 49//71 60//71 61//71 55//71
f 57//72 62//72 58//72 43//72
f 39//60 63//60 67//60 64//60
f 39//60 64//60 66//60 65//60
f 61//73 66//73 64//73 59//73
f 62//74 67//74 63//74 58//74
