# Blender v2.79 (sub 0) OBJ File: 'player_hero.blend'
# www.blender.org
mtllib player_body.mtl
o Circle
v -0.400802 -1.046925 0.000663
v -0.317606 -1.075981 0.144933
v -0.180367 -1.075981 0.131904
v -0.125432 -1.046925 -0.023887
v -0.210978 -1.027008 -0.152656
v -0.360871 -1.032023 -0.104868
v -0.140779 -1.081853 -0.024721
v -0.297887 -0.794850 0.092352
v -0.150090 -0.794850 0.099602
v -0.187952 -1.108888 0.118126
v -0.311647 -1.108888 0.131563
v -0.305320 -0.792993 -0.167063
v -0.331364 -0.509637 -0.066365
v -0.261388 -0.560052 0.073562
v -0.090293 -0.591183 0.084035
v -0.089307 -0.598457 -0.230133
v -0.251252 -0.519194 -0.227269
v -0.093385 -0.830035 -0.018361
v -0.172504 -0.840665 -0.131804
v -0.305341 -0.856303 0.139827
v -0.161855 -0.856303 0.136944
v -0.314669 -0.840665 -0.131964
v -0.383960 -0.830035 -0.013406
v -0.388430 -1.081853 0.001169
v -0.159654 -0.792993 -0.162944
v -0.082075 -0.792993 -0.039518
v -0.144425 -0.769151 0.105360
v -0.293189 -0.764741 0.094812
v -0.379233 -0.792993 -0.039233
v -0.220838 -1.057433 -0.144405
v -0.354996 -1.063581 -0.097809
v -0.181104 -1.141678 0.130654
v -0.311587 -1.146626 0.142776
v -0.188142 -1.195655 0.118120
v -0.311872 -1.195655 0.131934
v -0.176172 -1.195655 -0.175379
v -0.412355 -1.195655 -0.126304
v -0.263335 -1.195655 -0.245386
v -0.362884 -1.195655 -0.200675
v -0.364036 -1.195655 0.027184
v -0.185738 -1.195655 -0.082762
v -0.147894 -1.195655 -0.008016
v -0.363861 -1.148608 -0.221451
v -0.263221 -1.144792 -0.255933
v -0.353561 -1.082229 -0.181287
v -0.247459 -1.082229 -0.207484
v -0.184517 -1.141807 -0.190748
v -0.134490 -1.139910 -0.009164
v -0.167290 -1.141154 -0.098103
v -0.409630 -1.150344 -0.138532
v -0.371268 -1.148889 0.034994
v -0.394266 -1.195655 -0.054271
v -0.396654 -1.149852 -0.056480
v -0.268640 -0.472554 0.068729
v -0.126312 -0.471497 0.123137
v -0.280341 -0.364753 0.038515
v -0.113675 -0.547599 -0.260799
v -0.130737 -0.408662 -0.276361
v -0.248567 -0.393613 -0.224130
v -0.158856 -0.037795 -0.196380
v -0.138733 -0.029643 0.174308
v -0.293747 -0.243477 0.058168
v -0.137881 -0.200565 0.129242
v -0.130968 -0.357377 0.093702
v -0.144351 -0.227391 -0.233049
v -0.241670 -0.258931 -0.210178
v -0.299812 -0.252678 -0.083348
v -0.316781 -0.380525 -0.089972
v -0.275369 0.101068 0.115340
v -0.039765 -0.596701 -0.083550
v -0.275872 -0.629454 0.074849
v -0.347458 -0.630128 -0.065068
v -0.250483 -0.623024 -0.216383
v -0.289187 -0.167371 -0.043572
v -0.248266 -0.101729 -0.185689
v -0.307304 -0.077095 0.121796
v -0.227020 0.068818 -0.140358
v -0.229993 0.002877 -0.028067
v -0.241625 0.153456 -0.016612
v -0.100052 0.080589 -0.139158
v -0.083125 0.105490 0.142608
v -0.125745 0.112201 -0.101793
v -0.132791 0.129369 0.094590
v -0.143580 0.159669 -0.010699
v -0.155687 -0.142577 -0.204221
v 0.400802 -1.046925 0.000663
v 0.317606 -1.075981 0.144933
v 0.180367 -1.075981 0.131904
v 0.125432 -1.046925 -0.023887
v 0.210978 -1.027008 -0.152656
v 0.360871 -1.032023 -0.104868
v 0.140779 -1.081853 -0.024721
v 0.297887 -0.794850 0.092352
v 0.150090 -0.794850 0.099602
v 0.187952 -1.108888 0.118126
v 0.311647 -1.108888 0.131563
v 0.305320 -0.792993 -0.167063
v 0.331364 -0.509637 -0.066365
v 0.261388 -0.560052 0.073562
v 0.090293 -0.591183 0.084035
v 0.089307 -0.598457 -0.230133
v 0.251252 -0.519194 -0.227269
v 0.093385 -0.830035 -0.018361
v 0.172504 -0.840665 -0.131804
v 0.305341 -0.856303 0.139827
v 0.161855 -0.856303 0.136944
v 0.314669 -0.840665 -0.131964
v 0.383960 -0.830035 -0.013406
v 0.388430 -1.081853 0.001169
v 0.159654 -0.792993 -0.162944
v 0.082075 -0.792993 -0.039518
v 0.144425 -0.769151 0.105360
v 0.293189 -0.764741 0.094812
v 0.379233 -0.792993 -0.039233
v 0.220838 -1.057433 -0.144405
v 0.354996 -1.063581 -0.097809
v 0.181104 -1.141678 0.130654
v 0.311587 -1.146626 0.142776
v 0.188142 -1.195655 0.118120
v 0.311872 -1.195655 0.131934
v 0.176172 -1.195655 -0.175379
v 0.412355 -1.195655 -0.126304
v 0.263335 -1.195655 -0.245386
v 0.362884 -1.195655 -0.200675
v 0.364036 -1.195655 0.027184
v 0.185738 -1.195655 -0.082762
v 0.147894 -1.195655 -0.008016
v 0.363861 -1.148608 -0.221451
v 0.263221 -1.144792 -0.255933
v 0.353561 -1.082229 -0.181287
v 0.247459 -1.082229 -0.207484
v 0.184517 -1.141807 -0.190748
v 0.134490 -1.139910 -0.009164
v 0.167290 -1.141154 -0.098103
v 0.409630 -1.150344 -0.138532
v 0.371268 -1.148889 0.034994
v 0.394266 -1.195655 -0.054271
v 0.396654 -1.149852 -0.056480
v 0.268640 -0.472554 0.068729
v 0.126312 -0.471497 0.123137
v 0.280341 -0.364753 0.038515
v 0.113675 -0.547599 -0.260799
v 0.130737 -0.408662 -0.276361
v 0.248567 -0.393613 -0.224130
v 0.158856 -0.037795 -0.196380
v 0.138733 -0.029643 0.174308
v 0.293747 -0.243477 0.058168
v 0.137881 -0.200565 0.129242
v 0.130968 -0.357377 0.093702
v 0.144351 -0.227391 -0.233049
v 0.241670 -0.258931 -0.210178
v 0.299812 -0.252678 -0.083348
v 0.316781 -0.380525 -0.089972
v 0.275369 0.101068 0.115340
v 0.000000 -0.568669 0.054137
v 0.000000 -0.600969 -0.083853
v 0.000000 -0.598114 -0.214088
v 0.000000 -0.462050 0.111959
v 0.000000 -0.559578 -0.262271
v 0.000000 -0.412705 -0.292967
v 0.000000 -0.036638 0.195150
v 0.000000 -0.065113 -0.233143
v 0.000000 -0.353542 0.110481
v 0.000000 -0.198915 0.146286
v 0.000000 -0.225088 -0.253750
v 0.039765 -0.596701 -0.083550
v 0.275872 -0.629454 0.074849
v 0.347458 -0.630128 -0.065068
v 0.250483 -0.623024 -0.216383
v 0.289187 -0.167371 -0.043572
v 0.248266 -0.101729 -0.185689
v 0.307304 -0.077095 0.121796
v 0.227020 0.068818 -0.140358
v 0.229993 0.002877 -0.028067
v 0.241625 0.153456 -0.016612
v 0.100052 0.080589 -0.139158
v 0.083125 0.105490 0.142608
v 0.125745 0.112201 -0.101793
v 0.132791 0.129369 0.094590
v 0.000000 0.069637 -0.013444
v 0.000000 0.096714 0.159477
v 0.000000 0.057353 -0.175728
v 0.143580 0.159669 -0.010699
v 0.155687 -0.142577 -0.204221
v 0.000000 -0.135297 -0.221053
vn 0.4586 -0.3621 -0.8115
vn 0.4290 -0.4737 -0.7691
vn 0.9457 -0.3180 -0.0663
vn 0.9868 -0.1619 0.0053
vn 0.5254 0.1755 0.8326
vn 0.5799 0.0338 0.8140
vn -0.5335 0.3095 0.7871
vn -0.4397 0.2848 0.8517
vn -0.5783 -0.1873 -0.7940
vn -0.4946 -0.2737 -0.8249
vn -0.9917 0.0978 -0.0836
vn -0.9773 0.1896 0.0941
vn 0.1513 -0.6512 -0.7436
vn -0.4679 -0.1087 -0.8770
vn -0.6100 -0.0597 -0.7901
vn -0.9888 0.1426 -0.0444
vn -0.5475 0.1625 0.8209
vn -0.5528 -0.0213 0.8330
vn -0.9977 0.0667 -0.0144
vn 0.3262 -0.3500 0.8781
vn -0.9932 -0.1083 0.0419
vn -0.6626 -0.0904 -0.7434
vn -0.4769 -0.1846 0.8593
vn 0.9583 -0.2493 -0.1397
vn 0.5801 -0.2503 0.7751
vn 0.3406 -0.1796 -0.9229
vn 0.4734 -0.1142 0.8734
vn -0.5066 0.0860 0.8578
vn 0.5227 0.2854 -0.8033
vn -0.8486 0.2519 -0.4652
vn -0.4986 -0.0924 0.8619
vn 0.6518 -0.0420 0.7572
vn 0.9792 -0.1057 -0.1727
vn -0.9872 -0.1127 0.1131
vn -0.4321 0.0042 0.9018
vn 0.6091 0.0348 0.7923
vn -0.3694 -0.6831 0.6300
vn 0.4600 -0.6977 0.5491
vn 0.6814 -0.7314 -0.0271
vn 0.9995 -0.0219 -0.0221
vn 0.6380 -0.7536 -0.1581
vn 0.9474 0.0458 -0.3166
vn 0.1335 0.1554 -0.9788
vn 0.1238 -0.6993 -0.7040
vn -0.4646 -0.7329 -0.4969
vn -0.5975 0.1399 -0.7895
vn 0.2606 0.7563 -0.6000
vn -0.5039 0.7466 -0.4342
vn 0.6928 -0.6648 -0.2793
vn 0.8440 0.1775 -0.5061
vn -0.9313 -0.0189 0.3637
vn -0.6189 -0.7422 0.2570
vn -0.6793 -0.7118 0.1787
vn -0.9834 0.1345 0.1213
vn -0.9593 0.2023 -0.1966
vn -0.7577 -0.6473 -0.0835
vn 0.5410 -0.8409 0.0139
vn 0.0000 -0.9286 -0.3711
vn 0.0000 -0.9972 0.0750
vn 0.0000 -0.8018 0.5976
vn 0.0000 -0.1052 0.9944
vn -0.1088 -0.0516 0.9927
vn -0.6598 0.0265 0.7509
vn 0.0000 -0.0494 0.9987
vn -0.2214 -0.0194 0.9750
vn -0.7778 0.0236 0.6281
vn -0.1971 -0.3887 -0.9000
vn 0.0000 -0.4414 -0.8973
vn -0.2224 0.0371 -0.9742
vn 0.0000 0.0208 -0.9998
vn -0.9896 0.0622 -0.1293
vn -0.6590 0.0666 -0.7492
vn -0.2134 -0.2578 0.9423
vn -0.2018 0.0255 0.9791
vn -0.8535 0.0086 0.5209
vn -0.8178 -0.1430 0.5574
vn -0.7116 0.2183 -0.6677
vn -0.1880 0.2653 -0.9456
vn -0.1711 0.1486 -0.9740
vn 0.0000 -0.2494 0.9684
vn 0.0000 -0.0087 0.9999
vn -0.9817 0.0623 -0.1798
vn -0.9740 0.1496 -0.1701
vn -0.6490 0.1587 -0.7440
vn 0.0000 0.1933 -0.9811
vn 0.0000 0.1478 -0.9890
vn -0.1948 0.2281 -0.9539
vn 0.0000 0.2689 -0.9631
vn -0.6458 0.4801 -0.5936
vn -0.7302 0.5097 0.4550
vn -0.9740 0.1366 -0.1805
vn -0.6468 0.7420 -0.1760
vn 0.1817 0.9792 -0.0894
vn 0.1999 0.8065 -0.5564
vn 0.0525 0.7714 0.6341
vn 0.1287 0.8661 0.4830
vn 0.1028 0.7399 -0.6648
vn 0.0000 0.7875 0.6163
vn 0.0000 0.7588 -0.6513
vn 0.0000 0.9936 -0.1128
vn -0.4586 -0.3621 -0.8115
vn -0.9868 -0.1619 0.0053
vn -0.9457 -0.3180 -0.0663
vn -0.4290 -0.4737 -0.7691
vn -0.5254 0.1755 0.8326
vn 0.4397 0.2848 0.8517
vn 0.5335 0.3095 0.7871
vn -0.5799 0.0338 0.8140
vn 0.5783 -0.1873 -0.7940
vn 0.4946 -0.2737 -0.8249
vn 0.9773 0.1896 0.0941
vn 0.9917 0.0978 -0.0836
vn -0.1513 -0.6512 -0.7436
vn 0.6100 -0.0597 -0.7901
vn 0.4679 -0.1087 -0.8770
vn 0.9888 0.1426 -0.0444
vn 0.9977 0.0667 -0.0144
vn 0.5528 -0.0213 0.8330
vn 0.5475 0.1625 0.8209
vn -0.3262 -0.3500 0.8781
vn 0.9932 -0.1083 0.0419
vn 0.6626 -0.0904 -0.7434
vn 0.4769 -0.1846 0.8593
vn -0.9583 -0.2493 -0.1397
vn -0.5801 -0.2503 0.7751
vn -0.3406 -0.1796 -0.9229
vn 0.5066 0.0860 0.8578
vn -0.4734 -0.1142 0.8734
vn 0.8486 0.2519 -0.4652
vn -0.5227 0.2854 -0.8033
vn -0.6518 -0.0420 0.7572
vn 0.4986 -0.0924 0.8619
vn -0.9792 -0.1057 -0.1727
vn 0.9872 -0.1127 0.1131
vn -0.6091 0.0348 0.7923
vn 0.4321 0.0042 0.9018
vn -0.4600 -0.6977 0.5491
vn 0.3694 -0.6831 0.6300
vn -0.9995 -0.0219 -0.0221
vn -0.6814 -0.7314 -0.0271
vn -0.9474 0.0458 -0.3166
vn -0.6380 -0.7536 -0.1581
vn -0.1335 0.1554 -0.9788
vn 0.5975 0.1399 -0.7895
vn 0.4646 -0.7329 -0.4969
vn -0.1238 -0.6993 -0.7040
vn -0.2606 0.7563 -0.6000
vn 0.5039 0.7466 -0.4342
vn -0.6928 -0.6648 -0.2793
vn -0.8440 0.1775 -0.5061
vn 0.9313 -0.0189 0.3637
vn 0.6189 -0.7422 0.2570
vn 0.6793 -0.7118 0.1787
vn 0.7577 -0.6473 -0.0835
vn 0.9593 0.2023 -0.1966
vn 0.9834 0.1345 0.1213
vn -0.5410 -0.8409 0.0139
vn 0.1088 -0.0516 0.9927
vn 0.6598 0.0265 0.7509
vn 0.2214 -0.0194 0.9750
vn 0.7778 0.0236 0.6281
vn 0.1971 -0.3887 -0.9000
vn 0.2224 0.0371 -0.9742
vn 0.6590 0.0666 -0.7492
vn 0.9896 0.0622 -0.1293
vn 0.2134 -0.2578 0.9423
vn 0.8178 -0.1430 0.5574
vn 0.8535 0.0086 0.5209
vn 0.2018 0.0255 0.9791
vn 0.7116 0.2183 -0.6677
vn 0.1711 0.1486 -0.9740
vn 0.1880 0.2653 -0.9456
vn 0.9817 0.0623 -0.1798
vn 0.6490 0.1587 -0.7440
vn 0.9740 0.1496 -0.1701
vn 0.1948 0.2281 -0.9539
vn 0.6458 0.4801 -0.5936
vn 0.7302 0.5097 0.4550
vn 0.9740 0.1366 -0.1805
vn 0.6468 0.7420 -0.1760
vn -0.1999 0.8065 -0.5564
vn -0.1817 0.9792 -0.0894
vn -0.1287 0.8661 0.4830
vn -0.0525 0.7714 0.6341
vn -0.1028 0.7399 -0.6648
usemtl base
s 1
f 19//1 25//2 26//3 18//4
f 21//5 9//6 8//7 20//8
f 22//9 12//10 25//2 19//1
f 18//4 26//3 9//6 21//5
f 20//8 8//7 29//11 23//12
f 23//12 29//11 12//10 22//9
f 16//13 73//14 17//15
f 72//16 71//17 14//18 13//19
f 73//14 72//16 13//19 17//15
f 71//17 15//20 14//18
f 1//21 23//12 22//9 6//22
f 2//23 20//8 23//12 1//21
f 4//24 18//4 21//5 3//25
f 6//22 22//9 19//1 5//26
f 3//25 21//5 20//8 2//23
f 5//26 19//1 18//4 4//24
f 8//7 9//6 27//27 28//28
f 6//22 5//26 30//29 31//30
f 3//25 2//23 11//31 10//32
f 29//11 8//7 28//28
f 9//6 26//3 27//27
f 5//26 4//24 7//33 30//29
f 4//24 3//25 10//32 7//33
f 2//23 1//21 24//34 11//31
f 1//21 6//22 31//30 24//34
f 10//32 11//31 33//35 32//36
f 32//36 33//35 35//37 34//38
f 32//36 34//38 42//39 48//40
f 48//40 42//39 41//41 49//42
f 44//43 38//44 39//45 43//46
f 46//47 44//43 43//46 45//48
f 30//29 46//47 45//48 31//30
f 7//33 48//40 49//42 30//29
f 10//32 32//36 48//40 7//33
f 36//49 47//50 49//42 41//41
f 36//49 38//44 44//43 47//50
f 47//50 46//47 30//29 49//42
f 46//47 47//50 44//43
f 51//51 40//52 35//37 33//35
f 24//34 51//51 33//35 11//31
f 52//53 53//54 50//55 37//56
f 37//56 50//55 43//46 39//45
f 40//52 51//51 53//54 52//53
f 24//34 31//30 53//54 51//51
f 43//46 50//55 45//48
f 50//55 53//54 31//30 45//48
f 70//57 16//13 157//58 156//59
f 15//20 70//57 156//59 155//60
f 15//20 155//60 158//61 55//62
f 14//18 15//20 55//62 54//63
f 55//62 158//61 163//64 64//65
f 54//63 55//62 64//65 56//66
f 157//58 16//13 57//67 159//68
f 159//68 57//67 58//69 160//70
f 17//15 13//19 68//71 59//72
f 14//18 54//63 13//19
f 56//66 68//71 13//19 54//63
f 16//13 17//15 57//67
f 57//67 17//15 59//72 58//69
f 63//73 61//74 76//75 62//76
f 75//77 60//78 85//79
f 164//80 161//81 61//74 63//73
f 67//82 74//83 75//77 66//84
f 62//76 76//75 74//83 67//82
f 85//79 60//78 162//85 185//86
f 58//69 65//87 165//88 160//70
f 56//66 62//76 67//82 68//71
f 68//71 67//82 66//84 59//72
f 163//64 164//80 63//73 64//65
f 59//72 66//84 65//87 58//69
f 64//65 63//73 62//76 56//66
f 60//78 75//77 77//89
f 76//75 61//74 69//90
f 28//28 27//27 15//20 71//17
f 26//3 25//2 16//13 70//57
f 12//10 29//11 72//16 73//14
f 29//11 28//28 71//17 72//16
f 27//27 26//3 70//57 15//20
f 25//2 12//10 73//14 16//13
f 76//75 69//90 78//91
f 75//77 74//83 78//91
f 77//89 75//77 78//91
f 79//92 77//89 78//91
f 74//83 76//75 78//91
f 69//90 79//92 78//91
f 77//89 79//92 84//93 82//94
f 69//90 61//74 81//95 83//96
f 60//78 77//89 82//94 80//97
f 61//74 161//81 181//98 81//95
f 162//85 60//78 80//97 182//99
f 79//92 69//90 83//96 84//93
f 81//95 181//98 180//100
f 182//99 80//97 180//100
f 83//96 81//95 180//100
f 84//93 83//96 180//100
f 82//94 84//93 180//100
f 80//97 82//94 180//100
f 34//38 35//37 40//52 52//53 37//56 39//45 38//44 36//49 41//41 42//39
f 65//87 85//79 185//86 165//88
f 66//84 75//77 85//79 65//87
f 104//101 103//102 111//103 110//104
f 106//105 105//106 93//107 94//108
f 107//109 104//101 110//104 97//110
f 103//102 106//105 94//108 111//103
f 105//106 108//111 114//112 93//107
f 108//111 107//109 97//110 114//112
f 101//113 102//114 169//115
f 168//116 98//117 99//118 167//119
f 169//115 102//114 98//117 168//116
f 167//119 99//118 100//120
f 86//121 91//122 107//109 108//111
f 87//123 86//121 108//111 105//106
f 89//124 88//125 106//105 103//102
f 91//122 90//126 104//101 107//109
f 88//125 87//123 105//106 106//105
f 90//126 89//124 103//102 104//101
f 93//107 113//127 112//128 94//108
f 91//122 116//129 115//130 90//126
f 88//125 95//131 96//132 87//123
f 114//112 113//127 93//107
f 94//108 112//128 111//103
f 90//126 115//130 92//133 89//124
f 89//124 92//133 95//131 88//125
f 87//123 96//132 109//134 86//121
f 86//121 109//134 116//129 91//122
f 95//131 117//135 118//136 96//132
f 117//135 119//137 120//138 118//136
f 117//135 133//139 127//140 119//137
f 133//139 134//141 126//142 127//140
f 129//143 128//144 124//145 123//146
f 131//147 130//148 128//144 129//143
f 115//130 116//129 130//148 131//147
f 92//133 115//130 134//141 133//139
f 95//131 92//133 133//139 117//135
f 121//149 126//142 134//141 132//150
f 121//149 132//150 129//143 123//146
f 132//150 134//141 115//130 131//147
f 131//147 129//143 132//150
f 136//151 118//136 120//138 125//152
f 109//134 96//132 118//136 136//151
f 137//153 122//154 135//155 138//156
f 122//154 124//145 128//144 135//155
f 125//152 137//153 138//156 136//151
f 109//134 136//151 138//156 116//129
f 128//144 130//148 135//155
f 135//155 130//148 116//129 138//156
f 166//157 156//59 157//58 101//113
f 100//120 155//60 156//59 166//157
f 100//120 140//158 158//61 155//60
f 99//118 139//159 140//158 100//120
f 140//158 149//160 163//64 158//61
f 139//159 141//161 149//160 140//158
f 157//58 159//68 142//162 101//113
f 159//68 160//70 143//163 142//162
f 102//114 144//164 153//165 98//117
f 99//118 98//117 139//159
f 141//161 139//159 98//117 153//165
f 101//113 142//162 102//114
f 142//162 143//163 144//164 102//114
f 148//166 147//167 172//168 146//169
f 171//170 184//171 145//172
f 164//80 148//166 146//169 161//81
f 152//173 151//174 171//170 170//175
f 147//167 152//173 170//175 172//168
f 184//171 185//86 162//85 145//172
f 143//163 160//70 165//88 150//176
f 141//161 153//165 152//173 147//167
f 153//165 144//164 151//174 152//173
f 163//64 149//160 148//166 164//80
f 144//164 143//163 150//176 151//174
f 149//160 141//161 147//167 148//166
f 145//172 173//177 171//170
f 172//168 154//178 146//169
f 113//127 167//119 100//120 112//128
f 111//103 166//157 101//113 110//104
f 97//110 169//115 168//116 114//112
f 114//112 168//116 167//119 113//127
f 112//128 100//120 166//157 111//103
f 110//104 101//113 169//115 97//110
f 172//168 174//179 154//178
f 171//170 174//179 170//175
f 173//177 174//179 171//170
f 175//180 174//179 173//177
f 170//175 174//179 172//168
f 154//178 174//179 175//180
f 173//177 178//181 183//182 175//180
f 154//178 179//183 177//184 146//169
f 145//172 176//185 178//181 173//177
f 146//169 177//184 181//98 161//81
f 162//85 182//99 176//185 145//172
f 175//180 183//182 179//183 154//178
f 177//184 180//100 181//98
f 182//99 180//100 176//185
f 179//183 180//100 177//184
f 183//182 180//100 179//183
f 178//181 180//100 183//182
f 176//185 180//100 178//181
f 119//137 127//140 126//142 121//149 123//146 124//145 122//154 137//153 125//152 120//138
f 150//176 165//88 185//86 184//171
f 151//174 150//176 184//171 171//170
