# Blender v2.79 (sub 0) OBJ File: 'hero-sculpt-2.blend'
# www.blender.org
mtllib player_body.mtl
o Circle
v -0.105285 -1.056503 0.035221
v -0.150896 -1.022061 -0.079023
v -0.270738 -1.025344 -0.066332
v -0.223434 -0.808221 0.104816
v -0.121810 -0.816724 0.110377
v -0.159020 -1.063427 0.137747
v -0.260611 -1.063949 0.132760
v -0.220923 -0.758219 -0.174750
v -0.248841 -0.370827 -0.060583
v -0.196172 -0.445660 0.069316
v -0.059291 -0.533803 0.076467
v -0.068106 -0.557354 -0.170952
v -0.198119 -0.373775 -0.182350
v -0.089422 -1.033851 0.027017
v -0.136650 -0.995539 -0.094128
v -0.263924 -1.039711 0.146212
v -0.148904 -1.041833 0.157496
v -0.258268 -0.995336 -0.091325
v -0.314818 -1.031445 0.025571
v -0.306136 -1.057679 0.032040
v -0.117094 -0.767510 -0.162387
v -0.076683 -0.773689 -0.031608
v -0.110927 -0.755399 0.053116
v -0.211975 -0.750687 0.045807
v -0.282662 -0.760543 -0.020621
v -0.158067 -1.092148 0.150922
v -0.257839 -1.094791 0.148243
v -0.164271 -1.135070 0.138695
v -0.252906 -1.135685 0.136568
v -0.121678 -1.134628 -0.108474
v -0.308281 -1.135462 -0.096040
v -0.177594 -1.135288 -0.167330
v -0.258983 -1.135903 -0.153618
v -0.295555 -1.136137 0.049600
v -0.117052 -1.135308 -0.031457
v -0.114793 -1.134942 0.047722
v -0.259554 -1.090778 -0.163600
v -0.175039 -1.088810 -0.176658
v -0.257905 -1.043097 -0.130412
v -0.168786 -1.041083 -0.141075
v -0.122587 -1.086945 -0.122248
v -0.101587 -1.087671 0.045337
v -0.111966 -1.084059 -0.044580
v -0.304065 -1.091341 -0.108563
v -0.303855 -1.092721 0.048727
v -0.311029 -1.135800 -0.028288
v -0.310043 -1.089536 -0.034989
v -0.265716 -0.659648 -0.036639
v -0.105104 -0.383418 -0.235423
v -0.135695 -0.919550 -0.103307
v -0.296844 -0.906690 0.012128
v -0.116110 -0.012454 -0.192830
v -0.134176 -0.069445 0.157063
v -0.247394 -0.232569 0.078678
v -0.120661 -0.227508 0.138810
v -0.086081 -0.914249 0.008643
v -0.116647 -0.246269 -0.215892
v -0.200595 -0.237889 -0.156172
v -0.257797 -0.239085 -0.057923
v -0.243877 -0.915152 -0.099383
v -0.292546 0.074509 0.112638
v -0.035368 -0.592216 -0.082485
v -0.196892 -0.523406 0.056627
v -0.244316 -0.522700 -0.053862
v -0.188227 -0.523441 -0.171849
v -0.262750 -0.152597 -0.050025
v -0.210682 -0.104536 -0.141010
v -0.295233 -0.108843 0.093202
v -0.196597 0.059254 -0.116166
v -0.250607 -0.027689 -0.013113
v -0.223139 0.145822 -0.013886
v -0.094942 0.073159 -0.148444
v -0.075498 0.095144 0.137721
v -0.121136 0.113694 -0.095771
v -0.129378 0.129940 0.086780
v -0.134195 0.150248 -0.011060
v -0.129205 -0.122346 -0.210013
v -0.077674 -0.455728 0.111247
v -0.137968 -0.936100 0.137540
v -0.243238 -0.931345 0.131764
v -0.128913 -0.830875 -0.136696
v -0.232071 -0.821548 -0.129979
v -0.085898 -0.471822 -0.212032
v -0.101785 -0.361162 0.139771
v -0.212026 -0.365630 0.080165
v -0.185695 -0.448561 -0.178028
v -0.238572 -0.445126 -0.058138
v -0.056962 -0.675684 -0.055893
v -0.205271 -0.654355 0.048509
v -0.205369 -0.657689 -0.172532
v -0.093710 -0.655813 -0.166475
v -0.086279 -0.638242 0.064263
v -0.184464 -0.394157 -0.172027
v -0.196044 -0.388340 0.067536
v -0.098059 -0.405194 -0.218231
v -0.093016 -0.388211 0.118680
v -0.231985 -0.390877 -0.059399
v 0.105285 -1.056503 0.035221
v 0.150896 -1.022061 -0.079023
v 0.270738 -1.025344 -0.066332
v 0.223434 -0.808221 0.104816
v 0.121810 -0.816724 0.110377
v 0.159020 -1.063427 0.137747
v 0.260611 -1.063949 0.132760
v 0.220923 -0.758219 -0.174750
v 0.248841 -0.370827 -0.060583
v 0.196172 -0.445660 0.069316
v 0.059291 -0.533803 0.076467
v 0.068106 -0.557354 -0.170952
v 0.198119 -0.373775 -0.182350
v 0.089422 -1.033851 0.027017
v 0.136650 -0.995539 -0.094128
v 0.263924 -1.039711 0.146212
v 0.148904 -1.041833 0.157496
v 0.258268 -0.995336 -0.091325
v 0.314818 -1.031445 0.025571
v 0.306136 -1.057679 0.032040
v 0.117094 -0.767510 -0.162387
v 0.076683 -0.773689 -0.031608
v 0.110927 -0.755399 0.053116
v 0.211975 -0.750687 0.045807
v 0.282662 -0.760543 -0.020621
v 0.158067 -1.092148 0.150922
v 0.257839 -1.094791 0.148243
v 0.164271 -1.135070 0.138695
v 0.252906 -1.135685 0.136568
v 0.121678 -1.134628 -0.108474
v 0.308281 -1.135462 -0.096040
v 0.177594 -1.135288 -0.167330
v 0.258983 -1.135903 -0.153618
v 0.295555 -1.136137 0.049600
v 0.117052 -1.135308 -0.031457
v 0.114793 -1.134942 0.047722
v 0.259554 -1.090778 -0.163600
v 0.175039 -1.088810 -0.176658
v 0.257905 -1.043097 -0.130412
v 0.168786 -1.041083 -0.141075
v 0.122587 -1.086945 -0.122248
v 0.101587 -1.087671 0.045337
v 0.111966 -1.084059 -0.044580
v 0.304065 -1.091341 -0.108563
v 0.303855 -1.092721 0.048727
v 0.311029 -1.135800 -0.028288
v 0.310043 -1.089536 -0.034989
v 0.000000 -0.455952 0.113844
v 0.265716 -0.659648 -0.036639
v 0.105104 -0.383418 -0.235423
v 0.135695 -0.919550 -0.103307
v 0.296844 -0.906690 0.012128
v 0.116110 -0.012454 -0.192830
v 0.134176 -0.069445 0.157063
v 0.247394 -0.232569 0.078678
v 0.120661 -0.227508 0.138810
v 0.086081 -0.914249 0.008643
v 0.116647 -0.246269 -0.215892
v 0.200595 -0.237889 -0.156172
v 0.257797 -0.239085 -0.057923
v 0.243877 -0.915152 -0.099383
v 0.292546 0.074509 0.112638
v 0.035368 -0.592216 -0.082485
v 0.196892 -0.523406 0.056627
v 0.244316 -0.522700 -0.053862
v 0.188227 -0.523441 -0.171849
v 0.262750 -0.152597 -0.050025
v 0.210682 -0.104536 -0.141010
v 0.295233 -0.108843 0.093202
v 0.196597 0.059254 -0.116166
v 0.250607 -0.027689 -0.013113
v 0.223139 0.145822 -0.013886
v 0.094942 0.073159 -0.148444
v 0.075498 0.095144 0.137721
v 0.121136 0.113694 -0.095771
v 0.129378 0.129940 0.086780
v 0.134195 0.150248 -0.011060
v 0.129205 -0.122346 -0.210013
v 0.000000 -0.527899 0.064803
v 0.000000 -0.593157 -0.092099
v 0.000000 -0.565378 -0.158807
v 0.077674 -0.455728 0.111247
v 0.000000 -0.387065 -0.258691
v 0.137968 -0.936100 0.137540
v 0.000000 -0.081266 0.171847
v 0.000000 -0.025804 -0.218435
v 0.243238 -0.931345 0.131764
v 0.000000 -0.225709 0.152488
v 0.000000 -0.250531 -0.238841
v -0.000000 0.080560 -0.009785
v -0.000000 0.088191 0.154225
v -0.000000 0.058882 -0.172287
v 0.000000 -0.128519 -0.234361
v 0.128913 -0.830875 -0.136696
v 0.232071 -0.821548 -0.129979
v 0.085898 -0.471822 -0.212032
v 0.000000 -0.477832 -0.225600
v 0.000000 -0.361210 0.153529
v 0.101785 -0.361162 0.139771
v 0.212026 -0.365630 0.080165
v 0.185695 -0.448561 -0.178028
v 0.238572 -0.445126 -0.058138
v 0.056962 -0.675684 -0.055893
v 0.205271 -0.654355 0.048509
v 0.205369 -0.657689 -0.172532
v 0.093710 -0.655813 -0.166475
v 0.086279 -0.638242 0.064263
v 0.184464 -0.394157 -0.172027
v 0.196044 -0.388340 0.067536
v 0.098059 -0.405194 -0.218231
v 0.000000 -0.409275 -0.239423
v 0.000000 -0.389207 0.128806
v 0.093016 -0.388211 0.118680
v 0.231985 -0.390877 -0.059399
vn 0.5369 -0.2130 -0.8163
vn 0.5155 -0.3894 -0.7633
vn 0.9877 -0.1559 -0.0048
vn 0.9979 -0.0649 0.0014
vn 0.5312 0.1250 0.8379
vn 0.5325 0.3374 0.7762
vn -0.4321 0.4523 0.7802
vn -0.5282 0.2279 0.8180
vn -0.5717 -0.0981 -0.8145
vn -0.5962 -0.2601 -0.7595
vn -0.9824 0.1654 0.0864
vn -0.9893 0.1434 0.0264
vn -0.6270 -0.0704 0.7758
vn 0.1533 -0.4876 0.8595
vn -0.1592 -0.2665 0.9506
vn -0.6969 -0.0907 0.7114
vn -0.6957 -0.3670 -0.6175
vn -0.9404 -0.3363 -0.0494
vn -0.9257 -0.3647 -0.0999
vn -0.7174 -0.2827 -0.6366
vn -0.9968 0.0183 0.0778
vn -0.9986 -0.0410 -0.0336
vn -0.5015 -0.2316 -0.8336
vn -0.8267 0.2318 -0.5127
vn -0.6579 -0.0967 0.7468
vn -0.5713 -0.1445 0.8079
vn 0.9851 -0.1614 0.0587
vn 0.9353 -0.3505 -0.0471
vn 0.4625 -0.2502 0.8506
vn 0.5363 -0.1768 0.8253
vn 0.5072 -0.3395 -0.7921
vn 0.6793 0.0254 -0.7333
vn 0.6279 0.1838 0.7562
vn -0.4276 0.4190 0.8010
vn -0.5053 0.0390 0.8621
vn 0.4753 0.0534 0.8782
vn -0.3959 -0.7083 0.5844
vn 0.3597 -0.7150 0.5994
vn 0.6640 -0.7326 0.1497
vn 0.9788 0.0388 0.2008
vn 0.6566 -0.7521 -0.0567
vn 0.9761 0.1493 -0.1576
vn 0.2834 0.1693 -0.9439
vn 0.2347 -0.6941 -0.6806
vn -0.3629 -0.7037 -0.6107
vn -0.4594 0.1820 -0.8694
vn 0.3267 0.7529 -0.5713
vn -0.4229 0.7482 -0.5112
vn 0.6839 -0.6790 -0.2668
vn 0.8806 0.1750 -0.4404
vn -0.9643 0.0354 0.2626
vn -0.6532 -0.7307 0.1982
vn -0.7223 -0.6909 0.0317
vn -0.9782 0.2005 -0.0533
vn -0.8964 0.2208 -0.3842
vn -0.7201 -0.6509 -0.2402
vn 0.6238 -0.7800 -0.0497
vn 0.1240 -0.4654 -0.8763
vn 0.0000 -0.7981 -0.6025
vn 0.0000 -0.9984 -0.0565
vn 0.0000 -0.7593 0.6507
vn -0.6922 -0.3999 0.6007
vn -0.2445 -0.4176 0.8751
vn 0.0000 -0.3300 0.9440
vn -0.2703 -0.1028 0.9572
vn -0.8035 -0.2016 0.5600
vn -0.7089 -0.3943 0.5848
vn -0.2669 -0.3480 0.8987
vn -0.9715 -0.1020 -0.2139
vn -0.7517 0.0295 -0.6588
vn 0.0000 -0.4347 -0.9006
vn -0.3238 -0.3901 -0.8619
vn -0.3620 -0.2796 -0.8892
vn 0.0000 -0.2794 -0.9602
vn -0.3878 0.0748 -0.9187
vn 0.0000 -0.0659 0.9978
vn 0.0000 -0.3369 0.9415
vn -0.2160 -0.0266 0.9760
vn -0.8938 -0.1035 0.4364
vn 0.0000 -0.0048 1.0000
vn -0.9523 -0.0049 -0.3051
vn -0.7750 0.1074 -0.6227
vn -0.4196 0.0939 -0.9028
vn -0.3519 0.3090 -0.8835
vn 0.0000 0.3113 -0.9503
vn 0.0000 0.0962 -0.9953
vn 0.5420 -0.3031 -0.7838
vn -0.4992 -0.1537 -0.8527
vn -0.5174 0.0541 -0.8540
vn 0.5601 -0.1702 -0.8107
vn -0.7849 0.4213 0.4544
vn -0.5188 0.0371 0.8540
vn 0.5242 -0.1697 0.8344
vn 0.9708 -0.2391 -0.0207
vn -0.9867 0.1357 0.0891
vn -0.9973 0.0718 -0.0101
vn -0.5887 -0.0677 -0.8054
vn -0.9239 0.1365 -0.3574
vn -0.6432 0.4319 -0.6322
vn -0.5864 0.7794 -0.2205
vn 0.1061 0.9885 -0.1077
vn 0.0894 0.8453 -0.5267
vn 0.0442 0.7036 0.7092
vn 0.0793 0.9163 0.3925
vn 0.0000 0.7040 0.7102
vn -0.0535 0.7489 -0.6605
vn 0.0000 0.7775 -0.6289
vn 0.0000 0.9954 -0.0956
vn 0.0000 0.0850 -0.9964
vn -0.2144 -0.2647 -0.9402
vn 0.0000 -0.3568 -0.9341
vn 0.0000 -0.4315 0.9021
vn -0.9975 0.0504 -0.0487
vn -0.6654 -0.0593 -0.7441
vn -0.5369 -0.2130 -0.8163
vn -0.9979 -0.0649 0.0014
vn -0.9877 -0.1559 -0.0048
vn -0.5155 -0.3894 -0.7633
vn -0.5312 0.1250 0.8379
vn 0.5282 0.2279 0.8180
vn 0.4321 0.4523 0.7802
vn -0.5325 0.3374 0.7762
vn 0.5717 -0.0981 -0.8145
vn 0.5962 -0.2601 -0.7595
vn 0.9893 0.1434 0.0264
vn 0.9824 0.1654 0.0864
vn 0.6270 -0.0704 0.7758
vn 0.6969 -0.0907 0.7114
vn 0.1592 -0.2665 0.9506
vn -0.1533 -0.4876 0.8595
vn 0.6957 -0.3670 -0.6175
vn 0.7174 -0.2827 -0.6366
vn 0.9257 -0.3647 -0.0999
vn 0.9404 -0.3363 -0.0494
vn 0.9968 0.0183 0.0778
vn 0.8267 0.2318 -0.5127
vn 0.5015 -0.2316 -0.8336
vn 0.9986 -0.0410 -0.0336
vn 0.6579 -0.0967 0.7468
vn 0.5713 -0.1445 0.8079
vn -0.9851 -0.1614 0.0587
vn -0.5363 -0.1768 0.8253
vn -0.4625 -0.2502 0.8506
vn -0.9353 -0.3505 -0.0471
vn -0.6793 0.0254 -0.7333
vn -0.5072 -0.3395 -0.7921
vn 0.4276 0.4190 0.8010
vn -0.6279 0.1838 0.7562
vn -0.4753 0.0534 0.8782
vn 0.5053 0.0390 0.8621
vn -0.3597 -0.7150 0.5994
vn 0.3959 -0.7083 0.5844
vn -0.9788 0.0388 0.2008
vn -0.6640 -0.7326 0.1497
vn -0.9761 0.1493 -0.1576
vn -0.6566 -0.7521 -0.0567
vn -0.2834 0.1693 -0.9439
vn 0.4594 0.1820 -0.8694
vn 0.3629 -0.7037 -0.6107
vn -0.2347 -0.6941 -0.6806
vn -0.3267 0.7529 -0.5713
vn 0.4229 0.7482 -0.5112
vn -0.6839 -0.6790 -0.2668
vn -0.8806 0.1750 -0.4404
vn 0.9643 0.0354 0.2626
vn 0.6532 -0.7307 0.1982
vn 0.7223 -0.6909 0.0317
vn 0.7201 -0.6509 -0.2402
vn 0.8964 0.2208 -0.3842
vn 0.9782 0.2005 -0.0533
vn -0.6238 -0.7800 -0.0497
vn -0.1240 -0.4654 -0.8763
vn 0.6922 -0.3999 0.6007
vn 0.2445 -0.4176 0.8751
vn 0.2703 -0.1028 0.9572
vn 0.2669 -0.3480 0.8987
vn 0.7089 -0.3943 0.5848
vn 0.8035 -0.2016 0.5600
vn 0.9715 -0.1020 -0.2139
vn 0.7517 0.0295 -0.6588
vn 0.3620 -0.2796 -0.8892
vn 0.3238 -0.3901 -0.8619
vn 0.3878 0.0748 -0.9187
vn 0.8938 -0.1035 0.4364
vn 0.2160 -0.0266 0.9760
vn 0.7750 0.1074 -0.6227
vn 0.9523 -0.0049 -0.3051
vn 0.4196 0.0939 -0.9028
vn 0.3519 0.3090 -0.8835
vn -0.5420 -0.3031 -0.7838
vn -0.5601 -0.1702 -0.8107
vn 0.5174 0.0541 -0.8540
vn 0.4992 -0.1537 -0.8527
vn 0.7849 0.4213 0.4544
vn 0.5188 0.0371 0.8540
vn -0.5242 -0.1697 0.8344
vn -0.9708 -0.2391 -0.0207
vn 0.5887 -0.0677 -0.8054
vn 0.9973 0.0718 -0.0101
vn 0.9867 0.1357 0.0891
vn 0.9239 0.1365 -0.3574
vn 0.6432 0.4319 -0.6322
vn 0.5864 0.7794 -0.2205
vn -0.0894 0.8453 -0.5267
vn -0.1061 0.9885 -0.1077
vn -0.0442 0.7036 0.7092
vn -0.0793 0.9163 0.3925
vn 0.0535 0.7489 -0.6605
vn 0.2144 -0.2647 -0.9402
vn 0.6654 -0.0593 -0.7441
vn 0.9975 0.0504 -0.0487
usemtl base
s 1
f 50//1 81//2 22//3 56//4
f 79//5 5//6 4//7 80//8
f 60//9 82//10 81//2 50//1
f 56//4 22//3 5//6 79//5
f 80//8 4//7 25//11 51//12
f 51//12 25//11 82//10 60//9
f 63//13 11//14 78//15 10//16
f 93//17 97//18 9//19 13//20
f 20//21 19//22 18//23 3//24
f 7//25 16//26 19//22 20//21
f 1//27 14//28 17//29 6//30
f 3//24 18//23 15//31 2//32
f 6//30 17//29 16//26 7//25
f 2//32 15//31 14//28 1//27
f 4//7 5//6 23//33 24//34
f 25//11 4//7 24//34
f 5//6 22//3 23//33
f 6//30 7//25 27//35 26//36
f 26//36 27//35 29//37 28//38
f 26//36 28//38 36//39 42//40
f 42//40 36//39 35//41 43//42
f 38//43 32//44 33//45 37//46
f 40//47 38//43 37//46 39//48
f 2//32 40//47 39//48 3//24
f 1//27 42//40 43//42 2//32
f 6//30 26//36 42//40 1//27
f 30//49 41//50 43//42 35//41
f 30//49 32//44 38//43 41//50
f 41//50 40//47 2//32 43//42
f 40//47 41//50 38//43
f 45//51 34//52 29//37 27//35
f 20//21 45//51 27//35 7//25
f 46//53 47//54 44//55 31//56
f 31//56 44//55 37//46 33//45
f 34//52 45//51 47//54 46//53
f 20//21 3//24 47//54 45//51
f 37//46 44//55 39//48
f 44//55 47//54 3//24 39//48
f 62//57 12//58 178//59 177//60
f 11//14 62//57 177//60 176//61
f 94//62 10//16 78//15 96//63
f 11//14 176//61 145//64 78//15
f 55//65 54//66 85//67 84//68
f 59//69 58//70 13//20 9//19
f 208//71 95//72 49//73 180//74
f 13//20 58//70 57//75 49//73
f 54//66 59//69 9//19 85//67
f 94//62 85//67 9//19 97//18
f 19//22 51//12 60//9 18//23
f 185//76 55//65 84//68 195//77
f 55//65 53//78 68//79 54//66
f 185//76 182//80 53//78 55//65
f 59//69 66//81 67//82 58//70
f 54//66 68//79 66//81 59//69
f 77//83 52//84 183//85 190//86
f 21//87 8//88 90//89 91//90
f 16//26 80//8 51//12 19//22
f 14//28 56//4 79//5 17//29
f 17//29 79//5 80//8 16//26
f 15//31 50//1 56//4 14//28
f 18//23 60//9 50//1 15//31
f 68//79 53//78 61//91
f 89//92 92//93 11//14 63//13
f 88//94 91//90 12//58 62//57
f 90//89 48//95 64//96 65//97
f 48//95 89//92 63//13 64//96
f 92//93 88//94 62//57 11//14
f 91//90 90//89 65//97 12//58
f 68//79 61//91 70//98
f 67//82 66//81 70//98
f 69//99 67//82 70//98
f 71//100 69//99 70//98
f 66//81 68//79 70//98
f 61//91 71//100 70//98
f 69//99 71//100 76//101 74//102
f 73//103 75//104 61//91
f 53//78 182//80 188//105 73//103
f 183//85 52//84 72//106 189//107
f 71//100 61//91 75//104 76//101
f 73//103 188//105 187//108
f 189//107 72//106 187//108
f 75//104 73//103 187//108
f 76//101 75//104 187//108
f 74//102 76//101 187//108
f 72//106 74//102 187//108
f 28//38 29//37 34//52 46//53 31//56 33//45 32//44 30//49 35//41 36//39
f 57//75 77//83 190//86 186//109
f 58//70 67//82 77//83 57//75
f 81//2 82//10 8//88 21//87
f 82//10 25//11 8//88
f 22//3 81//2 21//87
f 178//59 12//58 83//110 194//111
f 96//63 209//112 195//77 84//68
f 65//97 64//96 87//113 86//114
f 95//72 83//110 86//114 93//17
f 65//97 86//114 83//110 12//58
f 64//96 63//13 10//16 87//113
f 49//73 57//75 186//109 180//74
f 23//33 22//3 88//94 92//93
f 25//11 24//34 89//92 48//95
f 8//88 25//11 48//95 90//89
f 22//3 21//87 91//90 88//94
f 24//34 23//33 92//93 89//92
f 52//84 77//83 67//82 69//99
f 69//99 74//102 72//106
f 49//73 95//72 93//17 13//20
f 78//15 145//64 209//112 96//63
f 10//16 94//62 97//18 87//113
f 194//111 83//110 95//72 208//71
f 85//67 94//62 96//63 84//68
f 86//114 87//113 97//18 93//17
f 53//78 73//103 61//91
f 52//84 69//99 72//106
f 148//115 154//116 119//117 191//118
f 181//119 184//120 101//121 102//122
f 158//123 148//115 191//118 192//124
f 154//116 181//119 102//122 119//117
f 184//120 149//125 122//126 101//121
f 149//125 158//123 192//124 122//126
f 161//127 107//128 179//129 108//130
f 205//131 110//132 106//133 211//134
f 117//135 100//136 115//137 116//138
f 104//139 117//135 116//138 113//140
f 98//141 103//142 114//143 111//144
f 100//136 99//145 112//146 115//137
f 103//142 104//139 113//140 114//143
f 99//145 98//141 111//144 112//146
f 101//121 121//147 120//148 102//122
f 122//126 121//147 101//121
f 102//122 120//148 119//117
f 103//142 123//149 124//150 104//139
f 123//149 125//151 126//152 124//150
f 123//149 139//153 133//154 125//151
f 139//153 140//155 132//156 133//154
f 135//157 134//158 130//159 129//160
f 137//161 136//162 134//158 135//157
f 99//145 100//136 136//162 137//161
f 98//141 99//145 140//155 139//153
f 103//142 98//141 139//153 123//149
f 127//163 132//156 140//155 138//164
f 127//163 138//164 135//157 129//160
f 138//164 140//155 99//145 137//161
f 137//161 135//157 138//164
f 142//165 124//150 126//152 131//166
f 117//135 104//139 124//150 142//165
f 143//167 128//168 141//169 144//170
f 128//168 130//159 134//158 141//169
f 131//166 143//167 144//170 142//165
f 117//135 142//165 144//170 100//136
f 134//158 136//162 141//169
f 141//169 136//162 100//136 144//170
f 160//171 177//60 178//59 109//172
f 108//130 176//61 177//60 160//171
f 206//173 210//174 179//129 107//128
f 108//130 179//129 145//64 176//61
f 153//175 196//176 197//177 152//178
f 157//179 106//133 110//132 156//180
f 208//71 180//74 147//181 207//182
f 110//132 147//181 155//183 156//180
f 152//178 197//177 106//133 157//179
f 206//173 211//134 106//133 197//177
f 116//138 115//137 158//123 149//125
f 185//76 195//77 196//176 153//175
f 153//175 152//178 166//184 151//185
f 185//76 153//175 151//185 182//80
f 157//179 156//180 165//186 164//187
f 152//178 157//179 164//187 166//184
f 175//188 190//86 183//85 150//189
f 118//190 203//191 202//192 105//193
f 113//140 116//138 149//125 184//120
f 111//144 114//143 181//119 154//116
f 114//143 113//140 184//120 181//119
f 112//146 111//144 154//116 148//115
f 115//137 112//146 148//115 158//123
f 166//184 159//194 151//185
f 201//195 161//127 108//130 204//196
f 200//197 160//171 109//172 203//191
f 202//192 163//198 162//199 146//200
f 146//200 162//199 161//127 201//195
f 204//196 108//130 160//171 200//197
f 203//191 109//172 163//198 202//192
f 166//184 168//201 159//194
f 165//186 168//201 164//187
f 167//202 168//201 165//186
f 169//203 168//201 167//202
f 164//187 168//201 166//184
f 159//194 168//201 169//203
f 167//202 172//204 174//205 169//203
f 171//206 159//194 173//207
f 151//185 171//206 188//105 182//80
f 183//85 189//107 170//208 150//189
f 169//203 174//205 173//207 159//194
f 171//206 187//108 188//105
f 189//107 187//108 170//208
f 173//207 187//108 171//206
f 174//205 187//108 173//207
f 172//204 187//108 174//205
f 170//208 187//108 172//204
f 125//151 133//154 132//156 127//163 129//160 130//159 128//168 143//167 131//166 126//152
f 155//183 186//109 190//86 175//188
f 156//180 155//183 175//188 165//186
f 191//118 118//190 105//193 192//124
f 192//124 105//193 122//126
f 119//117 118//190 191//118
f 178//59 194//111 193//209 109//172
f 210//174 196//176 195//77 209//112
f 163//198 198//210 199//211 162//199
f 207//182 205//131 198//210 193//209
f 163//198 109//172 193//209 198//210
f 162//199 199//211 107//128 161//127
f 147//181 180//74 186//109 155//183
f 120//148 204//196 200//197 119//117
f 122//126 146//200 201//195 121//147
f 105//193 202//192 146//200 122//126
f 119//117 200//197 203//191 118//190
f 121//147 201//195 204//196 120//148
f 150//189 167//202 165//186 175//188
f 167//202 170//208 172//204
f 147//181 110//132 205//131 207//182
f 179//129 210//174 209//112 145//64
f 107//128 199//211 211//134 206//173
f 194//111 208//71 207//182 193//209
f 197//177 196//176 210//174 206//173
f 198//210 205//131 211//134 199//211
f 151//185 159//194 171//206
f 150//189 170//208 167//202
