# Blender v2.79 (sub 0) OBJ File: 'player_mech.blend'
# www.blender.org
mtllib player_body.mtl
o body_Cube.002
v -0.468719 -2.970221 -0.976714
v -0.545060 -2.228301 -0.969823
v -0.749304 -2.970221 0.453647
v -0.792146 -2.391079 0.441620
v -1.671229 -2.228301 -0.969823
v -1.466985 -2.970221 0.453647
v -1.424143 -2.391079 0.441620
v -0.610902 -1.132195 -0.905470
v -1.605387 -1.132195 -0.905470
v -1.747570 -2.970221 -0.976714
v -1.108145 -1.470525 -1.113423
v -0.849843 -2.970221 0.833153
v -0.880681 -2.756816 0.833153
v -1.366446 -2.970221 0.833153
v -1.335608 -2.756816 0.833153
v -1.108145 -1.124366 -1.252613
v -0.610902 -1.189959 -0.370672
v -0.778456 -1.622631 0.210951
v -1.437834 -1.622631 0.210950
v -1.605387 -1.189959 -0.370672
v -0.468719 -2.970221 0.208195
v -1.690586 -2.228301 -0.018957
v -1.747570 -2.970221 0.208195
v -1.661408 -2.994040 -1.712272
v -0.620935 -2.344404 -1.687588
v -0.554881 -2.994040 -1.712272
v -1.907264 -2.994040 -1.105451
v -0.525703 -2.228301 -0.018957
v -1.108145 -1.950518 -1.344055
v -1.811857 -2.193187 -1.143772
v -0.404432 -2.193187 -1.143772
v -0.309025 -2.994040 -1.105451
v -1.595354 -2.344404 -1.687588
v -1.108145 -2.303114 -1.903455
v -1.108145 -2.994040 -2.025140
v -1.108145 -2.001601 -1.210572
v -0.872791 -0.963807 0.015806
v -1.306962 -0.963807 0.015806
v -0.872791 -1.300524 -0.123667
v -1.306962 -1.300524 -0.123666
v -0.872791 -1.439997 -0.460383
v -1.306962 -1.439997 -0.460383
v -0.872791 -1.300524 -0.797100
v -1.306962 -1.300524 -0.797100
v -0.872791 -0.963807 -0.936572
v -1.306962 -0.963807 -0.936572
v -0.872791 -0.627091 -0.797100
v -1.306962 -0.627091 -0.797100
v -0.872791 -0.487618 -0.460383
v -1.306962 -0.487618 -0.460383
v -0.872791 -0.627091 -0.123667
v -1.306962 -0.627091 -0.123667
v -0.747305 -0.457783 -1.011172
v -0.747305 0.355902 -0.058464
v -0.747305 -0.181829 0.400799
v -1.454466 -0.457783 -1.011172
v -1.454466 0.355902 -0.058464
v -1.454466 -0.181829 0.400799
v -1.100886 0.488600 -0.171799
v -1.100886 -0.325085 -1.124507
v -0.747305 0.014101 -0.590369
v -0.747305 -0.588672 -0.075555
v -1.454466 -0.588672 -0.075555
v -1.454466 0.014101 -0.590369
v -1.100886 0.146800 -0.703703
v -0.747305 -0.830169 -0.358313
v -0.747305 -0.801919 -0.717254
v -1.454466 -0.801919 -0.717254
v -1.454466 -0.830169 -0.358313
v -1.108145 -0.684358 -1.074467
v 0.468719 -2.970221 -0.976714
v 0.545060 -2.228301 -0.969823
v 0.749304 -2.970221 0.453647
v 0.792146 -2.391079 0.441620
v 1.671229 -2.228301 -0.969823
v 1.466985 -2.970221 0.453647
v 1.424143 -2.391079 0.441620
v 0.610902 -1.132195 -0.905470
v 1.605387 -1.132195 -0.905470
v 1.747570 -2.970221 -0.976714
v 1.108145 -1.470525 -1.113423
v 0.849843 -2.970221 0.833153
v 0.880681 -2.756816 0.833153
v 1.366446 -2.970221 0.833153
v 1.335608 -2.756816 0.833153
v 1.108145 -1.124366 -1.252613
v 0.610902 -1.189959 -0.370672
v 0.778456 -1.622631 0.210951
v 1.437834 -1.622631 0.210950
v 1.605387 -1.189959 -0.370672
v 0.468719 -2.970221 0.208195
v 1.690586 -2.228301 -0.018957
v 1.747570 -2.970221 0.208195
v 1.661408 -2.994040 -1.712272
v 0.620935 -2.344404 -1.687588
v 0.554881 -2.994040 -1.712272
v 1.907264 -2.994040 -1.105451
v 0.525703 -2.228301 -0.018957
v 1.108145 -1.950518 -1.344055
v 1.811857 -2.193187 -1.143772
v 0.404432 -2.193187 -1.143772
v 0.309025 -2.994040 -1.105451
v 1.595354 -2.344404 -1.687588
v 1.108145 -2.303114 -1.903455
v 1.108145 -2.994040 -2.025140
v 1.108145 -2.001601 -1.210572
v 0.872791 -0.963807 0.015806
v 1.306962 -0.963807 0.015806
v 0.872791 -1.300524 -0.123667
v 1.306962 -1.300524 -0.123666
v 0.872791 -1.439997 -0.460383
v 1.306962 -1.439997 -0.460383
v 0.872791 -1.300524 -0.797100
v 1.306962 -1.300524 -0.797100
v 0.872791 -0.963807 -0.936572
v 1.306962 -0.963807 -0.936572
v 0.872791 -0.627091 -0.797100
v 1.306962 -0.627091 -0.797100
v 0.872791 -0.487618 -0.460383
v 1.306962 -0.487618 -0.460383
v 0.872791 -0.627091 -0.123667
v 1.306962 -0.627091 -0.123667
v 0.747305 -0.457783 -1.011172
v 0.747305 0.355902 -0.058464
v 0.747305 -0.181829 0.400799
v 1.454466 -0.457783 -1.011172
v 1.454466 0.355902 -0.058464
v 1.454466 -0.181829 0.400799
v 1.100886 0.488600 -0.171799
v 1.100886 -0.325085 -1.124507
v 0.747305 0.014101 -0.590369
v 0.747305 -0.588672 -0.075555
v 1.454466 -0.588672 -0.075555
v 1.454466 0.014101 -0.590369
v 1.100886 0.146800 -0.703703
v 0.747305 -0.830169 -0.358313
v 0.747305 -0.801919 -0.717254
v 1.454466 -0.801919 -0.717254
v 1.454466 -0.830169 -0.358313
v 1.108145 -0.684358 -1.074467
vn 0.9975 0.0692 -0.0103
vn 0.5468 0.3142 -0.7761
vn -0.8655 0.1844 0.4658
vn -0.3780 0.1066 -0.9197
vn -0.0000 0.2875 0.9578
vn -0.5402 -0.3140 -0.7808
vn 0.5402 -0.3140 -0.7808
vn 0.8655 0.1844 0.4658
vn -0.9975 0.0692 -0.0103
vn 0.3519 0.8234 -0.4451
vn 0.4536 0.1188 -0.8833
vn -0.3519 0.8234 -0.4451
vn -0.9188 0.0987 -0.3822
vn 0.9188 0.0987 -0.3822
vn -0.4536 0.1188 -0.8833
vn 0.2144 0.9106 0.3534
vn -0.2144 0.9106 0.3534
vn -0.7051 0.0928 0.7030
vn 0.7051 0.0928 0.7030
vn 0.3780 0.1066 -0.9197
vn 1.0000 -0.0000 0.0000
vn 0.0000 -0.7604 0.6494
vn -1.0000 0.0000 0.0000
vn 0.4393 0.7558 -0.4856
vn 0.0000 0.6494 0.7604
vn -0.4393 0.7558 -0.4856
vn -0.4393 0.5979 -0.6705
vn 0.4393 0.5979 -0.6705
vn 0.0000 -0.6494 -0.7604
vn 0.0000 -0.9969 -0.0785
vn -0.5468 0.3142 -0.7761
vn 0.7594 0.1710 0.6278
vn 0.0000 0.7308 0.6826
vn 0.0000 -1.0000 -0.0000
vn 0.0000 0.0000 1.0000
vn 0.9559 0.0931 0.2786
vn -0.9559 0.0931 0.2786
vn -0.0000 0.8023 0.5969
vn 0.0000 0.9942 0.1074
vn -0.7594 0.1710 0.6278
vn 0.9961 0.0882 -0.0090
vn -0.9961 0.0882 -0.0090
vn 0.0000 -0.9833 0.1819
vn 0.0000 -0.3827 0.9239
vn 0.0000 -0.9239 0.3827
vn -0.0000 -0.9239 -0.3827
vn -0.0000 -0.3827 -0.9239
vn -0.0000 0.3827 -0.9239
vn -0.0000 0.9239 -0.3827
vn 0.0000 0.9239 0.3827
vn 0.0000 0.3827 0.9239
vn 0.0000 0.3531 0.9356
usemtl red
s off
f 28//1 2//1 8//1 17//1
f 8//2 16//2 70//2
f 22//3 7//3 19//3 20//3
f 5//4 9//4 11//4 36//4
f 7//5 4//5 18//5 19//5
f 11//6 9//6 16//6
f 8//7 11//7 16//7
f 4//8 28//8 17//8 18//8
f 5//9 22//9 20//9 9//9
f 29//10 31//10 25//10 34//10
f 34//11 25//11 26//11 35//11
f 30//12 29//12 34//12 33//12
f 27//13 30//13 33//13 24//13
f 31//14 32//14 26//14 25//14
f 24//15 33//15 34//15 35//15
f 2//16 31//16 29//16 36//16
f 36//17 29//17 30//17 5//17
f 5//18 30//18 27//18 10//18
f 1//19 32//19 31//19 2//19
f 8//20 2//20 36//20 11//20
f 61//21 54//21 55//21 62//21
f 62//22 55//22 58//22 63//22
f 63//23 58//23 57//23 64//23
f 65//24 59//24 54//24 61//24
f 68//23 69//23 63//23 64//23 56//23
f 58//25 55//25 54//25 59//25 57//25
f 64//26 57//26 59//26 65//26
f 56//27 64//27 65//27 60//27
f 60//28 65//28 61//28 53//28
f 67//29 68//29 56//29 60//29 53//29
f 66//22 62//22 63//22 69//22
f 68//30 67//30 66//30 69//30
f 53//21 61//21 62//21 66//21 67//21
f 16//31 9//31 70//31
f 98//9 87//9 78//9 72//9
f 78//31 140//31 86//31
f 92//8 90//8 89//8 77//8
f 75//20 106//20 81//20 79//20
f 77//5 89//5 88//5 74//5
f 81//7 86//7 79//7
f 78//6 86//6 81//6
f 74//3 88//3 87//3 98//3
f 75//1 79//1 90//1 92//1
f 99//12 104//12 95//12 101//12
f 104//15 105//15 96//15 95//15
f 100//10 103//10 104//10 99//10
f 97//14 94//14 103//14 100//14
f 101//13 95//13 96//13 102//13
f 94//11 105//11 104//11 103//11
f 72//17 106//17 99//17 101//17
f 106//16 75//16 100//16 99//16
f 75//19 80//19 97//19 100//19
f 71//18 72//18 101//18 102//18
f 78//4 81//4 106//4 72//4
f 131//23 132//23 125//23 124//23
f 132//22 133//22 128//22 125//22
f 133//21 134//21 127//21 128//21
f 135//26 131//26 124//26 129//26
f 138//21 126//21 134//21 133//21 139//21
f 128//25 127//25 129//25 124//25 125//25
f 134//24 135//24 129//24 127//24
f 126//28 130//28 135//28 134//28
f 130//27 123//27 131//27 135//27
f 137//29 123//29 130//29 126//29 138//29
f 136//22 139//22 133//22 132//22
f 138//30 139//30 136//30 137//30
f 123//23 137//23 136//23 132//23 131//23
f 86//2 140//2 79//2
usemtl gray
f 21//32 28//32 4//32 3//32
f 4//33 7//33 15//33 13//33
f 27//34 24//34 35//34
f 21//34 23//34 10//34 1//34
f 12//35 13//35 15//35 14//35
f 3//36 4//36 13//36 12//36
f 7//37 6//37 14//37 15//37
f 6//34 3//34 12//34 14//34
f 17//38 20//38 19//38 18//38
f 20//39 17//39 8//39 9//39
f 3//34 6//34 23//34 21//34
f 6//40 7//40 22//40 23//40
f 26//34 32//34 35//34
f 32//34 27//34 35//34
f 21//41 1//41 2//41 28//41
f 22//42 5//42 10//42 23//42
f 10//43 27//43 32//43 1//43
f 37//44 38//44 40//44 39//44
f 39//45 40//45 42//45 41//45
f 41//46 42//46 44//46 43//46
f 43//47 44//47 46//47 45//47
f 45//48 46//48 48//48 47//48
f 47//49 48//49 50//49 49//49
f 40//23 38//23 52//23 50//23 48//23 46//23 44//23 42//23
f 49//50 50//50 52//50 51//50
f 51//51 52//51 38//51 37//51
f 37//21 39//21 41//21 43//21 45//21 47//21 49//21 51//21
f 9//52 8//52 70//52
f 91//40 73//40 74//40 98//40
f 74//33 83//33 85//33 77//33
f 97//34 105//34 94//34
f 91//34 71//34 80//34 93//34
f 82//35 84//35 85//35 83//35
f 73//37 82//37 83//37 74//37
f 77//36 85//36 84//36 76//36
f 76//34 84//34 82//34 73//34
f 87//38 88//38 89//38 90//38
f 90//39 79//39 78//39 87//39
f 73//34 91//34 93//34 76//34
f 76//32 93//32 92//32 77//32
f 96//34 105//34 102//34
f 102//34 105//34 97//34
f 91//42 98//42 72//42 71//42
f 92//41 93//41 80//41 75//41
f 80//43 71//43 102//43 97//43
f 107//44 109//44 110//44 108//44
f 109//45 111//45 112//45 110//45
f 111//46 113//46 114//46 112//46
f 113//47 115//47 116//47 114//47
f 115//48 117//48 118//48 116//48
f 117//49 119//49 120//49 118//49
f 110//21 112//21 114//21 116//21 118//21 120//21 122//21 108//21
f 119//50 121//50 122//50 120//50
f 121//51 107//51 108//51 122//51
f 107//23 121//23 119//23 117//23 115//23 113//23 111//23 109//23
f 79//52 140//52 78//52
