# Blender v2.79 (sub 0) OBJ File: 'tile--wall-x.blend'
# www.blender.org
mtllib tile--wall-x.mtl
o Cube_Cube.001
v -1.999998 -8.000000 -20.000000
v -1.999998 8.000000 -20.000000
v 2.000000 -8.000000 -20.000000
v 2.000000 8.000000 -20.000000
v -2.000000 -8.000000 20.000000
v -2.000000 8.000000 20.000000
v 1.999998 -8.000000 20.000000
v 1.999998 8.000000 20.000000
vt 0.250025 0.000050
vt 0.250025 0.999950
vt 0.000050 0.999950
vt 0.000050 0.000050
vt 1.094672 0.000955
vt 1.094672 0.990755
vt -1.379828 0.990755
vt -1.379828 0.000955
vt 0.250024 0.000050
vt 0.250025 0.999950
vt 0.000050 0.999950
vt 0.000050 0.000050
vt -1.379828 0.990755
vt -1.379828 0.000955
vt 1.094672 0.000955
vt 1.094672 0.990755
vt 0.999968 0.100025
vt 0.000032 0.100025
vt 0.000032 0.000032
vt 0.999968 0.000032
vt 0.000032 0.000032
vt 0.999968 0.000032
vt 0.999968 0.100025
vt 0.000032 0.100025
vn 0.0000 0.0000 -1.0000
vn 1.0000 0.0000 0.0000
vn 0.0000 0.0000 1.0000
vn -1.0000 0.0000 -0.0000
vn 0.0000 -1.0000 -0.0000
vn 0.0000 1.0000 -0.0000
usemtl Material
s off
f 1/1/1 2/2/1 4/3/1 3/4/1
f 3/5/2 4/6/2 8/7/2 7/8/2
f 7/9/3 8/10/3 6/11/3 5/12/3
f 5/13/4 6/14/4 2/15/4 1/16/4
f 3/17/5 7/18/5 5/19/5 1/20/5
f 8/21/6 4/22/6 2/23/6 6/24/6
