# Blender v2.79 (sub 0) OBJ File: 'box-lg.blend'
# www.blender.org
mtllib tile_box-lg.mtl
o Cube
v 8.000000 -6.903213 -6.903212
v 6.903213 -8.000000 -6.903213
v 6.903213 -6.903213 -8.000000
v 7.853474 -7.450887 -6.903213
v 7.853473 -6.903213 -7.450887
v 7.711142 -7.427709 -7.427709
v 6.903213 -7.853474 -7.450887
v 7.450887 -7.853473 -6.903213
v 7.427709 -7.711142 -7.427709
v 7.450887 -6.903213 -7.853474
v 6.903213 -7.450887 -7.853474
v 7.427709 -7.427709 -7.711142
v 8.000000 -6.903213 6.903213
v 6.903212 -6.903213 8.000000
v 6.903213 -8.000000 6.903213
v 7.853473 -6.903213 7.450888
v 7.853473 -7.450887 6.903214
v 7.711141 -7.427709 7.427710
v 6.903212 -7.450887 7.853474
v 7.450886 -6.903213 7.853474
v 7.427708 -7.427709 7.711143
v 7.450886 -7.853474 6.903214
v 6.903212 -7.853473 7.450888
v 7.427708 -7.711142 7.427710
v -6.903214 -6.903213 7.999998
v -8.000001 -6.903213 6.903211
v -6.903213 -8.000000 6.903211
v -7.450888 -6.903213 7.853472
v -6.903213 -7.450887 7.853471
v -7.427710 -7.427709 7.711140
v -7.853474 -7.450887 6.903211
v -7.853474 -6.903213 7.450885
v -7.711143 -7.427709 7.427707
v -6.903213 -7.853474 7.450885
v -7.450887 -7.853473 6.903211
v -7.427710 -7.711142 7.427707
v -6.903209 -6.903213 -8.000003
v -6.903209 -8.000000 -6.903215
v -7.999997 -6.903213 -6.903215
v -6.903208 -7.450887 -7.853477
v -7.450882 -6.903213 -7.853477
v -7.427705 -7.427709 -7.711145
v -7.450883 -7.853474 -6.903216
v -6.903209 -7.853473 -7.450890
v -7.427705 -7.711142 -7.427712
v -7.853469 -6.903213 -7.450890
v -7.853469 -7.450887 -6.903216
v -7.711138 -7.427709 -7.427712
v 6.903216 6.903213 -7.999997
v 6.903216 8.000000 -6.903209
v 8.000003 6.903213 -6.903209
v 6.903216 7.450887 -7.853471
v 7.450890 6.903213 -7.853470
v 7.427712 7.427709 -7.711139
v 7.450890 7.853474 -6.903209
v 6.903216 7.853473 -7.450884
v 7.427712 7.711142 -7.427706
v 7.853477 6.903213 -7.450883
v 7.853477 7.450887 -6.903209
v 7.711145 7.427709 -7.427706
v 6.903208 6.903213 8.000004
v 7.999996 6.903213 6.903217
v 6.903208 8.000000 6.903217
v 7.450882 6.903213 7.853478
v 6.903208 7.450887 7.853478
v 7.427704 7.427709 7.711147
v 7.853469 7.450887 6.903217
v 7.853469 6.903213 7.450891
v 7.711137 7.427709 7.427714
v 6.903208 7.853474 7.450891
v 7.450882 7.853473 6.903217
v 7.427704 7.711142 7.427714
v -8.000003 6.903213 6.903210
v -6.903215 6.903213 7.999998
v -6.903215 8.000000 6.903210
v -7.853477 6.903213 7.450884
v -7.853477 7.450887 6.903210
v -7.711145 7.427709 7.427706
v -6.903216 7.450887 7.853471
v -7.450890 6.903213 7.853471
v -7.427712 7.427709 7.711139
v -7.450890 7.853474 6.903210
v -6.903216 7.853473 7.450884
v -7.427712 7.711142 7.427706
v -8.000000 6.903213 -6.903213
v -6.903212 8.000000 -6.903213
v -6.903212 6.903213 -8.000000
v -7.853473 7.450887 -6.903213
v -7.853473 6.903213 -7.450887
v -7.711141 7.427709 -7.427709
v -6.903212 7.853474 -7.450887
v -7.450886 7.853473 -6.903213
v -7.427708 7.711142 -7.427709
v -7.450886 6.903213 -7.853473
v -6.903212 7.450887 -7.853473
v -7.427708 7.427709 -7.711142
vt 1.930934 1.069067
vt 1.930934 1.930934
vt 1.069067 1.930934
vt 1.069067 1.069067
vt 1.930934 0.930934
vt 1.069067 0.930934
vt 1.069067 0.069066
vt 1.930934 0.069067
vt 2.069067 0.930934
vt 2.069067 0.069066
vt 2.930934 0.069066
vt 2.930934 0.930934
vt 0.930934 0.930934
vt 0.069067 0.930934
vt 0.069066 0.069067
vt 0.930933 0.069066
vt 0.930934 2.069067
vt 0.930933 2.930933
vt 0.069066 2.930934
vt 0.069066 2.069067
vt 0.930934 1.069067
vt 0.930933 1.930934
vt 0.069066 1.930934
vt 0.069067 1.069067
vt 0.951606 0.048394
vt 0.951606 -0.225443
vt 1.213855 -0.213855
vt 1.225443 0.048394
vt 0.426737 0.951606
vt 0.225443 0.951607
vt 0.213855 1.213855
vt 0.355571 1.213855
vt 0.951606 0.951606
vt 0.951606 1.225444
vt 1.213855 1.213855
vt 1.225443 0.951607
vt 0.951606 0.573263
vt 0.951606 0.774557
vt 1.213855 0.786145
vt 1.213855 0.644429
vt 0.951606 0.048394
vt 1.225443 0.048394
vt 1.213855 -0.213855
vt 0.951606 -0.225443
vt 0.426737 0.048394
vt 0.225443 0.048394
vt 0.213855 -0.213855
vt 0.355571 -0.213855
vt 0.355571 0.213855
vt 0.213855 0.213855
vt 0.213855 0.355571
vt 0.048393 0.048394
vt -0.225444 0.048394
vt -0.213855 -0.213855
vt 0.048393 -0.225443
vt 0.426736 0.048394
vt 0.225443 0.048394
vt 0.213854 -0.213855
vt 0.355571 -0.213855
vt 0.951606 0.048394
vt 0.951606 -0.225443
vt 1.213854 -0.213855
vt 1.225443 0.048394
vt 0.951606 0.774557
vt 0.951606 0.573263
vt 1.213854 0.644429
vt 1.213854 0.786145
vt 0.951606 0.048394
vt 1.225443 0.048393
vt 1.213854 -0.213855
vt 0.951606 -0.225444
vt 0.048393 0.573263
vt 0.048393 0.774557
vt -0.213855 0.786145
vt -0.213855 0.644429
vt 0.355571 0.786145
vt 0.213854 0.786145
vt 0.213854 0.644429
vt 0.048393 0.048394
vt -0.225444 0.048394
vt -0.213855 -0.213855
vt 0.048393 -0.225443
vt 0.573264 0.048394
vt 0.774558 0.048394
vt 0.786146 -0.213855
vt 0.644430 -0.213855
vt 0.048395 0.048394
vt 0.048395 -0.225443
vt -0.213854 -0.213855
vt -0.225442 0.048394
vt 0.573263 0.048395
vt 0.774557 0.048395
vt 0.786145 -0.213854
vt 0.644429 -0.213854
vt 0.048393 0.048395
vt 0.048393 -0.225442
vt -0.213855 -0.213854
vt -0.225443 0.048395
vt 0.048393 0.573263
vt 0.048393 0.774557
vt -0.213855 0.786145
vt -0.213855 0.644429
vt 0.786145 0.644430
vt 0.644429 0.786146
vt 0.786145 0.786146
vt 0.048396 0.048394
vt 0.048396 -0.225443
vt -0.213852 -0.213855
vt -0.225441 0.048394
vt 0.048396 0.774557
vt 0.048396 0.573263
vt -0.213852 0.644429
vt -0.213852 0.786145
vt 0.048395 0.951608
vt -0.225441 0.951608
vt -0.213852 1.213856
vt 0.048396 1.225445
vt 0.951608 0.573263
vt 0.951608 0.774557
vt 1.213856 0.786145
vt 1.213856 0.644429
vt 0.951608 0.048394
vt 1.225445 0.048394
vt 1.213856 -0.213855
vt 0.951608 -0.225443
vt 0.573265 0.048394
vt 0.774559 0.048394
vt 0.786148 -0.213855
vt 0.644431 -0.213855
vt 0.786148 0.355573
vt 0.786148 0.213856
vt 0.644431 0.213856
vt 0.951608 0.951606
vt 0.951608 1.225443
vt 1.213856 1.213855
vt 1.225445 0.951606
vt 0.951608 0.426735
vt 0.951608 0.225442
vt 1.213856 0.213853
vt 1.213856 0.355569
vt 0.951608 0.951605
vt 1.225445 0.951605
vt 1.213856 1.213853
vt 0.951608 1.225442
vt 0.951605 0.426737
vt 0.951604 0.225443
vt 1.213853 0.213855
vt 1.213853 0.355571
vt 0.951604 0.951606
vt 1.225442 0.951606
vt 1.213853 1.213855
vt 0.951604 1.225443
vt 0.225442 0.951606
vt 0.426735 0.951606
vt 0.355569 1.213855
vt 0.213853 1.213855
vt 0.213856 0.355569
vt 0.213856 0.213853
vt 0.355573 0.213853
vt 0.951604 0.951606
vt 1.225441 0.951606
vt 1.213852 1.213855
vt 0.951604 1.225443
vt 0.225441 0.951606
vt 0.426734 0.951606
vt 0.355569 1.213855
vt 0.213852 1.213855
vt 0.048392 0.951606
vt 0.048391 1.225443
vt -0.213857 1.213855
vt -0.225446 0.951606
vt 0.426734 0.048391
vt 0.225441 0.048391
vt 0.213852 -0.213857
vt 0.355569 -0.213857
vt 0.951604 0.048392
vt 0.951604 -0.225446
vt 1.213852 -0.213857
vt 1.225441 0.048391
vt 0.951604 0.426737
vt 0.951604 0.225443
vt 1.213852 0.213855
vt 1.213852 0.355571
vt 0.213852 0.644427
vt 0.355569 0.786143
vt 0.213852 0.786143
vt 0.048395 0.951606
vt -0.225442 0.951606
vt -0.213853 1.213855
vt 0.048395 1.225443
vt 0.774558 0.951606
vt 0.573265 0.951606
vt 0.644430 1.213855
vt 0.786147 1.213855
vt 0.048392 0.951606
vt 0.048392 1.225443
vt -0.213856 1.213855
vt -0.225445 0.951606
vt 0.048392 0.573265
vt 0.048392 0.774558
vt -0.213856 0.786147
vt -0.213856 0.644430
vt 0.048392 0.048395
vt -0.225445 0.048395
vt -0.213856 -0.213853
vt 0.048392 -0.225442
vt 0.048395 0.426737
vt 0.048395 0.225443
vt -0.213853 0.213855
vt -0.213853 0.355571
vt 0.644427 0.786147
vt 0.786144 0.644430
vt 0.786144 0.786147
vt 0.951606 0.951606
vt 0.951607 1.225443
vt 1.213855 1.213855
vt 1.225443 0.951606
vt 0.573264 0.951607
vt 0.774557 0.951607
vt 0.786146 1.213855
vt 0.644429 1.213855
vt 0.048394 0.951606
vt 0.048394 1.225443
vt -0.213854 1.213855
vt -0.225443 0.951607
vt 0.048394 0.426737
vt 0.048394 0.225443
vt -0.213854 0.213855
vt -0.213854 0.355571
vt 0.048394 0.951606
vt -0.225443 0.951606
vt -0.213854 1.213855
vt 0.048394 1.225443
vt 0.774557 0.951606
vt 0.573264 0.951606
vt 0.786146 1.213855
vt 0.644429 0.213855
vt 0.786146 0.213855
vt 0.786146 0.355571
vt -5.951607 0.048394
vt -5.951607 -0.225443
vt 0.426736 -5.951607
vt 0.225443 -5.951607
vt -0.048394 -5.951606
vt -0.048394 0.951606
vt -5.951605 0.951608
vt -5.951604 1.225445
vt -5.951604 0.573263
vt -5.951604 0.774557
vt -5.951604 1.048394
vt 0.951606 1.048394
vt 0.951608 6.951606
vt 1.225445 6.951606
vt 0.426735 6.951606
vt 0.225442 6.951606
vt -0.048396 6.951606
vt -0.048394 0.048394
vt -5.951607 0.048394
vt -5.951607 -0.225443
vt -5.951607 0.774557
vt -5.951607 0.573263
vt 0.951606 0.774556
vt -5.951607 0.774558
vt -5.951607 1.048395
vt 0.951606 1.048394
vt 0.048392 6.951606
vt -0.225446 6.951606
vt 0.426734 6.951606
vt 0.225441 6.951606
vt -0.048396 6.951606
vt -0.048394 0.048394
vt 6.951608 0.048394
vt 6.951608 -0.225443
vt 0.573265 6.951608
vt 0.774559 6.951608
vt 1.048395 6.951608
vt 1.048393 0.048395
vt 0.048392 6.951606
vt -0.225445 6.951606
vt 0.573265 6.951606
vt 0.774558 6.951606
vt 1.048395 6.951606
vt 1.048395 0.048394
vt 0.951606 6.951606
vt 1.225443 6.951606
vt 0.573264 6.951606
vt 0.774557 6.951606
vt 1.048394 6.951606
vt 1.048396 0.048394
vt 0.951604 -5.951609
vt 1.225441 -5.951609
vt 0.225445 0.951605
vt 0.225441 -5.951609
vt 0.426734 -5.951609
vt 0.426738 0.951604
vt -5.951609 0.225443
vt -5.951609 -0.048394
vt 0.951604 -0.048394
vt -5.951606 0.951606
vt -5.951606 1.225443
vt -5.951606 0.426737
vt -5.951606 0.225443
vt -5.951606 -0.048394
vt 0.951608 -0.048395
vt -5.951608 0.048395
vt -5.951608 -0.225442
vt -5.951608 0.426737
vt -5.951608 0.225443
vt -5.951608 -0.048394
vt 0.951604 -0.048394
vt 0.048394 6.951606
vt -0.225443 6.951607
vt 6.951607 0.426737
vt 6.951607 0.225443
vt 6.951606 -0.048394
vt 0.048395 -0.048394
vn 0.0000 0.0000 -1.0000
vn 0.0000 -1.0000 0.0000
vn -1.0000 -0.0000 -0.0000
vn 0.0000 1.0000 0.0000
vn -0.0000 -0.0000 1.0000
vn 1.0000 0.0000 0.0000
vn 0.9831 -0.1296 -0.1296
vn 0.8623 -0.4915 -0.1216
vn 0.7744 -0.4473 -0.4473
vn 0.8623 -0.1216 -0.4915
vn 0.4915 -0.8623 -0.1216
vn 0.4473 -0.7744 -0.4473
vn 0.1296 -0.9831 -0.1296
vn 0.1216 -0.8623 -0.4915
vn 0.1216 -0.4915 -0.8623
vn 0.4473 -0.4473 -0.7744
vn 0.1296 -0.1296 -0.9831
vn 0.4915 -0.1216 -0.8623
vn 0.9831 -0.1296 0.1296
vn 0.8623 -0.1216 0.4915
vn 0.7744 -0.4473 0.4473
vn 0.8623 -0.4915 0.1216
vn 0.4915 -0.1216 0.8623
vn 0.4473 -0.4473 0.7744
vn 0.1296 -0.1296 0.9831
vn 0.1216 -0.4915 0.8623
vn 0.1216 -0.8623 0.4915
vn 0.4473 -0.7744 0.4473
vn 0.1296 -0.9831 0.1296
vn 0.4915 -0.8623 0.1216
vn -0.1296 -0.1296 0.9830
vn -0.4915 -0.1216 0.8623
vn -0.4473 -0.4473 0.7744
vn -0.1216 -0.4915 0.8623
vn -0.8623 -0.1216 0.4915
vn -0.7744 -0.4473 0.4473
vn -0.9831 -0.1296 0.1296
vn -0.8623 -0.4915 0.1216
vn -0.4915 -0.8623 0.1216
vn -0.4473 -0.7744 0.4473
vn -0.1296 -0.9831 0.1296
vn -0.1216 -0.8623 0.4915
vn -0.1296 -0.1296 -0.9831
vn -0.1216 -0.4915 -0.8623
vn -0.4473 -0.4473 -0.7744
vn -0.4915 -0.1216 -0.8623
vn -0.1216 -0.8623 -0.4915
vn -0.4473 -0.7744 -0.4473
vn -0.1296 -0.9831 -0.1296
vn -0.4915 -0.8623 -0.1216
vn -0.8623 -0.4915 -0.1216
vn -0.7744 -0.4473 -0.4473
vn -0.9831 -0.1296 -0.1296
vn -0.8623 -0.1216 -0.4915
vn 0.1296 0.1296 -0.9831
vn 0.1216 0.4915 -0.8623
vn 0.4473 0.4473 -0.7744
vn 0.4915 0.1216 -0.8623
vn 0.1216 0.8623 -0.4915
vn 0.4473 0.7744 -0.4473
vn 0.1296 0.9831 -0.1296
vn 0.4915 0.8623 -0.1216
vn 0.8623 0.4915 -0.1216
vn 0.7744 0.4473 -0.4473
vn 0.9831 0.1296 -0.1296
vn 0.8623 0.1216 -0.4915
vn 0.1296 0.1296 0.9831
vn 0.4915 0.1216 0.8623
vn 0.4473 0.4473 0.7744
vn 0.1216 0.4915 0.8623
vn 0.8623 0.1216 0.4915
vn 0.7744 0.4473 0.4473
vn 0.9831 0.1296 0.1296
vn 0.8623 0.4915 0.1216
vn 0.4915 0.8623 0.1216
vn 0.4473 0.7744 0.4473
vn 0.1296 0.9831 0.1296
vn 0.1216 0.8623 0.4915
vn -0.9831 0.1296 0.1296
vn -0.8623 0.1216 0.4915
vn -0.7744 0.4473 0.4473
vn -0.8623 0.4915 0.1216
vn -0.4915 0.1216 0.8623
vn -0.4473 0.4473 0.7744
vn -0.1296 0.1296 0.9831
vn -0.1216 0.4915 0.8623
vn -0.1216 0.8623 0.4915
vn -0.4473 0.7744 0.4473
vn -0.1296 0.9831 0.1296
vn -0.4915 0.8623 0.1216
vn -0.9831 0.1296 -0.1296
vn -0.8623 0.4915 -0.1216
vn -0.7744 0.4473 -0.4473
vn -0.8623 0.1216 -0.4915
vn -0.4915 0.8623 -0.1216
vn -0.4473 0.7744 -0.4473
vn -0.1296 0.9831 -0.1296
vn -0.1216 0.8623 -0.4915
vn -0.1216 0.4915 -0.8623
vn -0.4473 0.4473 -0.7744
vn -0.1296 0.1296 -0.9831
vn -0.4915 0.1216 -0.8623
usemtl Material
s off
f 49/1/1 3/2/1 37/3/1 87/4/1
f 2/5/2 15/6/2 27/7/2 38/8/2
f 26/9/3 73/10/3 85/11/3 39/12/3
f 50/13/4 86/14/4 75/15/4 63/16/4
f 14/17/5 61/18/5 74/19/5 25/20/5
f 1/21/6 51/22/6 62/23/6 13/24/6
usemtl gray
s 1
f 1/25/7 4/26/8 6/27/9 5/28/10
f 4/29/8 8/30/11 9/31/12 6/32/9
f 2/33/13 7/34/14 9/35/12 8/36/11
f 7/37/14 11/38/15 12/39/16 9/40/12
f 3/41/17 10/42/18 12/43/16 11/44/15
f 10/45/18 5/46/10 6/47/9 12/48/16
f 6/49/9 9/50/12 12/51/16
f 13/52/19 16/53/20 18/54/21 17/55/22
f 16/56/20 20/57/23 21/58/24 18/59/21
f 14/60/25 19/61/26 21/62/24 20/63/23
f 19/64/26 23/65/27 24/66/28 21/67/24
f 15/68/29 22/69/30 24/70/28 23/71/27
f 22/72/30 17/73/22 18/74/21 24/75/28
f 18/76/21 21/77/24 24/78/28
f 25/79/31 28/80/32 30/81/33 29/82/34
f 28/83/32 32/84/35 33/85/36 30/86/33
f 26/87/37 31/88/38 33/89/36 32/90/35
f 31/91/38 35/92/39 36/93/40 33/94/36
f 27/95/41 34/96/42 36/97/40 35/98/39
f 34/99/42 29/100/34 30/101/33 36/102/40
f 30/103/33 33/104/36 36/105/40
f 37/106/43 40/107/44 42/108/45 41/109/46
f 40/110/44 44/111/47 45/112/48 42/113/45
f 38/114/49 43/115/50 45/116/48 44/117/47
f 43/118/50 47/119/51 48/120/52 45/121/48
f 39/122/53 46/123/54 48/124/52 47/125/51
f 46/126/54 41/127/46 42/128/45 48/129/52
f 42/130/45 45/131/48 48/132/52
f 49/133/55 52/134/56 54/135/57 53/136/58
f 52/137/56 56/138/59 57/139/60 54/140/57
f 50/141/61 55/142/62 57/143/60 56/144/59
f 55/145/62 59/146/63 60/147/64 57/148/60
f 51/149/65 58/150/66 60/151/64 59/152/63
f 58/153/66 53/154/58 54/155/57 60/156/64
f 54/157/57 57/158/60 60/159/64
f 61/160/67 64/161/68 66/162/69 65/163/70
f 64/164/68 68/165/71 69/166/72 66/167/69
f 62/168/73 67/169/74 69/170/72 68/171/71
f 67/172/74 71/173/75 72/174/76 69/175/72
f 63/176/77 70/177/78 72/178/76 71/179/75
f 70/180/78 65/181/70 66/182/69 72/183/76
f 66/184/69 69/185/72 72/186/76
f 73/187/79 76/188/80 78/189/81 77/190/82
f 76/191/80 80/192/83 81/193/84 78/194/81
f 74/195/85 79/196/86 81/197/84 80/198/83
f 79/199/86 83/200/87 84/201/88 81/202/84
f 75/203/89 82/204/90 84/205/88 83/206/87
f 82/207/90 77/208/82 78/209/81 84/210/88
f 78/211/81 81/212/84 84/213/88
f 85/214/91 88/215/92 90/216/93 89/217/94
f 88/218/92 92/219/95 93/220/96 90/221/93
f 86/222/97 91/223/98 93/224/96 92/225/95
f 91/226/98 95/227/99 96/228/100 93/229/96
f 87/230/101 94/231/102 96/232/100 95/233/99
f 94/234/102 89/235/94 90/221/93 96/236/100
f 90/237/93 93/238/96 96/239/100
f 1/25/7 13/240/19 17/241/22 4/26/8
f 4/29/8 17/242/22 22/243/30 8/30/11
f 8/30/11 22/243/30 15/244/29 2/245/13
f 2/33/13 38/246/49 44/247/47 7/34/14
f 7/37/14 44/248/47 40/249/44 11/38/15
f 11/38/15 40/249/44 37/250/43 3/251/17
f 3/41/17 49/252/55 53/253/58 10/42/18
f 10/45/18 53/254/58 58/255/66 5/46/10
f 5/46/10 58/255/66 51/256/65 1/257/7
f 14/60/25 25/258/31 29/259/34 19/61/26
f 19/64/26 29/260/34 34/261/42 23/65/27
f 23/262/27 34/263/42 27/264/41 15/265/29
f 13/52/19 62/266/73 68/267/71 16/53/20
f 16/56/20 68/268/71 64/269/68 20/57/23
f 20/57/23 64/269/68 61/270/67 14/271/25
f 26/87/37 39/272/53 47/273/51 31/88/38
f 31/91/38 47/274/51 43/275/50 35/92/39
f 35/92/39 43/275/50 38/276/49 27/277/41
f 25/79/31 74/278/85 80/279/83 28/80/32
f 28/83/32 80/280/83 76/281/80 32/84/35
f 32/84/35 76/281/80 73/282/79 26/283/37
f 39/122/53 85/284/91 89/285/94 46/123/54
f 46/126/54 89/286/94 94/287/102 41/127/46
f 41/127/46 94/287/102 87/288/101 37/289/43
f 50/141/61 63/290/77 71/291/75 55/142/62
f 55/292/62 71/293/75 67/294/74 59/295/63
f 59/146/63 67/296/74 62/297/73 51/298/65
f 49/133/55 87/299/101 95/300/99 52/134/56
f 52/137/56 95/301/99 91/302/98 56/138/59
f 56/138/59 91/302/98 86/303/97 50/304/61
f 63/176/77 75/305/89 83/306/87 70/177/78
f 70/180/78 83/307/87 79/308/86 65/181/70
f 65/181/70 79/308/86 74/309/85 61/310/67
f 75/203/89 86/311/97 92/312/95 82/204/90
f 82/207/90 92/313/95 88/314/92 77/208/82
f 77/208/82 88/314/92 85/315/91 73/316/79
