# Blender v2.79 (sub 0) OBJ File: 'wall-sm.blend'
# www.blender.org
mtllib tile_wall-sm.mtl
o Cube
v 10.000000 -7.364124 -1.364124
v 9.364124 -8.000000 -1.364124
v 9.364124 -7.364124 -2.000000
v 9.915050 -7.681645 -1.364124
v 9.915050 -7.364124 -1.681645
v 9.832531 -7.668207 -1.668207
v 9.364124 -7.915050 -1.681645
v 9.681645 -7.915050 -1.364124
v 9.668207 -7.832531 -1.668207
v 9.681645 -7.364124 -1.915049
v 9.364124 -7.681645 -1.915049
v 9.668207 -7.668208 -1.832531
v 10.000000 -7.364124 1.364124
v 9.364124 -7.364124 2.000000
v 9.364124 -8.000000 1.364124
v 9.915050 -7.364124 1.681645
v 9.915050 -7.681645 1.364124
v 9.832531 -7.668208 1.668207
v 9.364124 -7.681645 1.915049
v 9.681645 -7.364124 1.915049
v 9.668207 -7.668207 1.832531
v 9.681645 -7.915050 1.364124
v 9.364124 -7.915050 1.681645
v 9.668207 -7.832531 1.668207
v -9.364124 -7.364124 2.000000
v -9.999999 -7.364124 1.364124
v -9.364123 -8.000000 1.364124
v -9.681645 -7.364124 1.915049
v -9.364125 -7.681645 1.915049
v -9.668208 -7.668208 1.832530
v -9.915050 -7.681645 1.364124
v -9.915050 -7.364124 1.681644
v -9.832532 -7.668207 1.668207
v -9.364124 -7.915050 1.681644
v -9.681645 -7.915050 1.364124
v -9.668208 -7.832531 1.668207
v -9.364120 -7.364124 -2.000000
v -9.364120 -8.000000 -1.364125
v -9.999996 -7.364124 -1.364125
v -9.364120 -7.681645 -1.915050
v -9.681641 -7.364124 -1.915050
v -9.668203 -7.668207 -1.832531
v -9.681642 -7.915050 -1.364125
v -9.364120 -7.915050 -1.681645
v -9.668203 -7.832531 -1.668208
v -9.915045 -7.364124 -1.681645
v -9.915046 -7.681645 -1.364125
v -9.832527 -7.668208 -1.668208
v 9.364129 7.364124 -1.999999
v 9.364128 8.000000 -1.364123
v 10.000003 7.364124 -1.364123
v 9.364130 7.681645 -1.915048
v 9.681650 7.364124 -1.915048
v 9.668212 7.668207 -1.832530
v 9.681649 7.915050 -1.364123
v 9.364129 7.915050 -1.681644
v 9.668212 7.832531 -1.668206
v 9.915053 7.364124 -1.681644
v 9.915053 7.681645 -1.364123
v 9.832536 7.668208 -1.668206
v 9.364120 7.364124 2.000001
v 9.999997 7.364124 1.364125
v 9.364121 8.000000 1.364125
v 9.681640 7.364124 1.915051
v 9.364119 7.681645 1.915051
v 9.668202 7.668208 1.832532
v 9.915046 7.681645 1.364125
v 9.915045 7.364124 1.681646
v 9.832526 7.668207 1.668209
v 9.364120 7.915050 1.681646
v 9.681642 7.915050 1.364125
v 9.668202 7.832531 1.668209
v -10.000004 7.364124 1.364124
v -9.364129 7.364124 2.000000
v -9.364128 8.000000 1.364124
v -9.915053 7.364124 1.681645
v -9.915053 7.681645 1.364124
v -9.832536 7.668208 1.668207
v -9.364129 7.681645 1.915049
v -9.681649 7.364124 1.915049
v -9.668212 7.668207 1.832531
v -9.681649 7.915050 1.364124
v -9.364128 7.915050 1.681645
v -9.668212 7.832531 1.668207
v -10.000001 7.364124 -1.364124
v -9.364125 8.000000 -1.364124
v -9.364124 7.364124 -2.000000
v -9.915051 7.681645 -1.364124
v -9.915050 7.364124 -1.681645
v -9.832532 7.668207 -1.668207
v -9.364125 7.915050 -1.681645
v -9.681646 7.915050 -1.364124
v -9.668208 7.832531 -1.668207
v -9.681645 7.364124 -1.915049
v -9.364124 7.681645 -1.915049
v -9.668207 7.668208 -1.832531
vt 4.838227 0.161176
vt 4.838227 3.838824
vt 0.161778 3.838824
vt 0.161777 0.161177
vt 0.840623 4.838225
vt 0.159378 4.838225
vt 0.159378 0.161775
vt 0.840623 0.161776
vt 0.159378 3.838824
vt 0.159378 0.161176
vt 0.840622 0.161176
vt 0.840622 3.838824
vt 4.838227 0.840622
vt 0.161776 0.840622
vt 0.161775 0.159378
vt 4.838225 0.159378
vt 4.838225 0.161176
vt 4.838224 3.838823
vt 0.161775 3.838825
vt 0.161775 0.161176
vt 0.840622 0.161176
vt 0.840622 3.838824
vt 0.159378 3.838824
vt 0.159378 0.161176
vt 0.840622 0.081891
vt 0.916552 0.085246
vt 0.919907 0.161176
vt 0.840622 0.002398
vt 0.916552 0.002398
vt 0.919908 4.838224
vt 0.916552 4.914154
vt 0.840623 4.917510
vt 0.999401 4.838225
vt 0.999401 4.914154
vt 4.917512 3.838825
vt 4.914157 3.914754
vt 4.838227 3.918109
vt 4.997005 3.838824
vt 4.997005 3.914754
vt 0.999401 0.085246
vt 0.080093 0.161176
vt 0.083448 0.085247
vt 0.159378 0.081891
vt 0.000600 0.161176
vt 0.000600 0.085247
vt 4.838225 0.081891
vt 4.914155 0.085246
vt 4.917510 0.161176
vt 4.838224 0.002398
vt 4.914154 0.002398
vt 0.159378 4.917510
vt 0.083448 4.914155
vt 0.080093 4.838225
vt 0.159378 4.997004
vt 0.083449 4.997004
vt 0.083448 0.002398
vt 0.082490 0.161176
vt 0.085845 0.085246
vt 0.161775 0.081891
vt 0.002996 0.161176
vt 0.002996 0.085246
vt 0.159378 3.918109
vt 0.083448 3.914754
vt 0.080093 3.838824
vt 0.159378 3.997602
vt 0.083449 3.997602
vt 0.080093 0.161775
vt 0.083448 0.085845
vt 0.159378 0.082490
vt 0.000600 0.161775
vt 0.000600 0.085845
vt 0.085845 0.002398
vt 0.161778 3.918109
vt 0.085848 3.914754
vt 0.082493 3.838824
vt 0.161778 3.997602
vt 0.085849 3.997602
vt 0.840623 0.082491
vt 0.916552 0.085846
vt 0.919908 0.161776
vt 0.840623 0.002998
vt 0.916552 0.002998
vt 0.919908 3.838824
vt 0.916552 3.914754
vt 0.840622 3.918108
vt 0.999401 3.838824
vt 0.999401 3.914754
vt 0.003000 3.914754
vt 4.838228 0.081891
vt 4.914157 0.085246
vt 4.917512 0.161176
vt 4.838227 0.002398
vt 4.914157 0.002398
vt 4.917512 0.840622
vt 4.914156 0.916552
vt 4.838227 0.919907
vt 4.997005 0.840622
vt 4.997005 0.916552
vt 0.919907 3.838824
vt 0.916552 3.914754
vt 0.840622 3.918109
vt 0.999400 3.838824
vt 0.999401 3.914754
vt 4.997005 0.085246
vt 4.917508 3.838823
vt 4.914153 3.914753
vt 4.838223 3.918108
vt 4.997002 3.838823
vt 4.997002 3.914753
vt 0.159378 3.918109
vt 0.083448 3.914754
vt 0.080093 3.838824
vt 0.159377 3.997602
vt 0.083448 3.997602
vt 4.838224 0.080093
vt 4.914154 0.083448
vt 4.917510 0.159378
vt 4.838224 0.000599
vt 4.914154 0.000599
vt 4.914153 3.997602
vt 0.080093 0.161176
vt 0.083448 0.085246
vt 0.159378 0.081891
vt 0.000600 0.161176
vt 0.000600 0.085246
vt 0.161775 3.918110
vt 0.085845 3.914754
vt 0.082490 3.838825
vt 0.161775 3.997603
vt 0.085845 3.997603
vt 0.082490 0.159378
vt 0.085845 0.083448
vt 0.161775 0.080093
vt 0.002997 0.159378
vt 0.002997 0.083448
vt 0.083448 0.002397
vt 0.840622 0.081891
vt 0.916552 0.085246
vt 0.919908 0.161176
vt 0.840622 0.002398
vt 0.916552 0.002398
vt 0.161776 0.919907
vt 0.085846 0.916552
vt 0.082491 0.840622
vt 0.161777 0.999401
vt 0.085846 0.999401
vt 0.082491 0.161177
vt 0.085847 0.085247
vt 0.161777 0.081892
vt 0.002998 0.161177
vt 0.002998 0.085247
vt 0.999401 0.085246
vt 0.159378 0.002398
vt 0.999401 0.161776
vt 4.997005 0.161176
vt 0.161775 0.002398
vt 0.000599 3.838824
vt 0.840623 3.997602
vt 0.002996 3.838825
vt 0.999401 0.161176
vt 4.997004 0.159378
vt 0.161776 0.002398
vt 0.161775 0.000600
vt 0.002998 0.840622
vn 0.0000 0.0000 -1.0000
vn 0.0000 -1.0000 -0.0000
vn -1.0000 -0.0000 -0.0000
vn 0.0000 1.0000 0.0000
vn -0.0000 -0.0000 1.0000
vn 1.0000 0.0000 0.0000
vn 0.9831 -0.1296 -0.1296
vn 0.8623 -0.4915 -0.1216
vn 0.7744 -0.4473 -0.4473
vn 0.8623 -0.1216 -0.4915
vn 0.4915 -0.8623 -0.1216
vn 0.4473 -0.7744 -0.4473
vn 0.1296 -0.9831 -0.1296
vn 0.1216 -0.8623 -0.4915
vn 0.1216 -0.4915 -0.8623
vn 0.4473 -0.4473 -0.7744
vn 0.1296 -0.1296 -0.9831
vn 0.4915 -0.1216 -0.8623
vn 0.9830 -0.1296 0.1296
vn 0.8623 -0.1216 0.4915
vn 0.7744 -0.4473 0.4473
vn 0.8623 -0.4915 0.1216
vn 0.4915 -0.1216 0.8623
vn 0.4473 -0.4473 0.7744
vn 0.1296 -0.1296 0.9831
vn 0.1216 -0.4915 0.8623
vn 0.1216 -0.8623 0.4915
vn 0.4473 -0.7744 0.4473
vn 0.1296 -0.9831 0.1296
vn 0.4915 -0.8623 0.1216
vn -0.1296 -0.1296 0.9831
vn -0.4915 -0.1216 0.8623
vn -0.4473 -0.4473 0.7744
vn -0.1216 -0.4915 0.8623
vn -0.8623 -0.1216 0.4915
vn -0.7744 -0.4473 0.4473
vn -0.9831 -0.1296 0.1296
vn -0.8623 -0.4915 0.1216
vn -0.4915 -0.8623 0.1216
vn -0.4473 -0.7744 0.4473
vn -0.1296 -0.9831 0.1296
vn -0.1216 -0.8623 0.4915
vn -0.1296 -0.1296 -0.9831
vn -0.1216 -0.4915 -0.8623
vn -0.4473 -0.4473 -0.7744
vn -0.4915 -0.1216 -0.8623
vn -0.1216 -0.8623 -0.4915
vn -0.4473 -0.7744 -0.4473
vn -0.1296 -0.9831 -0.1296
vn -0.4915 -0.8623 -0.1216
vn -0.8623 -0.4915 -0.1216
vn -0.7744 -0.4473 -0.4473
vn -0.9831 -0.1296 -0.1296
vn -0.8623 -0.1216 -0.4915
vn 0.1296 0.1296 -0.9831
vn 0.1216 0.4915 -0.8623
vn 0.4473 0.4473 -0.7744
vn 0.4915 0.1216 -0.8623
vn 0.1216 0.8623 -0.4915
vn 0.4473 0.7744 -0.4473
vn 0.1296 0.9831 -0.1296
vn 0.4915 0.8623 -0.1216
vn 0.8623 0.4915 -0.1216
vn 0.7744 0.4473 -0.4473
vn 0.9831 0.1296 -0.1296
vn 0.8623 0.1216 -0.4915
vn 0.1296 0.1296 0.9831
vn 0.4915 0.1216 0.8623
vn 0.4473 0.4473 0.7744
vn 0.1216 0.4915 0.8623
vn 0.8623 0.1216 0.4915
vn 0.7744 0.4473 0.4473
vn 0.9830 0.1296 0.1296
vn 0.8623 0.4915 0.1216
vn 0.4915 0.8623 0.1216
vn 0.4473 0.7744 0.4473
vn 0.1296 0.9831 0.1296
vn 0.1216 0.8623 0.4915
vn -0.9831 0.1296 0.1296
vn -0.8623 0.1216 0.4915
vn -0.7744 0.4473 0.4473
vn -0.8623 0.4915 0.1216
vn -0.4915 0.1216 0.8623
vn -0.4473 0.4473 0.7744
vn -0.1296 0.1296 0.9831
vn -0.1216 0.4915 0.8623
vn -0.1216 0.8623 0.4915
vn -0.4473 0.7744 0.4473
vn -0.1296 0.9831 0.1296
vn -0.4915 0.8623 0.1216
vn -0.9831 0.1296 -0.1296
vn -0.8623 0.4915 -0.1216
vn -0.7744 0.4473 -0.4473
vn -0.8623 0.1216 -0.4915
vn -0.4915 0.8623 -0.1216
vn -0.4473 0.7744 -0.4473
vn -0.1296 0.9831 -0.1296
vn -0.1216 0.8623 -0.4915
vn -0.1216 0.4915 -0.8623
vn -0.4473 0.4473 -0.7744
vn -0.1296 0.1296 -0.9831
vn -0.4915 0.1216 -0.8623
usemtl Material
s off
f 49/1/1 3/2/1 37/3/1 87/4/1
f 2/5/2 15/6/2 27/7/2 38/8/2
f 26/9/3 73/10/3 85/11/3 39/12/3
f 50/13/4 86/14/4 75/15/4 63/16/4
f 14/17/5 61/18/5 74/19/5 25/20/5
f 1/21/6 51/22/6 62/23/6 13/24/6
usemtl rim
s 1
f 1/21/7 4/25/8 6/26/9 5/27/10
f 4/25/8 8/28/11 9/29/12 6/26/9
f 2/5/13 7/30/14 9/31/12 8/32/11
f 7/30/14 11/33/15 12/34/16 9/31/12
f 3/2/17 10/35/18 12/36/16 11/37/15
f 10/35/18 5/38/10 6/39/9 12/36/16
f 6/26/9 9/29/12 12/40/16
f 13/24/19 16/41/20 18/42/21 17/43/22
f 16/41/20 20/44/23 21/45/24 18/42/21
f 14/17/25 19/46/26 21/47/24 20/48/23
f 19/46/26 23/49/27 24/50/28 21/47/24
f 15/6/29 22/51/30 24/52/28 23/53/27
f 22/51/30 17/54/22 18/55/21 24/52/28
f 18/42/21 21/45/24 24/56/28
f 25/20/31 28/57/32 30/58/33 29/59/34
f 28/57/32 32/60/35 33/61/36 30/58/33
f 26/9/37 31/62/38 33/63/36 32/64/35
f 31/62/38 35/65/39 36/66/40 33/63/36
f 27/7/41 34/67/42 36/68/40 35/69/39
f 34/67/42 29/70/34 30/71/33 36/68/40
f 30/58/33 33/61/36 36/72/40
f 37/3/43 40/73/44 42/74/45 41/75/46
f 40/73/44 44/76/47 45/77/48 42/74/45
f 38/8/49 43/78/50 45/79/48 44/80/47
f 43/78/50 47/81/51 48/82/52 45/79/48
f 39/12/53 46/83/54 48/84/52 47/85/51
f 46/83/54 41/86/46 42/87/45 48/84/52
f 42/74/45 45/77/48 48/88/52
f 49/1/55 52/89/56 54/90/57 53/91/58
f 52/89/56 56/92/59 57/93/60 54/90/57
f 50/13/61 55/94/62 57/95/60 56/96/59
f 55/94/62 59/97/63 60/98/64 57/95/60
f 51/22/65 58/99/66 60/100/64 59/101/63
f 58/99/66 53/102/58 54/103/57 60/100/64
f 54/90/57 57/93/60 60/104/64
f 61/18/67 64/105/68 66/106/69 65/107/70
f 64/105/68 68/108/71 69/109/72 66/106/69
f 62/23/73 67/110/74 69/111/72 68/112/71
f 67/110/74 71/113/75 72/114/76 69/111/72
f 63/16/77 70/115/78 72/116/76 71/117/75
f 70/115/78 65/118/70 66/119/69 72/116/76
f 66/106/69 69/109/72 72/120/76
f 73/10/79 76/121/80 78/122/81 77/123/82
f 76/121/80 80/124/83 81/125/84 78/122/81
f 74/19/85 79/126/86 81/127/84 80/128/83
f 79/126/86 83/129/87 84/130/88 81/127/84
f 75/15/89 82/131/90 84/132/88 83/133/87
f 82/131/90 77/134/82 78/135/81 84/132/88
f 78/122/81 81/125/84 84/136/88
f 85/11/91 88/137/92 90/138/93 89/139/94
f 88/137/92 92/140/95 93/141/96 90/138/93
f 86/14/97 91/142/98 93/143/96 92/144/95
f 91/142/98 95/145/99 96/146/100 93/143/96
f 87/4/101 94/147/102 96/148/100 95/149/99
f 94/147/102 89/150/94 90/151/93 96/148/100
f 90/138/93 93/141/96 96/152/100
f 1/21/7 13/24/19 17/43/22 4/25/8
f 4/25/8 17/43/22 22/153/30 8/28/11
f 8/32/11 22/51/30 15/6/29 2/5/13
f 2/5/13 38/8/49 44/80/47 7/30/14
f 7/30/14 44/80/47 40/154/44 11/33/15
f 11/37/15 40/73/44 37/3/43 3/2/17
f 3/2/17 49/1/55 53/91/58 10/35/18
f 10/35/18 53/91/58 58/155/66 5/38/10
f 5/27/10 58/99/66 51/22/65 1/21/7
f 14/17/25 25/20/31 29/59/34 19/46/26
f 19/46/26 29/59/34 34/156/42 23/49/27
f 23/53/27 34/67/42 27/7/41 15/6/29
f 13/24/19 62/23/73 68/112/71 16/41/20
f 16/41/20 68/112/71 64/157/68 20/44/23
f 20/48/23 64/105/68 61/18/67 14/17/25
f 26/9/37 39/12/53 47/85/51 31/62/38
f 31/62/38 47/85/51 43/158/50 35/65/39
f 35/69/39 43/78/50 38/8/49 27/7/41
f 25/20/31 74/19/85 80/128/83 28/57/32
f 28/57/32 80/128/83 76/159/80 32/60/35
f 32/64/35 76/121/80 73/10/79 26/9/37
f 39/12/53 85/11/91 89/139/94 46/83/54
f 46/83/54 89/139/94 94/160/102 41/86/46
f 41/75/46 94/147/102 87/4/101 37/3/43
f 50/13/61 63/16/77 71/117/75 55/94/62
f 55/94/62 71/117/75 67/161/74 59/97/63
f 59/101/63 67/110/74 62/23/73 51/22/65
f 49/1/55 87/4/101 95/149/99 52/89/56
f 52/89/56 95/149/99 91/162/98 56/92/59
f 56/96/59 91/142/98 86/14/97 50/13/61
f 63/16/77 75/15/89 83/133/87 70/115/78
f 70/115/78 83/133/87 79/163/86 65/118/70
f 65/107/70 79/126/86 74/19/85 61/18/67
f 75/15/89 86/14/97 92/144/95 82/131/90
f 82/131/90 92/144/95 88/164/92 77/134/82
f 77/123/82 88/137/92 85/11/91 73/10/79
