# Blender v2.79 (sub 0) OBJ File: 'wall-md.blend'
# www.blender.org
mtllib tile_wall-md.mtl
o Cube
v 30.000000 -8.000000 -2.000000
v 30.000000 -8.000000 2.000000
v -30.000000 -8.000000 2.000000
v -29.999985 -8.000000 -2.000000
v 30.000015 8.000000 -1.999999
v 29.999985 8.000000 2.000001
v -30.000015 8.000000 2.000000
v -30.000000 8.000000 -2.000000
vt 0.999401 14.991009
vt 0.000600 14.991011
vt 0.000600 0.008989
vt 0.999401 0.008993
vt 14.991016 0.999400
vt 0.008993 0.999401
vt 0.008989 0.000600
vt 14.991008 0.000599
vt 0.999401 0.002398
vt 0.999400 3.997602
vt 0.000599 3.997602
vt 0.000600 0.002398
vt 14.991009 0.002398
vt 14.991005 3.997602
vt 0.008989 3.997603
vt 0.008989 0.002398
vt 0.000600 3.997602
vt 0.000600 0.002397
vt 0.999401 0.002398
vt 0.999401 3.997602
vt 14.991016 0.002398
vt 14.991016 3.997602
vt 0.009000 3.997602
vt 0.008994 0.002398
vn 0.0000 -1.0000 0.0000
vn 0.0000 1.0000 0.0000
vn 1.0000 0.0000 0.0000
vn -0.0000 -0.0000 1.0000
vn -1.0000 -0.0000 -0.0000
vn 0.0000 0.0000 -1.0000
usemtl Material
s off
f 1/1/1 2/2/1 3/3/1 4/4/1
f 5/5/2 8/6/2 7/7/2 6/8/2
f 1/9/3 5/10/3 6/11/3 2/12/3
f 2/13/4 6/14/4 7/15/4 3/16/4
f 3/17/5 7/18/5 8/19/5 4/20/5
f 5/21/6 1/22/6 4/23/6 8/24/6
