# Blender v2.79 (sub 0) OBJ File: 'tile.blend'
# www.blender.org
mtllib wall_tile.mtl
o Cube_Cube.001
v -0.412727 -0.500000 0.412727
v -0.412727 -0.412727 0.500000
v -0.500000 -0.412727 0.412727
v -0.412727 0.412727 0.500000
v -0.412727 0.500000 0.412727
v -0.500000 0.412727 0.412727
v -0.412727 -0.500000 -0.412727
v -0.500000 -0.412727 -0.412727
v -0.412727 -0.412727 -0.500000
v -0.412727 0.500000 -0.412727
v -0.412727 0.412727 -0.500000
v -0.500000 0.412727 -0.412727
v 0.412727 -0.500000 0.412727
v 0.500000 -0.412727 0.412727
v 0.412727 -0.412727 0.500000
v 0.412727 0.500000 0.412727
v 0.412727 0.412727 0.500000
v 0.500000 0.412727 0.412727
v 0.412727 -0.500000 -0.412727
v 0.412727 -0.412727 -0.500000
v 0.500000 -0.412727 -0.412727
v 0.412727 0.500000 -0.412727
v 0.500000 0.412727 -0.412727
v 0.412727 0.412727 -0.500000
v 0.481296 -0.160938 0.397288
v 0.481296 0.160938 0.397288
v 0.397288 0.160938 0.481296
v 0.397288 -0.160938 0.481296
v 0.397288 -0.160938 -0.481296
v 0.397288 0.160938 -0.481296
v 0.481296 0.160938 -0.397288
v 0.481296 -0.160938 -0.397288
v -0.481296 -0.160938 -0.397288
v -0.481296 0.160938 -0.397288
v -0.397288 0.160938 -0.481296
v -0.397288 -0.160938 -0.481296
v -0.481296 0.160938 0.397288
v -0.481296 -0.160938 0.397288
v -0.397288 -0.160938 0.481296
v -0.397288 0.160938 0.481296
v 0.160938 -0.481296 -0.397288
v -0.160938 -0.481296 -0.397288
v 0.160938 -0.397288 -0.481296
v -0.160938 -0.397288 -0.481296
v -0.160938 0.481296 -0.397288
v 0.160938 0.481296 -0.397288
v 0.160938 0.397288 -0.481296
v -0.160938 0.397288 -0.481296
v 0.160938 -0.481296 0.397288
v -0.160938 -0.481296 0.397288
v -0.160938 -0.397288 0.481296
v 0.160938 -0.397288 0.481296
v 0.160938 0.481296 0.397288
v -0.160938 0.481296 0.397288
v -0.160938 0.397288 0.481296
v 0.160938 0.397288 0.481296
v 0.160938 0.160938 -0.481296
v 0.160938 -0.160938 -0.481296
v -0.160938 -0.160938 -0.481296
v -0.160938 0.160938 -0.481296
v -0.160938 0.160938 0.481296
v -0.160938 -0.160938 0.481296
v 0.160938 -0.160938 0.481296
v 0.160938 0.160938 0.481296
v -0.397288 -0.481296 0.160938
v -0.397288 -0.481296 -0.160938
v -0.481296 -0.397288 -0.160938
v -0.481296 -0.397288 0.160938
v -0.397288 0.481296 0.160938
v -0.397288 0.481296 -0.160938
v -0.481296 0.397288 -0.160938
v -0.481296 0.397288 0.160938
v 0.397288 -0.481296 -0.160938
v 0.397288 -0.481296 0.160938
v 0.481296 -0.397288 0.160938
v 0.481296 -0.397288 -0.160938
v 0.397288 0.481296 0.160938
v 0.397288 0.481296 -0.160938
v 0.481296 0.397288 0.160938
v 0.481296 0.397288 -0.160938
v -0.481296 0.160938 -0.160938
v -0.481296 -0.160938 -0.160938
v -0.481296 -0.160938 0.160938
v -0.481296 0.160938 0.160938
v 0.481296 0.160938 0.160938
v 0.481296 -0.160938 0.160938
v 0.481296 -0.160938 -0.160938
v 0.481296 0.160938 -0.160938
v 0.160938 -0.481296 0.160938
v -0.160938 -0.481296 0.160938
v -0.160938 -0.481296 -0.160938
v 0.160938 -0.481296 -0.160938
v -0.160938 0.481296 0.160938
v 0.160938 0.481296 0.160938
v 0.160938 0.481296 -0.160938
v -0.160938 0.481296 -0.160938
vn 0.0697 -0.9951 0.0697
vn 0.0000 0.0000 1.0000
vn 1.0000 0.0000 0.0000
vn -0.7039 -0.7039 -0.0954
vn -0.7039 0.0954 -0.7039
vn -0.5774 -0.5774 0.5774
vn -0.5774 0.5774 0.5774
vn -0.5774 -0.5774 -0.5774
vn -0.5774 0.5774 -0.5774
vn 0.5774 -0.5774 0.5774
vn 0.5774 0.5774 0.5774
vn 0.5774 -0.5774 -0.5774
vn 0.5774 0.5774 -0.5774
vn -0.7039 -0.7039 0.0954
vn -1.0000 0.0000 0.0000
vn -0.7039 0.7039 -0.0954
vn -0.9951 0.0697 0.0697
vn 0.0000 -1.0000 0.0000
vn 0.0000 1.0000 0.0000
vn 0.7039 -0.0954 -0.7039
vn 0.7039 -0.7039 -0.0954
vn 0.7039 0.7039 0.0954
vn 0.9951 0.0697 -0.0697
vn 0.0697 -0.9951 -0.0697
vn -0.0697 0.9951 -0.0697
vn 0.0954 -0.7039 0.7039
vn 0.0000 0.0000 -1.0000
vn -0.9951 0.0697 -0.0697
vn 0.7039 0.0954 -0.7039
vn 0.7039 -0.0954 0.7039
vn -0.0697 0.0697 -0.9951
vn -0.7039 0.0954 0.7039
vn 0.0954 0.7039 0.7039
vn -0.0954 -0.7039 0.7039
vn -0.0697 0.9951 0.0697
vn 0.0697 0.0697 -0.9951
vn -0.0954 0.7039 0.7039
vn -0.0697 0.0697 0.9951
vn -0.0954 0.7039 -0.7039
vn 0.0954 -0.7039 -0.7039
vn -0.7039 -0.0954 -0.7039
vn -0.7039 -0.0954 0.7039
vn -0.0954 -0.7039 -0.7039
vn 0.7039 0.7039 -0.0954
vn 0.7039 -0.7039 0.0954
vn -0.7039 0.7039 0.0954
vn 0.0697 0.0697 0.9951
vn 0.0954 0.7039 -0.7039
vn 0.9951 0.0697 0.0697
vn -0.7071 0.0000 0.7071
vn -0.7071 0.0000 -0.7071
vn 0.7071 0.0000 0.7071
vn 0.7071 0.0000 -0.7071
vn 0.0000 0.7071 0.7071
vn 0.0000 -0.7071 0.7071
vn 0.0000 0.7071 -0.7071
vn 0.0000 -0.7071 -0.7071
vn 0.7071 0.7071 0.0000
vn 0.7071 -0.7071 0.0000
vn -0.7071 0.7071 0.0000
vn -0.7071 -0.7071 0.0000
vn 0.7039 0.0954 0.7039
vn -0.0697 -0.0697 0.9951
vn 0.9951 -0.0697 -0.0697
vn 0.9951 -0.0697 0.0697
vn -0.9951 -0.0697 -0.0697
vn -0.0697 -0.9951 0.0697
vn 0.0697 0.9951 0.0697
vn -0.0697 -0.0697 -0.9951
vn -0.9951 -0.0697 0.0697
vn 0.0697 -0.0697 -0.9951
vn 0.0697 -0.0697 0.9951
vn 0.0697 0.9951 -0.0697
vn -0.0697 -0.9951 -0.0697
usemtl Material
s off
f 42//1 66//1 7//1
f 27//2 56//2 64//2
f 79//3 26//3 85//3
f 65//4 3//4 68//4
f 9//5 33//5 36//5
f 31//3 80//3 88//3
f 1//6 2//6 3//6
f 4//7 5//7 6//7
f 7//8 8//8 9//8
f 10//9 11//9 12//9
f 13//10 14//10 15//10
f 16//11 17//11 18//11
f 19//12 20//12 21//12
f 22//13 23//13 24//13
f 66//14 8//14 7//14
f 37//15 72//15 84//15
f 69//16 6//16 5//16
f 67//17 33//17 8//17
f 41//18 73//18 92//18
f 45//19 70//19 96//19
f 31//20 24//20 23//20
f 74//21 14//21 13//21
f 78//22 23//22 22//22
f 75//23 25//23 14//23
f 65//24 50//24 1//24
f 77//25 53//25 16//25
f 50//26 2//26 1//26
f 47//27 30//27 57//27
f 71//15 34//15 81//15
f 38//28 68//28 3//28
f 21//29 29//29 32//29
f 35//27 48//27 60//27
f 27//30 18//30 17//30
f 55//2 40//2 61//2
f 43//31 29//31 20//31
f 39//32 3//32 2//32
f 54//33 4//33 55//33
f 69//19 54//19 93//19
f 49//34 15//34 52//34
f 74//18 49//18 89//18
f 46//35 78//35 22//35
f 36//36 44//36 9//36
f 53//37 17//37 16//37
f 28//38 52//38 15//38
f 46//39 24//39 47//39
f 42//40 9//40 44//40
f 35//41 12//41 11//41
f 4//42 37//42 40//42
f 41//43 20//43 19//43
f 42//18 91//18 66//18
f 77//44 18//44 79//44
f 73//45 21//45 76//45
f 70//46 12//46 71//46
f 51//47 39//47 2//47
f 45//48 11//48 10//48
f 32//49 76//49 21//49
f 58//27 60//27 57//27
f 62//2 64//2 61//2
f 82//15 84//15 81//15
f 86//3 88//3 85//3
f 90//18 92//18 89//18
f 94//19 96//19 93//19
f 37//50 39//50 40//50
f 33//51 35//51 36//51
f 25//52 27//52 28//52
f 29//53 31//53 32//53
f 30//27 58//27 57//27
f 34//15 82//15 81//15
f 26//3 86//3 85//3
f 40//2 62//2 61//2
f 60//27 36//27 35//27
f 64//2 28//2 27//2
f 51//2 63//2 62//2
f 43//27 59//27 58//27
f 49//18 90//18 89//18
f 55//54 53//54 54//54
f 52//55 50//55 49//55
f 47//56 45//56 46//56
f 44//57 41//57 42//57
f 57//27 48//27 47//27
f 54//19 94//19 93//19
f 61//2 56//2 55//2
f 84//15 38//15 37//15
f 88//3 32//3 31//3
f 92//18 42//18 41//18
f 96//19 46//19 45//19
f 77//19 95//19 94//19
f 65//18 91//18 90//18
f 75//3 87//3 86//3
f 67//15 83//15 82//15
f 89//18 73//18 74//18
f 79//58 78//58 77//58
f 76//59 74//59 73//59
f 71//60 69//60 70//60
f 68//61 66//61 65//61
f 81//15 72//15 71//15
f 93//19 70//19 69//19
f 85//3 80//3 79//3
f 15//62 25//62 28//62
f 27//63 17//63 56//63
f 79//64 18//64 26//64
f 65//4 1//4 3//4
f 9//5 8//5 33//5
f 31//65 23//65 80//65
f 66//14 67//14 8//14
f 37//66 6//66 72//66
f 69//16 72//16 6//16
f 67//15 82//15 33//15
f 41//67 19//67 73//67
f 45//68 10//68 70//68
f 31//20 30//20 24//20
f 74//21 75//21 14//21
f 78//22 80//22 23//22
f 75//3 86//3 25//3
f 65//18 90//18 50//18
f 77//19 94//19 53//19
f 50//26 51//26 2//26
f 47//69 24//69 30//69
f 71//70 12//70 34//70
f 38//15 83//15 68//15
f 21//29 20//29 29//29
f 35//71 11//71 48//71
f 27//30 26//30 18//30
f 55//72 4//72 40//72
f 43//27 58//27 29//27
f 39//32 38//32 3//32
f 54//33 5//33 4//33
f 69//73 5//73 54//73
f 49//34 13//34 15//34
f 74//74 13//74 49//74
f 46//19 95//19 78//19
f 36//27 59//27 44//27
f 53//37 56//37 17//37
f 28//2 63//2 52//2
f 46//39 22//39 24//39
f 42//40 7//40 9//40
f 35//41 34//41 12//41
f 4//42 6//42 37//42
f 41//43 43//43 20//43
f 77//44 16//44 18//44
f 73//45 19//45 21//45
f 70//46 10//46 12//46
f 51//2 62//2 39//2
f 45//48 48//48 11//48
f 32//3 87//3 76//3
f 58//27 59//27 60//27
f 62//2 63//2 64//2
f 82//15 83//15 84//15
f 86//3 87//3 88//3
f 90//18 91//18 92//18
f 94//19 95//19 96//19
f 37//50 38//50 39//50
f 33//51 34//51 35//51
f 25//52 26//52 27//52
f 29//53 30//53 31//53
f 30//27 29//27 58//27
f 34//15 33//15 82//15
f 26//3 25//3 86//3
f 40//2 39//2 62//2
f 60//27 59//27 36//27
f 64//2 63//2 28//2
f 51//2 52//2 63//2
f 43//27 44//27 59//27
f 49//18 50//18 90//18
f 55//54 56//54 53//54
f 52//55 51//55 50//55
f 47//56 48//56 45//56
f 44//57 43//57 41//57
f 57//27 60//27 48//27
f 54//19 53//19 94//19
f 61//2 64//2 56//2
f 84//15 83//15 38//15
f 88//3 87//3 32//3
f 92//18 91//18 42//18
f 96//19 95//19 46//19
f 77//19 78//19 95//19
f 65//18 66//18 91//18
f 75//3 76//3 87//3
f 67//15 68//15 83//15
f 89//18 92//18 73//18
f 79//58 80//58 78//58
f 76//59 75//59 74//59
f 71//60 72//60 69//60
f 68//61 67//61 66//61
f 81//15 84//15 72//15
f 93//19 96//19 70//19
f 85//3 88//3 80//3
f 15//62 14//62 25//62
